<svg><metadata>Copyright 2012 Google Inc. All Rights Reserved.</metadata><defs><font id="NotoSans-BoldItalic" horiz-adv-x="0"><font-face x-height="1118" ascent="1638" bbox="-1051 -600 2648 2189" cap-height="1462" descent="-410" font-family="Noto Sans" font-stretch="normal" font-style="italic" font-weight="700" panose-1="2 11 8 2 4 5 4 9 2 4" slope="-12" underline-position="-103" underline-thickness="102" unicode-range="U+000D-FFFD" units-per-em="2048"/><glyph d="M193 1462h841v-1462h-841v1462zM297 104h633v1254h-633v-1254z" glyph-name=".notdef" horiz-adv-x="1229"/><glyph glyph-name="glyph1"/><glyph glyph-name="glyph1"/><glyph glyph-name="uni000D" horiz-adv-x="1044"/><glyph glyph-name="space" horiz-adv-x="532"/><glyph d="M391 485h-241l157 977h340zM25 115q0 90 53.5 144t150.5 54q68 0 109 -38t41 -107q0 -87 -55 -141t-144 -54q-73 0 -114 37.5t-41 104.5z" glyph-name="exclam" horiz-adv-x="586" unicode="!"/><glyph d="M549 1462l-152 -528h-196l71 528h277zM954 1462l-151 -528h-199l74 528h276z" glyph-name="quotedbl" horiz-adv-x="928" unicode="&quot;"/><glyph d="M1036 846l-69 -232h258l-19 -206h-297l-116 -408h-220l117 408h-194l-115 -408h-215l113 408h-238l18 206h277l70 232h-252l18 209h289l119 407h217l-117 -407h199l116 407h215l-116 -407h239l-18 -209h-279zM553 614h197l69 232h-196z" glyph-name="numbersign" horiz-adv-x="1323" unicode="#"/><glyph d="M1034 496q0 -184 -125.5 -291.5t-367.5 -124.5l-39 -199h-140l44 201q-209 12 -355 86v266q198 -107 404 -117l71 322q-163 61 -241 151t-78 214q0 173 127 279.5t350 121.5l35 151h139l-33 -151q166 -22 295 -90l-106 -232q-132 65 -242 74l-63 -299q131 -51 195 -99.5 t97 -113t33 -149.5zM594 322q63 9 102 45t39 98q0 46 -24.5 75.5t-59.5 43.5zM633 1157q-62 -7 -96.5 -41t-34.5 -94q0 -79 80 -111zM350 1462z" glyph-name="dollar" horiz-adv-x="1128" unicode="$"/><glyph d="M518 1274q-63 0 -110.5 -128.5t-47.5 -277.5q0 -96 56 -96q65 0 112 131t47 275q0 96 -57 96zM821 1165q0 -166 -56 -310t-151 -217t-217 -73q-139 0 -210.5 83.5t-71.5 236.5q0 169 55.5 311.5t148.5 214.5t216 72q137 0 211.5 -80t74.5 -238zM1554 1462l-1083 -1462 h-240l1088 1462h235zM1376 690q-39 0 -75 -56t-59 -156t-23 -193q0 -97 55 -97q41 0 77 55t59.5 154.5t23.5 196.5q0 96 -58 96zM1679 590q0 -167 -54 -313.5t-148 -220.5t-215 -74q-144 0 -216.5 78.5t-72.5 222.5q0 177 53 322t147.5 219.5t219.5 74.5q137 0 211.5 -78.5 t74.5 -230.5z" glyph-name="percent" horiz-adv-x="1753" unicode="%"/><glyph d="M1325 0h-350l-72 98q-175 -118 -403 -118q-209 0 -320.5 97.5t-111.5 280.5q0 145 78.5 248.5t273.5 200.5q-76 130 -76 258q0 195 117.5 307.5t316.5 112.5q169 0 266 -82.5t97 -224.5q0 -280 -365 -426l195 -263q44 57 80.5 121.5t78.5 173.5h300q-133 -313 -310 -497z M541 623q-88 -51 -123 -104.5t-35 -131.5q0 -65 45.5 -108t116.5 -43q115 0 221 59zM662 920q113 59 155.5 111t42.5 112q0 57 -30 82.5t-70 25.5q-66 0 -102.5 -46.5t-36.5 -119.5q0 -46 12 -92t29 -73z" glyph-name="ampersand" horiz-adv-x="1450" unicode="&amp;"/><glyph d="M549 1462l-152 -528h-196l71 528h277z" glyph-name="quotesingle" horiz-adv-x="522" unicode="'"/><glyph d="M74 281q0 339 122.5 626.5t381.5 554.5h262q-255 -278 -377.5 -573.5t-122.5 -618.5q0 -308 117 -594h-234q-149 266 -149 605z" glyph-name="parenleft" horiz-adv-x="694" unicode="("/><glyph d="M618 858q0 -342 -124 -630.5t-379 -551.5h-262q499 545 499 1192q0 307 -116 594h233q149 -264 149 -604z" glyph-name="parenright" horiz-adv-x="694" unicode=")"/><glyph d="M885 1522l-113 -353l387 29l-18 -254l-338 43l160 -336l-246 -73l-90 337l-197 -278l-207 164l275 248l-326 92l86 237l338 -174l33 369z" glyph-name="asterisk" horiz-adv-x="1116" unicode="*"/><glyph d="M475 612h-366v219h366v369h219v-369h367v-219h-367v-364h-219v364z" glyph-name="plus" horiz-adv-x="1128" unicode="+"/><glyph d="M377 238l8 -23q-118 -255 -262 -479h-225q74 167 194 502h285z" glyph-name="comma" horiz-adv-x="584" unicode=","/><glyph d="M41 424l53 250h524l-53 -250h-524z" glyph-name="hyphen" horiz-adv-x="659" unicode="-"/><glyph d="M25 115q0 90 53.5 144t150.5 54q68 0 109 -38t41 -107q0 -87 -55 -141t-144 -54q-73 0 -114 37.5t-41 104.5z" glyph-name="period" horiz-adv-x="584" unicode="."/><glyph d="M1014 1462l-809 -1462h-295l809 1462h295z" glyph-name="slash" horiz-adv-x="862" unicode="/"/><glyph d="M1110 1012q0 -308 -81.5 -548.5t-225.5 -362t-334 -121.5q-198 0 -300.5 122t-102.5 365q0 291 82.5 527t228 363.5t334.5 127.5q399 0 399 -473zM684 1235q-80 0 -149.5 -104t-117.5 -302t-48 -368q0 -115 27.5 -173.5t97.5 -58.5q82 0 151.5 106.5t115.5 301.5t46 385 q0 111 -30.5 162t-92.5 51z" glyph-name="zero" horiz-adv-x="1128" unicode="0"/><glyph d="M688 0h-305l180 829q35 152 76 287q-9 -8 -61.5 -47t-262.5 -170l-133 215l566 348h249z" glyph-name="one" horiz-adv-x="1128" unicode="1"/><glyph d="M913 0h-962l43 213l477 424q180 159 248.5 254.5t68.5 179.5q0 75 -41 114.5t-110 39.5q-66 0 -135.5 -33.5t-171.5 -118.5l-146 203q132 112 252 159.5t250 47.5q190 0 301 -98t111 -259q0 -107 -41 -201t-122.5 -188t-266.5 -245l-269 -222v-10h568z" glyph-name="two" horiz-adv-x="1128" unicode="2"/><glyph d="M1104 1149q0 -154 -94 -259t-262 -134v-8q131 -26 198.5 -106.5t67.5 -201.5q0 -133 -74 -238t-212 -163.5t-327 -58.5q-239 0 -387 79v267q84 -50 182 -75.5t191 -25.5q158 0 243 63.5t85 176.5q0 172 -258 172h-138l46 221h73q167 0 263 62t96 172q0 67 -43 104 t-121 37q-134 0 -287 -100l-127 204q124 81 232.5 113.5t246.5 32.5q190 0 298 -90.5t108 -243.5z" glyph-name="three" horiz-adv-x="1128" unicode="3"/><glyph d="M1028 303h-170l-63 -303h-293l63 303h-590l48 234l770 925h311l-195 -919h170zM616 543l58 248q12 58 40 164t42 141h-11q-46 -82 -127 -181l-313 -372h311z" glyph-name="four" horiz-adv-x="1128" unicode="4"/><glyph d="M623 922q183 0 289 -103t106 -287q0 -167 -71.5 -292t-208.5 -192.5t-330 -67.5q-117 0 -218.5 23t-162.5 58v269q174 -99 352 -99q154 0 241 71t87 194q0 94 -57.5 141t-166.5 47q-102 0 -213 -33l-104 78l207 733h755l-55 -262h-489l-88 -293q72 15 127 15z" glyph-name="five" horiz-adv-x="1128" unicode="5"/><glyph d="M88 469q0 202 61 395.5t167.5 335t256.5 213.5t357 72q125 0 223 -27l-51 -246q-84 25 -191 25q-198 0 -319.5 -111t-183.5 -342h8q115 166 311 166q157 0 242.5 -97t85.5 -273q0 -169 -71 -313.5t-190.5 -215.5t-277.5 -71q-212 0 -320 127t-108 362zM530 227 q99 0 161.5 94t62.5 236q0 71 -33.5 113.5t-102.5 42.5q-60 0 -114.5 -35.5t-87.5 -95.5t-33 -160q0 -91 40 -143t107 -52z" glyph-name="six" horiz-adv-x="1128" unicode="6"/><glyph d="M78 0l737 1202h-629l56 260h975l-41 -194l-752 -1268h-346z" glyph-name="seven" horiz-adv-x="1128" unicode="7"/><glyph d="M721 1485q123 0 215.5 -42t141 -118t48.5 -174q0 -134 -80.5 -233.5t-230.5 -151.5q217 -141 217 -365q0 -122 -63.5 -218.5t-181 -149.5t-273.5 -53q-214 0 -336.5 100t-122.5 270q0 298 348 426q-165 132 -165 299q0 119 58 212.5t168 145.5t257 52zM582 643 q-116 -45 -173 -107t-57 -153q0 -81 50 -128.5t135 -47.5q93 0 147.5 53.5t54.5 138.5q0 73 -36.5 131.5t-120.5 112.5zM694 1260q-76 0 -121 -46.5t-45 -119.5q0 -132 123 -201q185 72 185 221q0 68 -39.5 107t-102.5 39z" glyph-name="eight" horiz-adv-x="1128" unicode="8"/><glyph d="M1092 1001q0 -280 -99 -533t-264 -370.5t-403 -117.5q-128 0 -240 32v256q111 -41 227 -41q174 0 283.5 102t171.5 343h-8q-111 -158 -295 -158q-163 0 -252.5 103.5t-89.5 285.5q0 166 73 305.5t196 208t286 68.5q203 0 308.5 -123t105.5 -361zM645 1237 q-65 0 -115.5 -42t-78 -114t-27.5 -153q0 -87 37.5 -131.5t105.5 -44.5q60 0 111.5 36.5t82 100t30.5 158.5q0 84 -35.5 137t-110.5 53z" glyph-name="nine" horiz-adv-x="1128" unicode="9"/><glyph d="M25 115q0 90 53.5 144t150.5 54q68 0 109 -38t41 -107q0 -87 -55 -141t-144 -54q-73 0 -114 37.5t-41 104.5zM207 940q0 92 55.5 145.5t149.5 53.5q68 0 108.5 -38.5t40.5 -107.5q0 -86 -54.5 -140t-144.5 -54q-72 0 -113.5 36.5t-41.5 104.5z" glyph-name="colon" horiz-adv-x="584" unicode=":"/><glyph d="M385 215q-118 -255 -262 -479h-225q74 167 194 502h285zM207 940q0 92 55.5 145.5t149.5 53.5q68 0 108.5 -38.5t40.5 -107.5q0 -86 -54.5 -140t-144.5 -54q-72 0 -113.5 36.5t-41.5 104.5z" glyph-name="semicolon" horiz-adv-x="584" unicode=";"/><glyph d="M1061 203l-952 438v143l952 496v-240l-643 -317l643 -281v-239z" glyph-name="less" horiz-adv-x="1128" unicode="&lt;"/><glyph d="M109 418v219h952v-219h-952zM109 807v217h952v-217h-952z" glyph-name="equal" horiz-adv-x="1128" unicode="="/><glyph d="M109 442l643 281l-643 317v240l952 -496v-143l-952 -438v239z" glyph-name="greater" horiz-adv-x="1128" unicode="&gt;"/><glyph d="M260 485q27 146 85 238.5t175 171.5q124 84 157.5 127t33.5 96q0 119 -133 119q-50 0 -106.5 -16t-201.5 -84l-92 221q230 125 445 125q177 0 280 -87.5t103 -244.5q0 -83 -28.5 -149.5t-82.5 -123t-190 -147.5q-94 -63 -130 -111.5t-57 -134.5h-258zM166 115 q0 91 55 144.5t150 53.5q68 0 108.5 -38t40.5 -107q0 -87 -55 -141t-143 -54q-74 0 -115 38t-41 104z" glyph-name="question" horiz-adv-x="940" unicode="?"/><glyph d="M1733 840q0 -173 -64 -321t-177.5 -231t-254.5 -83q-88 0 -144.5 38.5t-72.5 108.5h-10q-52 -80 -114 -113.5t-142 -33.5q-127 0 -198 79.5t-71 229.5q0 147 67.5 276.5t187.5 205t268 75.5q185 0 327 -55l-106 -420q-11 -44 -19 -76.5t-8 -64.5q0 -68 58 -68 q66 0 124 64t92.5 171t34.5 214q0 213 -123.5 325.5t-359.5 112.5q-203 0 -366.5 -94t-255 -266t-91.5 -392q0 -243 134 -380.5t376 -137.5q117 0 219.5 20t221.5 66v-186q-230 -90 -465 -90q-217 0 -378 85.5t-246 241.5t-85 359q0 279 120.5 497t343 341.5t497.5 123.5 q318 0 499 -163.5t181 -458.5zM995 889q-82 0 -145.5 -51.5t-100 -137t-36.5 -174.5q0 -65 24.5 -102t69.5 -37q141 0 213 270l57 222q-36 10 -82 10z" glyph-name="at" horiz-adv-x="1753" unicode="@"/><glyph d="M842 348h-473l-172 -348h-320l766 1468h373l147 -1468h-297zM827 608l-26 350l-5 133l-3 156h-5q-54 -147 -106 -254l-188 -385h333z" glyph-name="A" horiz-adv-x="1286" unicode="A"/><glyph d="M788 1462q229 0 346 -81.5t117 -243.5q0 -150 -83 -246.5t-236 -128.5v-8q100 -26 159.5 -96.5t59.5 -180.5q0 -229 -153 -353t-423 -124h-522l309 1462h426zM545 883h149q121 0 181.5 48.5t60.5 139.5q0 137 -170 137h-152zM412 256h180q117 0 183.5 58t66.5 161 q0 162 -183 162h-165z" glyph-name="B" horiz-adv-x="1270" unicode="B"/><glyph d="M905 1227q-132 0 -237.5 -81t-169.5 -239t-64 -338q0 -167 68.5 -248t218.5 -81q146 0 338 77v-260q-199 -77 -400 -77q-254 0 -395 149.5t-141 423.5q0 262 104 482.5t278 335t400 114.5q125 0 222 -22.5t208 -82.5l-118 -250q-106 59 -175 78t-137 19z" glyph-name="C" horiz-adv-x="1253" unicode="C"/><glyph d="M1323 909q0 -280 -98 -486.5t-283.5 -314.5t-437.5 -108h-451l309 1462h396q270 0 417.5 -143t147.5 -410zM518 256q148 0 258 76t172 223.5t62 337.5q0 154 -72.5 234.5t-208.5 80.5h-115l-202 -952h106z" glyph-name="D" horiz-adv-x="1386" unicode="D"/><glyph d="M870 0h-817l309 1462h818l-54 -254h-512l-67 -321h477l-55 -254h-477l-80 -377h512z" glyph-name="E" horiz-adv-x="1110" unicode="E"/><glyph d="M358 0h-305l309 1462h814l-54 -254h-508l-79 -377h473l-56 -253h-473z" glyph-name="F" horiz-adv-x="1087" unicode="F"/><glyph d="M754 821h563l-162 -762q-134 -46 -248.5 -62.5t-242.5 -16.5q-259 0 -400 147t-141 422q0 266 105.5 482t298.5 335t452 119q218 0 410 -99l-115 -251q-74 40 -148 64t-161 24q-153 0 -273.5 -83t-189 -236.5t-68.5 -330.5q0 -172 72.5 -252.5t222.5 -80.5q76 0 170 24 l66 299h-267z" glyph-name="G" horiz-adv-x="1413" unicode="G"/><glyph d="M1135 0h-306l134 631h-471l-134 -631h-305l309 1462h306l-121 -573h471l121 573h305z" glyph-name="H" horiz-adv-x="1434" unicode="H"/><glyph d="M588 0h-647l36 176l187 82l201 946l-152 82l37 176h647l-37 -176l-190 -82l-201 -946l156 -82z" glyph-name="I" horiz-adv-x="784" unicode="I"/><glyph d="M-135 -430q-94 0 -187 27v253q88 -20 164 -20q99 0 160.5 60.5t89.5 191.5l293 1380h305l-303 -1423q-52 -245 -175.5 -357t-346.5 -112z" glyph-name="J" horiz-adv-x="678" unicode="J"/><glyph d="M1141 0h-338l-211 592l-125 -70l-109 -522h-305l309 1462h306l-154 -706l156 209l413 497h361l-594 -700z" glyph-name="K" horiz-adv-x="1255" unicode="K"/><glyph d="M53 0l309 1462h306l-256 -1206h512l-54 -256h-817z" glyph-name="L" horiz-adv-x="1061" unicode="L"/><glyph d="M840 369l549 1093h423l-309 -1462h-280l145 692q36 169 109 441h-9l-569 -1133h-281l-61 1133h-8q-22 -182 -78 -453l-143 -680h-275l309 1462h404l65 -1093h9z" glyph-name="M" horiz-adv-x="1802" unicode="M"/><glyph d="M1247 0h-342l-356 1106h-10l-8 -59q-27 -214 -58 -359l-145 -688h-275l309 1462h357l340 -1077h8q35 223 68 385l147 692h274z" glyph-name="N" horiz-adv-x="1546" unicode="N"/><glyph d="M1432 938q0 -283 -99 -506.5t-271 -337.5t-396 -114q-256 0 -399.5 147.5t-143.5 409.5q0 265 99 487.5t273 341.5t402 119q255 0 395 -144t140 -403zM872 1227q-121 0 -222 -91.5t-158.5 -251.5t-57.5 -347q0 -147 66.5 -222t187.5 -75t220.5 87t155.5 246t56 357 q0 142 -65 219.5t-183 77.5z" glyph-name="O" horiz-adv-x="1495" unicode="O"/><glyph d="M1260 1036q0 -241 -169.5 -378.5t-467.5 -137.5h-156l-109 -520h-305l309 1462h408q242 0 366 -107t124 -319zM522 774h125q142 0 223.5 69t81.5 185q0 93 -48.5 136.5t-145.5 43.5h-144z" glyph-name="P" horiz-adv-x="1249" unicode="P"/><glyph d="M1432 938q0 -316 -122.5 -555.5t-334.5 -337.5l254 -393h-359l-178 328h-26q-256 0 -399.5 147.5t-143.5 409.5q0 265 99 487.5t273 341.5t402 119q255 0 395 -144t140 -403zM872 1227q-121 0 -222 -91.5t-158.5 -251.5t-57.5 -347q0 -147 66.5 -222t187.5 -75t220.5 87 t155.5 246t56 357q0 142 -65 219.5t-183 77.5z" glyph-name="Q" horiz-adv-x="1495" unicode="Q"/><glyph d="M530 813h78q131 0 204 57t73 174q0 82 -47.5 123t-149.5 41h-74zM477 561l-119 -561h-305l309 1462h359q237 0 356 -102t119 -299q0 -158 -83 -271.5t-239 -168.5l261 -621h-332l-207 561h-119z" glyph-name="R" horiz-adv-x="1247" unicode="R"/><glyph d="M946 432q0 -209 -148 -330.5t-401 -121.5q-221 0 -356 90v274q193 -108 358 -108q112 0 175 42.5t63 116.5q0 43 -13.5 75.5t-38.5 60.5t-124 102q-138 99 -194 196t-56 209q0 129 62 230.5t176.5 158t263.5 56.5q217 0 397 -99l-109 -233q-156 74 -288 74 q-83 0 -136 -45t-53 -119q0 -61 33 -106.5t148 -120.5q121 -80 181 -176.5t60 -225.5z" glyph-name="S" horiz-adv-x="1085" unicode="S"/><glyph d="M571 0h-305l254 1204h-352l55 258h1010l-55 -258h-353z" glyph-name="T" horiz-adv-x="1087" unicode="T"/><glyph d="M1434 1462l-201 -946q-57 -266 -218 -401t-419 -135q-212 0 -333.5 113.5t-121.5 307.5q0 72 15 138l196 923h305l-194 -919q-17 -74 -17 -125q0 -178 189 -178q123 0 195 76.5t104 228.5l194 917h306z" glyph-name="U" horiz-adv-x="1415" unicode="U"/><glyph d="M537 299l27 78q51 148 81 205l432 880h316l-748 -1462h-334l-127 1462h295l51 -880l2 -53v-64q0 -115 -4 -166h9z" glyph-name="V" horiz-adv-x="1208" unicode="V"/><glyph d="M1004 1018q-52 -163 -113 -299l-324 -719h-338l-45 1462h287l6 -798q0 -52 -4 -173t-10 -174h8q33 93 73.5 198t51.5 128l369 819h270l21 -873q0 -146 -9 -272h8q53 159 129 349l330 796h309l-647 -1462h-346l-22 721l-2 113q0 94 6 184h-8z" glyph-name="W" horiz-adv-x="1831" unicode="W"/><glyph d="M1124 0h-331l-172 543l-396 -543h-342l576 764l-238 698h320l153 -518l363 518h344l-545 -725z" glyph-name="X" horiz-adv-x="1241" unicode="X"/><glyph d="M627 870l374 592h342l-618 -903l-119 -559h-303l119 559l-236 903h312z" glyph-name="Y" horiz-adv-x="1155" unicode="Y"/><glyph d="M920 0h-981l38 201l777 1005h-543l53 256h936l-41 -202l-782 -1004h596z" glyph-name="Z" horiz-adv-x="1098" unicode="Z"/><glyph d="M436 -324h-473l381 1786h473l-45 -211h-215l-291 -1364h215z" glyph-name="bracketleft" horiz-adv-x="678" unicode="["/><glyph d="M481 1462l224 -1462h-267l-217 1462h260z" glyph-name="backslash" horiz-adv-x="862" unicode="\"/><glyph d="M-92 -113h213l291 1364h-215l45 211h473l-381 -1786h-471z" glyph-name="bracketright" horiz-adv-x="678" unicode="]"/><glyph d="M35 520l618 950h148l276 -950h-223l-174 633l-401 -633h-244z" glyph-name="asciicircum" horiz-adv-x="1128" unicode="^"/><glyph d="M635 -324h-821l30 140h822z" glyph-name="underscore" horiz-adv-x="819" unicode="_"/><glyph d="M934 1241h-184q-71 69 -138.5 153.5t-103.5 153.5v21h311q36 -148 115 -303v-25z" glyph-name="grave" horiz-adv-x="1135" unicode="`"/><glyph d="M406 -20q-147 0 -231.5 106.5t-84.5 298.5q0 198 72 377.5t189 278t257 98.5q97 0 167.5 -42t109.5 -122h8l57 143h232l-238 -1118h-225l14 145h-8q-134 -165 -319 -165zM524 223q69 0 133 67t103 181.5t39 259.5q0 71 -38.5 117.5t-101.5 46.5q-68 0 -129.5 -72 t-98 -190t-36.5 -234q0 -88 33.5 -132t95.5 -44z" glyph-name="a" horiz-adv-x="1217" unicode="a"/><glyph d="M610 -20q-194 0 -276 163h-8l-58 -143h-231l330 1556h301l-62 -288q-41 -182 -84 -299h8q78 98 142.5 134t140.5 36q146 0 230.5 -108t84.5 -298t-68 -367.5t-187 -281.5t-263 -104zM692 895q-74 0 -134 -65t-99 -189.5t-39 -241.5q0 -80 37 -128t102 -48q67 0 128 69 t98.5 189.5t37.5 237.5q0 176 -131 176z" glyph-name="b" horiz-adv-x="1219" unicode="b"/><glyph d="M506 -20q-201 0 -308.5 107.5t-107.5 303.5q0 212 74.5 385.5t209.5 268t308 94.5q182 0 328 -72l-92 -229q-54 23 -106 40t-118 17q-85 0 -153.5 -64t-107 -175.5t-38.5 -239.5q0 -96 45.5 -144.5t126.5 -48.5q76 0 141 23.5t134 58.5v-246q-152 -79 -336 -79z" glyph-name="c" horiz-adv-x="989" unicode="c"/><glyph d="M406 -20q-147 0 -231.5 107t-84.5 300q0 196 71.5 374.5t188.5 278t258 99.5q82 0 141.5 -37t112.5 -127h8l2 28q6 110 25 195l76 358h301l-330 -1556h-229l18 145h-8q-71 -87 -148.5 -126t-170.5 -39zM532 223q70 0 129 63.5t98.5 189.5t39.5 243q0 80 -37.5 128 t-102.5 48q-68 0 -129.5 -72t-98 -190t-36.5 -234q0 -176 137 -176z" glyph-name="d" horiz-adv-x="1217" unicode="d"/><glyph d="M696 922q-88 0 -166 -80t-102 -195h45q155 0 241.5 48.5t86.5 131.5q0 95 -105 95zM532 -20q-210 0 -326 113t-116 319q0 207 82.5 377.5t223.5 260t319 89.5q177 0 276 -81.5t99 -223.5q0 -187 -167 -288.5t-477 -101.5h-51l-2 -21v-20q0 -91 51.5 -143.5t147.5 -52.5 q87 0 158 19t172 67v-227q-172 -86 -390 -86z" glyph-name="e" horiz-adv-x="1141" unicode="e"/><glyph d="M-45 -492q-104 0 -174 25v242q61 -21 115 -21q61 0 107 40t65 130l204 965h-163l30 145l183 84l18 84q41 190 138.5 277.5t273.5 87.5q131 0 235 -49l-80 -224q-69 31 -133 31q-57 0 -92 -40t-47 -105l-12 -62h219l-49 -229h-220l-215 -1010q-77 -371 -403 -371z" glyph-name="f" horiz-adv-x="764" unicode="f"/><glyph d="M950 1118h232l-244 -1145q-52 -238 -182.5 -351.5t-364.5 -113.5q-104 0 -188.5 15.5t-175.5 56.5v262q160 -86 348 -86q104 0 169.5 47.5t93.5 148.5t58 198h-8q-72 -94 -143 -132t-154 -38q-139 0 -220 107t-81 298q0 196 70.5 373t187.5 279t254 102q90 0 154.5 -34.5 t128.5 -129.5h8zM537 223q68 0 126 64t97 185.5t39 246.5q0 80 -37 128t-100 48q-71 0 -133.5 -72.5t-98 -187.5t-35.5 -236q0 -88 38 -132t104 -44z" glyph-name="g" horiz-adv-x="1217" unicode="g"/><glyph d="M977 0h-301l137 653q16 68 16 119q0 123 -108 123q-92 0 -167 -114t-118 -318l-98 -463h-301l330 1556h301q-39 -181 -60 -278t-86 -309h8q62 77 138 123.5t176 46.5q138 0 213.5 -83.5t75.5 -238.5q0 -73 -23 -180z" glyph-name="h" horiz-adv-x="1237" unicode="h"/><glyph d="M338 0h-301l237 1118h301zM322 1380q0 87 47.5 131.5t134.5 44.5q73 0 111 -31t38 -89q0 -80 -44 -129.5t-136 -49.5q-151 0 -151 123z" glyph-name="i" horiz-adv-x="608" unicode="i"/><glyph d="M-90 -492q-104 0 -174 25v242q61 -21 114 -21q137 0 173 170l253 1194h302l-265 -1239q-77 -371 -403 -371zM324 1380q0 87 47.5 131.5t134.5 44.5q73 0 111 -31t38 -89q0 -80 -44 -129.5t-136 -49.5q-151 0 -151 123z" glyph-name="j" horiz-adv-x="608" unicode="j"/><glyph d="M920 1118h344l-498 -504l285 -614h-336l-183 420l-120 -72l-74 -348h-301l330 1556h301l-148 -694q-11 -57 -48 -175l-13 -44h8z" glyph-name="k" horiz-adv-x="1163" unicode="k"/><glyph d="M338 0h-301l330 1556h301z" glyph-name="l" horiz-adv-x="608" unicode="l"/><glyph d="M844 1139q219 0 262 -228h8q70 112 161 170t195 58q136 0 207.5 -85t71.5 -237q0 -76 -23 -180l-133 -637h-301l138 653q16 68 16 119q0 123 -98 123q-94 0 -169.5 -115t-115.5 -315l-96 -465h-301l137 653q16 68 16 119q0 123 -98 123q-92 0 -167 -114t-118 -318 l-98 -463h-301l237 1118h230l-21 -207h9q146 228 352 228z" glyph-name="m" horiz-adv-x="1853" unicode="m"/><glyph d="M977 0h-301l137 653q16 68 16 119q0 123 -108 123q-92 0 -167 -114t-118 -318l-98 -463h-301l237 1118h230l-21 -207h9q146 228 352 228q138 0 213.5 -83.5t75.5 -238.5q0 -73 -23 -180z" glyph-name="n" horiz-adv-x="1237" unicode="n"/><glyph d="M805 696q0 197 -143 197q-75 0 -134.5 -61t-97 -179t-37.5 -243q0 -185 150 -185q75 0 135 61.5t93.5 171t33.5 238.5zM1108 696q0 -211 -70.5 -374t-203.5 -252.5t-316 -89.5q-195 0 -311.5 117.5t-116.5 312.5q0 213 71.5 379.5t206.5 258t316 91.5q196 0 310 -118 t114 -325z" glyph-name="o" horiz-adv-x="1198" unicode="o"/><glyph d="M813 1139q146 0 230.5 -107.5t84.5 -300.5q0 -191 -68.5 -367.5t-187.5 -280t-262 -103.5q-83 0 -143 37t-111 126h-8q-12 -159 -43 -295l-72 -340h-301l342 1610h230l-17 -170h9q138 191 317 191zM692 895q-74 0 -134.5 -65t-99 -188.5t-38.5 -242.5q0 -80 37 -128 t102 -48q67 0 128 69t98.5 189.5t37.5 237.5q0 176 -131 176z" glyph-name="p" horiz-adv-x="1219" unicode="p"/><glyph d="M391 -20q-88 0 -156 47.5t-106.5 138.5t-38.5 219q0 198 72 377.5t189 278t257 98.5q86 0 152.5 -37.5t124.5 -126.5h8l57 143h232l-342 -1610h-301q47 218 73 337.5t84 304.5h-8q-72 -94 -143 -132t-154 -38zM535 223q70 0 128.5 64t97 188.5t38.5 243.5q0 80 -37.5 128 t-102.5 48q-68 0 -129.5 -72t-98 -190t-36.5 -234q0 -88 36.5 -132t103.5 -44z" glyph-name="q" horiz-adv-x="1217" unicode="q"/><glyph d="M842 1139q59 0 96 -11l-66 -290q-45 16 -100 16q-116 0 -203.5 -91.5t-124.5 -262.5l-106 -500h-301l237 1118h230l-21 -207h11q145 228 348 228z" glyph-name="r" horiz-adv-x="862" unicode="r"/><glyph d="M829 369q0 -188 -124.5 -288.5t-346.5 -100.5q-107 0 -186.5 15t-148.5 50v248q157 -90 319 -90q80 0 131 32.5t51 88.5q0 43 -37 77t-131 86q-121 68 -169 135.5t-48 159.5q0 170 110.5 263.5t315.5 93.5q201 0 363 -95l-99 -215q-140 84 -258 84q-57 0 -92 -25.5 t-35 -68.5q0 -39 32 -68.5t120 -74.5q123 -63 178 -137t55 -170z" glyph-name="s" horiz-adv-x="969" unicode="s"/><glyph d="M514 223q65 0 162 35v-225q-111 -53 -266 -53q-150 0 -220.5 63t-70.5 195q0 50 12 112l115 539h-152l29 147l196 84l132 236h194l-49 -238h283l-50 -229h-282l-115 -539q-6 -30 -6 -53q0 -74 88 -74z" glyph-name="t" horiz-adv-x="840" unicode="t"/><glyph d="M262 1118h301l-137 -653q-16 -68 -16 -119q0 -123 108 -123q92 0 167 114t118 318l98 463h301l-237 -1118h-230l21 207h-11q-145 -227 -350 -227q-138 0 -211 82.5t-73 238.5q0 93 24 213z" glyph-name="u" horiz-adv-x="1237" unicode="u"/><glyph d="M459 301q64 177 88 223l297 594h323l-604 -1118h-323l-138 1118h295l45 -586q7 -133 7 -231h10z" glyph-name="v" horiz-adv-x="1049" unicode="v"/><glyph d="M850 860q-90 -255 -117 -319l-233 -541h-324l-51 1118h281l4 -495q0 -209 -11 -338h9q12 44 46 140t60 157l231 536h328v-536q0 -193 -10 -297h10q81 250 119 338l219 495h307l-530 -1118h-330l-6 520q0 155 10 340h-12z" glyph-name="w" horiz-adv-x="1614" unicode="w"/><glyph d="M379 573l-225 545h321l115 -334l244 334h354l-467 -561l244 -557h-326l-125 342l-264 -342h-350z" glyph-name="x" horiz-adv-x="1087" unicode="x"/><glyph d="M102 1118h295l56 -518q12 -105 12 -293h8q20 51 44 119.5t65 153.5l260 538h327l-680 -1278q-177 -332 -483 -332q-90 0 -147 19v240q68 -13 116 -13q84 0 147.5 48t117.5 149l26 49z" glyph-name="y" horiz-adv-x="1063" unicode="y"/><glyph d="M748 0h-795l35 180l575 705h-397l51 233h750l-43 -200l-566 -685h439z" glyph-name="z" horiz-adv-x="932" unicode="z"/><glyph d="M201 319q0 140 -209 140l45 229q122 0 192.5 41.5t92.5 138.5l61 285q38 170 131 239.5t270 69.5h84l-49 -225q-90 -2 -130.5 -34.5t-55.5 -106.5l-66 -297q-45 -207 -276 -236v-8q85 -26 126.5 -82.5t41.5 -134.5q0 -44 -15 -113l-36 -178q-7 -28 -7 -51q0 -54 33.5 -74 t91.5 -20v-226h-53q-167 0 -253.5 63.5t-86.5 184.5q0 57 14 125l39 184q15 69 15 86z" glyph-name="braceleft" horiz-adv-x="727" unicode="{"/><glyph d="M455 1550h219v-2015h-219v2015z" glyph-name="bar" horiz-adv-x="1128" unicode="|"/><glyph d="M256 1462q340 0 340 -248q0 -56 -14 -124l-39 -185q-15 -69 -15 -86q0 -139 209 -139l-45 -229q-122 0 -192.5 -42t-91.5 -139l-62 -284q-37 -170 -130.5 -240t-270.5 -70h-45v226q93 3 137 35.5t59 105.5l66 297q25 111 95 166t181 69v9q-168 51 -168 217q0 43 15 112 l37 179q6 30 6 51q0 54 -36.5 74t-109.5 20l41 225h33z" glyph-name="braceright" horiz-adv-x="727" unicode="}"/><glyph d="M342 672q-54 0 -116.5 -33t-116.5 -88v231q101 109 256 109q64 0 117 -14t139 -50q64 -27 111 -41t95 -14q51 0 112 30.5t122 90.5v-231q-103 -109 -256 -109q-59 0 -109 11.5t-147 51.5q-89 38 -127 47t-80 9z" glyph-name="asciitilde" horiz-adv-x="1128" unicode="~"/><glyph glyph-name="uni00A0" horiz-adv-x="532"/><glyph d="M182 606h242l-158 -977h-340zM549 977q0 -92 -55.5 -145.5t-149.5 -53.5q-68 0 -108.5 38t-40.5 108q0 85 54 139.5t144 54.5q73 0 114.5 -37t41.5 -104z" glyph-name="exclamdown" horiz-adv-x="586" unicode="¡"/><glyph d="M575 -20h-188l49 210q-134 36 -203 136t-69 258q0 193 62.5 355t178 262.5t267.5 123.5l33 158h188l-35 -158q118 -14 225 -65l-92 -230q-53 23 -105 40t-118 17q-83 0 -149.5 -59.5t-108 -173t-41.5 -246.5q0 -96 45 -144t127 -48q75 0 140 23.5t134 58.5v-246 q-136 -71 -299 -80z" glyph-name="cent" horiz-adv-x="1128" unicode="¢"/><glyph d="M872 1485q195 0 369 -86l-113 -232q-141 68 -237 68q-75 0 -123 -39.5t-68 -132.5l-47 -229h299l-45 -220h-299l-18 -84q-42 -195 -209 -270h655l-55 -260h-993l49 246q196 48 244 264l22 104h-192l45 220h192l49 247q41 197 162 300.5t313 103.5z" glyph-name="sterling" horiz-adv-x="1128" unicode="£"/><glyph d="M190 723q0 102 54 197l-129 127l147 147l127 -127q91 53 197 53q105 0 196 -55l127 129l150 -143l-129 -129q53 -89 53 -199q0 -107 -53 -199l125 -125l-146 -145l-127 125q-95 -51 -196 -51q-115 0 -199 51l-125 -123l-145 145l127 125q-54 93 -54 197zM397 723 q0 -77 54.5 -132.5t134.5 -55.5q81 0 136.5 55t55.5 133q0 80 -56.5 135t-135.5 55q-78 0 -133.5 -56t-55.5 -134z" glyph-name="currency" horiz-adv-x="1128" unicode="¤"/><glyph d="M608 872l371 590h311l-506 -747h203l-39 -178h-252l-28 -138h252l-37 -178h-252l-47 -221h-291l47 221h-252l37 178h252l29 138h-252l39 178h196l-192 747h297z" glyph-name="yen" horiz-adv-x="1128" unicode="¥"/><glyph d="M455 1550h219v-815h-219v815zM455 350h219v-815h-219v815z" glyph-name="brokenbar" horiz-adv-x="1128" unicode="¦"/><glyph d="M150 756q0 85 46 158.5t156 142.5q-42 34 -70 84.5t-28 107.5q0 147 116.5 232.5t313.5 85.5q172 0 344 -88l-82 -193q-147 84 -282 84q-63 0 -103.5 -25t-40.5 -81q0 -42 40.5 -75t127.5 -71q122 -54 182 -127t60 -172q0 -184 -193 -299q38 -35 64 -85.5t26 -108.5 q0 -161 -126 -253.5t-345 -92.5q-204 0 -336 75v224q172 -105 345 -105q99 0 144.5 35t45.5 92q0 39 -33 72.5t-127 79.5q-117 57 -181 130t-64 173zM506 958q-51 -24 -82 -68.5t-31 -96.5q0 -51 42.5 -93.5t144.5 -87.5q49 31 75.5 77t26.5 93q0 106 -176 176z" glyph-name="section" horiz-adv-x="995" unicode="§"/><glyph d="M416 1382q0 78 39.5 118t111.5 40q125 0 125 -108q0 -73 -36 -116.5t-113 -43.5q-127 0 -127 110zM799 1382q0 78 39.5 118t111.5 40q125 0 125 -108q0 -73 -36 -116.5t-113 -43.5q-127 0 -127 110z" glyph-name="dieresis" horiz-adv-x="1135" unicode="¨"/><glyph d="M928 1055q-122 0 -188 -84.5t-66 -239.5q0 -325 254 -325q93 0 213 45v-129q-65 -28 -114 -39t-107 -11q-190 0 -297 120.5t-107 338.5q0 209 110 333t304 124q126 0 252 -62l-62 -125q-108 54 -192 54zM137 731q0 200 100 375t275 276t377 101q197 0 370 -97t277 -272 t104 -383q0 -204 -100.5 -376.5t-273 -273.5t-377.5 -101q-207 0 -382 103.5t-272.5 276.5t-97.5 371zM246 731q0 -172 86 -321t235.5 -235.5t321.5 -86.5q173 0 321.5 85.5t236 234t87.5 323.5t-87.5 323t-236 234t-321.5 86q-172 0 -321 -86t-235.5 -235.5t-86.5 -321.5z" glyph-name="copyright" horiz-adv-x="1704" unicode="©"/><glyph d="M369 748q-103 0 -160 70t-57 198q0 117 46 228t123 171t177 60q65 0 107 -26.5t71 -76.5h8l39 90h154l-158 -702h-148l9 92h-9q-80 -104 -202 -104zM442 899q45 0 84 40.5t65.5 120.5t26.5 154q0 107 -88 107q-73 0 -123.5 -96t-50.5 -215q0 -111 86 -111z" glyph-name="ordfeminine" horiz-adv-x="772" unicode="ª"/><glyph d="M72 569l401 463l191 -155l-279 -334l135 -350l-246 -103l-202 461v18zM559 569l402 463l190 -155l-279 -334l136 -350l-246 -103l-203 461v18z" glyph-name="guillemotleft" horiz-adv-x="1151" unicode="«"/><glyph d="M1061 248h-219v364h-733v219h952v-583z" glyph-name="logicalnot" horiz-adv-x="1128" unicode="¬"/><glyph d="M41 424l53 250h524l-53 -250h-524z" glyph-name="uni00AD" horiz-adv-x="659" unicode="­"/><glyph d="M137 731q0 200 100 375t275 276t377 101q197 0 370 -97t277 -272t104 -383q0 -204 -100.5 -376.5t-273 -273.5t-377.5 -101q-207 0 -382 103.5t-272.5 276.5t-97.5 371zM246 731q0 -172 86 -321t235.5 -235.5t321.5 -86.5q173 0 321.5 85.5t236 234t87.5 323.5t-87.5 323 t-236 234t-321.5 86q-172 0 -321 -86t-235.5 -235.5t-86.5 -321.5zM1198 913q0 -77 -47 -140.5t-133 -98.5l225 -383h-160l-200 348h-109v-348h-135v880h235q165 0 244.5 -64t79.5 -194zM774 762h88q193 0 193 147q0 75 -48 105t-145 30h-88v-282z" glyph-name="registered" horiz-adv-x="1704" unicode="®"/><glyph d="M1214 1556h-1036l45 201h1037z" glyph-name="macron" horiz-adv-x="1024" unicode="¯"/><glyph d="M164 1137q0 93 46.5 173.5t127.5 126.5t172 46q93 0 173.5 -47t126.5 -127t46 -172q0 -93 -46 -173t-126 -125.5t-174 -45.5q-93 0 -173 45t-126.5 125t-46.5 174zM354 1137q0 -63 45.5 -108.5t110.5 -45.5q66 0 111 46t45 108q0 63 -45.5 110t-110.5 47t-110.5 -47.5 t-45.5 -109.5z" glyph-name="degree" horiz-adv-x="877" unicode="°"/><glyph d="M475 674h-366v219h366v369h219v-369h367v-219h-367v-365h-219v365zM109 0v219h952v-219h-952z" glyph-name="plusminus" horiz-adv-x="1128" unicode="±"/><glyph d="M707 586h-648l35 166l273 219q111 91 141 122t44.5 59t14.5 56q0 42 -25.5 62t-60.5 20q-86 0 -188 -82l-100 158q74 57 156 87t192 30q123 0 196.5 -63t73.5 -160q0 -70 -22 -123t-70 -103.5t-189 -152.5l-129 -95h347z" glyph-name="uni00B2" horiz-adv-x="776" unicode="²"/><glyph d="M813 1270q0 -86 -51 -143.5t-166 -88.5v-8q154 -33 154 -174q0 -131 -107 -209t-285 -78q-75 0 -145.5 15.5t-120.5 40.5v192q125 -72 254 -72q76 0 125 30.5t49 88.5q0 37 -26 62.5t-88 25.5h-127l34 160h90q84 0 132.5 28t48.5 85q0 40 -26 60t-71 20q-86 0 -188 -66 l-82 150q142 92 313 92q130 0 206.5 -55.5t76.5 -155.5z" glyph-name="uni00B3" horiz-adv-x="776" unicode="³"/><glyph d="M483 1266q79 88 222 303h335v-17q-46 -56 -154 -152.5t-194 -158.5h-209v25z" glyph-name="acute" horiz-adv-x="1135" unicode="´"/><glyph d="M424 348q0 -60 31.5 -92.5t79.5 -32.5q90 0 162.5 106.5t117.5 319.5l98 469h301l-237 -1118h-225l18 176h-10q-117 -196 -266 -196q-51 0 -89.5 19.5t-58.5 47.5h-10q-13 -105 -20 -148t-80 -391h-304l342 1610h301l-135 -645q-16 -70 -16 -125z" glyph-name="uni00B5" horiz-adv-x="1249" unicode="µ"/><glyph d="M1202 -260h-162v1616h-166v-1616h-161v819q-62 -18 -146 -18q-216 0 -318 125t-102 376q0 256 107.5 385t343.5 129h604v-1816z" glyph-name="paragraph" horiz-adv-x="1341" unicode="¶"/><glyph d="M131 695q0 90 53.5 144t150.5 54q68 0 109 -38t41 -107q0 -87 -55 -141t-144 -54q-73 0 -114 37.5t-41 104.5z" glyph-name="periodcentered" horiz-adv-x="584" unicode="·"/><glyph d="M262 -250q0 -116 -83 -179t-234 -63q-86 0 -152 23v168q63 -23 125 -23q102 0 102 82q0 34 -31 56.5t-110 31.5l96 154h185l-39 -72q141 -49 141 -178z" glyph-name="cedilla" horiz-adv-x="420" unicode="¸"/><glyph d="M528 1462h207l-186 -876h-246l84 397q24 109 55 207q-16 -15 -80 -60l-131 -81l-102 165z" glyph-name="uni00B9" horiz-adv-x="776" unicode="¹"/><glyph d="M809 1190q0 -128 -48.5 -232.5t-132.5 -157t-196 -52.5q-134 0 -202 75t-68 211q0 197 104 319t277 122q129 0 197.5 -73.5t68.5 -211.5zM522 1311q-64 0 -107.5 -89.5t-43.5 -199.5q0 -111 80 -111q63 0 105 85.5t42 207.5q0 107 -76 107zM668 760zM785 1462z" glyph-name="ordmasculine" horiz-adv-x="754" unicode="º"/><glyph d="M1079 553l-401 -463l-191 155l279 334l-135 350l246 103l202 -461v-18zM592 553l-402 -463l-190 155l279 334l-136 350l246 103l203 -461v-18z" glyph-name="guillemotright" horiz-adv-x="1151" unicode="»"/><glyph d="M1500 1462l-1084 -1462h-239l1087 1462h236zM496 1462h207l-186 -876h-246l84 397q24 109 55 207q-16 -15 -80 -60l-131 -81l-102 165zM1573 152h-119l-32 -151h-238l33 151h-373l31 174l475 557h260l-121 -563h119zM1252 320l58 231l22 74q-13 -20 -43 -58t-211 -247 h174z" glyph-name="onequarter" horiz-adv-x="1804" unicode="¼"/><glyph d="M1500 1462l-1084 -1462h-239l1087 1462h236zM496 1462h207l-186 -876h-246l84 397q24 109 55 207q-16 -15 -80 -60l-131 -81l-102 165zM1588 1h-648l35 166l273 219q111 91 141 122t44.5 59t14.5 56q0 42 -25.5 62t-60.5 20q-86 0 -188 -82l-100 158q74 57 156 87t192 30 q123 0 196.5 -63t73.5 -160q0 -70 -22 -123t-70 -103.5t-189 -152.5l-129 -95h347z" glyph-name="onehalf" horiz-adv-x="1804" unicode="½"/><glyph d="M854 1270q0 -86 -51 -143.5t-166 -88.5v-8q154 -33 154 -174q0 -131 -107 -209t-285 -78q-75 0 -145.5 15.5t-120.5 40.5v192q125 -72 254 -72q76 0 125 30.5t49 88.5q0 37 -26 62.5t-88 25.5h-127l34 160h90q84 0 132.5 28t48.5 85q0 40 -26 60t-71 20q-86 0 -188 -66 l-82 150q142 92 313 92q130 0 206.5 -55.5t76.5 -155.5zM1631 1462l-1084 -1462h-239l1087 1462h236zM1634 152h-119l-32 -151h-238l33 151h-373l31 174l475 557h260l-121 -563h119zM1313 320l58 231l22 74q-13 -20 -43 -58t-211 -247h174z" glyph-name="threequarters" horiz-adv-x="1804" unicode="¾"/><glyph d="M678 606q-26 -145 -80 -234.5t-180 -174.5q-122 -83 -156.5 -126t-34.5 -98q0 -118 133 -118q50 0 106.5 16t201.5 84l92 -221q-221 -125 -445 -125q-177 0 -280 87.5t-103 244.5q0 82 28.5 148.5t83.5 124t189 146.5q94 63 130 111.5t57 134.5h258zM772 977 q0 -92 -55.5 -145.5t-149.5 -53.5q-68 0 -108.5 38t-40.5 108q0 86 54.5 140t143.5 54q73 0 114.5 -37t41.5 -104z" glyph-name="questiondown" horiz-adv-x="940" unicode="¿"/><glyph d="M842 348h-473l-172 -348h-320l766 1468h373l147 -1468h-297zM827 608l-26 350l-5 133l-3 156h-5q-54 -147 -106 -254l-188 -385h333zM965 1579h-184q-71 69 -138.5 153.5t-103.5 153.5v21h311q36 -148 115 -303v-25z" glyph-name="Agrave" horiz-adv-x="1286" unicode="À"/><glyph d="M842 348h-473l-172 -348h-320l766 1468h373l147 -1468h-297zM827 608l-26 350l-5 133l-3 156h-5q-54 -147 -106 -254l-188 -385h333zM735 1604q79 88 222 303h335v-17q-46 -56 -154 -152.5t-194 -158.5h-209v25z" glyph-name="Aacute" horiz-adv-x="1286" unicode="Á"/><glyph d="M842 348h-473l-172 -348h-320l766 1468h373l147 -1468h-297zM827 608l-26 350l-5 133l-3 156h-5q-54 -147 -106 -254l-188 -385h333zM1235 1579h-198q-63 53 -162 168q-105 -88 -232 -168h-217v25q63 57 153 147t142 156h338q22 -54 74 -142.5t102 -160.5v-25z" glyph-name="Acircumflex" horiz-adv-x="1286" unicode="Â"/><glyph d="M842 348h-473l-172 -348h-320l766 1468h373l147 -1468h-297zM827 608l-26 350l-5 133l-3 156h-5q-54 -147 -106 -254l-188 -385h333zM999 1579q-49 0 -86.5 16.5t-69.5 36t-61.5 36t-62.5 16.5q-31 0 -55.5 -28t-38.5 -79h-177q59 309 281 309q49 0 87.5 -16.5t71.5 -36 t62 -35.5t60 -16q34 0 58 25.5t46 80.5h172q-66 -309 -287 -309z" glyph-name="Atilde" horiz-adv-x="1286" unicode="Ã"/><glyph d="M842 348h-473l-172 -348h-320l766 1468h373l147 -1468h-297zM827 608l-26 350l-5 133l-3 156h-5q-54 -147 -106 -254l-188 -385h333zM535 1720q0 78 39.5 118t111.5 40q125 0 125 -108q0 -73 -36 -116.5t-113 -43.5q-127 0 -127 110zM918 1720q0 78 39.5 118t111.5 40 q125 0 125 -108q0 -73 -36 -116.5t-113 -43.5q-127 0 -127 110z" glyph-name="Adieresis" horiz-adv-x="1286" unicode="Ä"/><glyph d="M1087 1571q0 -103 -65 -168l141 -1403h-297l-24 348h-473l-172 -348h-320l746 1432q-37 53 -37 137q0 108 67.5 172.5t180.5 64.5q109 0 181 -64.5t72 -170.5zM827 608l-26 350l-5 135l-3 154h-5q-54 -147 -106 -254l-188 -385h333zM930 1569q0 45 -27 70.5t-69 25.5 t-69.5 -25.5t-27.5 -70.5t24.5 -70.5t72.5 -25.5q42 0 69 25.5t27 70.5z" glyph-name="Aring" horiz-adv-x="1286" unicode="Å"/><glyph d="M1593 0h-817l74 348h-426l-219 -348h-328l922 1462h1104l-54 -254h-512l-67 -321h477l-55 -254h-478l-79 -377h512zM905 608l127 600h-80l-364 -600h317z" glyph-name="AE" horiz-adv-x="1833" unicode="Æ"/><glyph d="M905 1227q-132 0 -237.5 -81t-169.5 -239t-64 -338q0 -167 68.5 -248t218.5 -81q146 0 338 77v-260q-199 -77 -400 -77q-254 0 -395 149.5t-141 423.5q0 262 104 482.5t278 335t400 114.5q125 0 222 -22.5t208 -82.5l-118 -250q-106 59 -175 78t-137 19zM825 -250 q0 -116 -83 -179t-234 -63q-86 0 -152 23v168q63 -23 125 -23q102 0 102 82q0 34 -31 56.5t-110 31.5l96 154h185l-39 -72q141 -49 141 -178z" glyph-name="Ccedilla" horiz-adv-x="1253" unicode="Ç"/><glyph d="M870 0h-817l309 1462h818l-54 -254h-512l-67 -321h477l-55 -254h-477l-80 -377h512zM906 1579h-184q-71 69 -138.5 153.5t-103.5 153.5v21h311q36 -148 115 -303v-25z" glyph-name="Egrave" horiz-adv-x="1110" unicode="È"/><glyph d="M870 0h-817l309 1462h818l-54 -254h-512l-67 -321h477l-55 -254h-477l-80 -377h512zM608 1604q79 88 222 303h335v-17q-46 -56 -154 -152.5t-194 -158.5h-209v25z" glyph-name="Eacute" horiz-adv-x="1110" unicode="É"/><glyph d="M870 0h-817l309 1462h818l-54 -254h-512l-67 -321h477l-55 -254h-477l-80 -377h512zM1177 1579h-198q-63 53 -162 168q-105 -88 -232 -168h-217v25q63 57 153 147t142 156h338q22 -54 74 -142.5t102 -160.5v-25z" glyph-name="Ecircumflex" horiz-adv-x="1110" unicode="Ê"/><glyph d="M870 0h-817l309 1462h818l-54 -254h-512l-67 -321h477l-55 -254h-477l-80 -377h512zM457 1720q0 78 39.5 118t111.5 40q125 0 125 -108q0 -73 -36 -116.5t-113 -43.5q-127 0 -127 110zM840 1720q0 78 39.5 118t111.5 40q125 0 125 -108q0 -73 -36 -116.5t-113 -43.5 q-127 0 -127 110z" glyph-name="Edieresis" horiz-adv-x="1110" unicode="Ë"/><glyph d="M588 0h-647l36 176l187 82l201 946l-152 82l37 176h647l-37 -176l-190 -82l-201 -946l156 -82zM708 1579h-184q-71 69 -138.5 153.5t-103.5 153.5v21h311q36 -148 115 -303v-25z" glyph-name="Igrave" horiz-adv-x="784" unicode="Ì"/><glyph d="M588 0h-647l36 176l187 82l201 946l-152 82l37 176h647l-37 -176l-190 -82l-201 -946l156 -82zM455 1604q79 88 222 303h335v-17q-46 -56 -154 -152.5t-194 -158.5h-209v25z" glyph-name="Iacute" horiz-adv-x="784" unicode="Í"/><glyph d="M588 0h-647l36 176l187 82l201 946l-152 82l37 176h647l-37 -176l-190 -82l-201 -946l156 -82zM978 1579h-198q-63 53 -162 168q-105 -88 -232 -168h-217v25q63 57 153 147t142 156h338q22 -54 74 -142.5t102 -160.5v-25z" glyph-name="Icircumflex" horiz-adv-x="784" unicode="Î"/><glyph d="M588 0h-647l36 176l187 82l201 946l-152 82l37 176h647l-37 -176l-190 -82l-201 -946l156 -82zM282 1720q0 78 39.5 118t111.5 40q125 0 125 -108q0 -73 -36 -116.5t-113 -43.5q-127 0 -127 110zM665 1720q0 78 39.5 118t111.5 40q125 0 125 -108q0 -73 -36 -116.5 t-113 -43.5q-127 0 -127 110z" glyph-name="Idieresis" horiz-adv-x="784" unicode="Ï"/><glyph d="M1323 909q0 -280 -98 -486.5t-283.5 -314.5t-437.5 -108h-451l125 596h-141l55 254h139l131 612h396q270 0 417.5 -143t147.5 -410zM518 256q148 0 258 76t172 223.5t62 337.5q0 154 -72.5 234.5t-208.5 80.5h-115l-75 -358h237l-55 -254h-238l-71 -340h106z" glyph-name="Eth" horiz-adv-x="1386" unicode="Ð"/><glyph d="M1247 0h-342l-356 1106h-10l-8 -59q-27 -214 -58 -359l-145 -688h-275l309 1462h357l340 -1077h8q35 223 68 385l147 692h274zM1114 1579q-49 0 -86.5 16.5t-69.5 36t-61.5 36t-62.5 16.5q-31 0 -55.5 -28t-38.5 -79h-177q59 309 281 309q49 0 87.5 -16.5t71.5 -36 t62 -35.5t60 -16q34 0 58 25.5t46 80.5h172q-66 -309 -287 -309z" glyph-name="Ntilde" horiz-adv-x="1546" unicode="Ñ"/><glyph d="M1432 938q0 -283 -99 -506.5t-271 -337.5t-396 -114q-256 0 -399.5 147.5t-143.5 409.5q0 265 99 487.5t273 341.5t402 119q255 0 395 -144t140 -403zM872 1227q-121 0 -222 -91.5t-158.5 -251.5t-57.5 -347q0 -147 66.5 -222t187.5 -75t220.5 87t155.5 246t56 357 q0 142 -65 219.5t-183 77.5zM1053 1579h-184q-71 69 -138.5 153.5t-103.5 153.5v21h311q36 -148 115 -303v-25z" glyph-name="Ograve" horiz-adv-x="1495" unicode="Ò"/><glyph d="M1432 938q0 -283 -99 -506.5t-271 -337.5t-396 -114q-256 0 -399.5 147.5t-143.5 409.5q0 265 99 487.5t273 341.5t402 119q255 0 395 -144t140 -403zM872 1227q-121 0 -222 -91.5t-158.5 -251.5t-57.5 -347q0 -147 66.5 -222t187.5 -75t220.5 87t155.5 246t56 357 q0 142 -65 219.5t-183 77.5zM753 1604q79 88 222 303h335v-17q-46 -56 -154 -152.5t-194 -158.5h-209v25z" glyph-name="Oacute" horiz-adv-x="1495" unicode="Ó"/><glyph d="M1432 938q0 -283 -99 -506.5t-271 -337.5t-396 -114q-256 0 -399.5 147.5t-143.5 409.5q0 265 99 487.5t273 341.5t402 119q255 0 395 -144t140 -403zM872 1227q-121 0 -222 -91.5t-158.5 -251.5t-57.5 -347q0 -147 66.5 -222t187.5 -75t220.5 87t155.5 246t56 357 q0 142 -65 219.5t-183 77.5zM1308 1579h-198q-63 53 -162 168q-105 -88 -232 -168h-217v25q63 57 153 147t142 156h338q22 -54 74 -142.5t102 -160.5v-25z" glyph-name="Ocircumflex" horiz-adv-x="1495" unicode="Ô"/><glyph d="M1432 938q0 -283 -99 -506.5t-271 -337.5t-396 -114q-256 0 -399.5 147.5t-143.5 409.5q0 265 99 487.5t273 341.5t402 119q255 0 395 -144t140 -403zM872 1227q-121 0 -222 -91.5t-158.5 -251.5t-57.5 -347q0 -147 66.5 -222t187.5 -75t220.5 87t155.5 246t56 357 q0 142 -65 219.5t-183 77.5zM1071 1579q-49 0 -86.5 16.5t-69.5 36t-61.5 36t-62.5 16.5q-31 0 -55.5 -28t-38.5 -79h-177q59 309 281 309q49 0 87.5 -16.5t71.5 -36t62 -35.5t60 -16q34 0 58 25.5t46 80.5h172q-66 -309 -287 -309z" glyph-name="Otilde" horiz-adv-x="1495" unicode="Õ"/><glyph d="M1432 938q0 -283 -99 -506.5t-271 -337.5t-396 -114q-256 0 -399.5 147.5t-143.5 409.5q0 265 99 487.5t273 341.5t402 119q255 0 395 -144t140 -403zM872 1227q-121 0 -222 -91.5t-158.5 -251.5t-57.5 -347q0 -147 66.5 -222t187.5 -75t220.5 87t155.5 246t56 357 q0 142 -65 219.5t-183 77.5zM604 1720q0 78 39.5 118t111.5 40q125 0 125 -108q0 -73 -36 -116.5t-113 -43.5q-127 0 -127 110zM987 1720q0 78 39.5 118t111.5 40q125 0 125 -108q0 -73 -36 -116.5t-113 -43.5q-127 0 -127 110z" glyph-name="Odieresis" horiz-adv-x="1495" unicode="Ö"/><glyph d="M428 723l-299 301l152 154l301 -299l305 299l153 -150l-305 -305l301 -303l-149 -152l-305 301l-301 -299l-150 152z" glyph-name="multiply" horiz-adv-x="1128" unicode="×"/><glyph d="M1432 938q0 -283 -99 -506.5t-271 -337.5t-396 -114q-180 0 -304 71l-108 -137l-154 115l121 151q-98 138 -98 357q0 265 99 487.5t273 341.5t402 119q182 0 305 -76l105 131l151 -117l-117 -145q91 -134 91 -340zM870 1233q-126 0 -229 -91.5t-160 -252.5t-57 -352 q0 -32 8 -101l596 754q-69 43 -158 43zM1133 930l-5 80l-589 -740q59 -37 153 -37q124 0 226 89t158.5 247.5t56.5 360.5z" glyph-name="Oslash" horiz-adv-x="1495" unicode="Ø"/><glyph d="M1434 1462l-201 -946q-57 -266 -218 -401t-419 -135q-212 0 -333.5 113.5t-121.5 307.5q0 72 15 138l196 923h305l-194 -919q-17 -74 -17 -125q0 -178 189 -178q123 0 195 76.5t104 228.5l194 917h306zM1002 1579h-184q-71 69 -138.5 153.5t-103.5 153.5v21h311 q36 -148 115 -303v-25z" glyph-name="Ugrave" horiz-adv-x="1415" unicode="Ù"/><glyph d="M1434 1462l-201 -946q-57 -266 -218 -401t-419 -135q-212 0 -333.5 113.5t-121.5 307.5q0 72 15 138l196 923h305l-194 -919q-17 -74 -17 -125q0 -178 189 -178q123 0 195 76.5t104 228.5l194 917h306zM757 1604q79 88 222 303h335v-17q-46 -56 -154 -152.5t-194 -158.5 h-209v25z" glyph-name="Uacute" horiz-adv-x="1415" unicode="Ú"/><glyph d="M1434 1462l-201 -946q-57 -266 -218 -401t-419 -135q-212 0 -333.5 113.5t-121.5 307.5q0 72 15 138l196 923h305l-194 -919q-17 -74 -17 -125q0 -178 189 -178q123 0 195 76.5t104 228.5l194 917h306zM1284 1579h-198q-63 53 -162 168q-105 -88 -232 -168h-217v25 q63 57 153 147t142 156h338q22 -54 74 -142.5t102 -160.5v-25z" glyph-name="Ucircumflex" horiz-adv-x="1415" unicode="Û"/><glyph d="M1434 1462l-201 -946q-57 -266 -218 -401t-419 -135q-212 0 -333.5 113.5t-121.5 307.5q0 72 15 138l196 923h305l-194 -919q-17 -74 -17 -125q0 -178 189 -178q123 0 195 76.5t104 228.5l194 917h306zM584 1720q0 78 39.5 118t111.5 40q125 0 125 -108q0 -73 -36 -116.5 t-113 -43.5q-127 0 -127 110zM967 1720q0 78 39.5 118t111.5 40q125 0 125 -108q0 -73 -36 -116.5t-113 -43.5q-127 0 -127 110z" glyph-name="Udieresis" horiz-adv-x="1415" unicode="Ü"/><glyph d="M627 870l374 592h342l-618 -903l-119 -559h-303l119 559l-236 903h312zM606 1604q79 88 222 303h335v-17q-46 -56 -154 -152.5t-194 -158.5h-209v25z" glyph-name="Yacute" horiz-adv-x="1155" unicode="Ý"/><glyph d="M1192 807q0 -243 -170.5 -378.5t-466.5 -135.5h-135l-62 -293h-305l309 1462h306l-50 -229h84q242 0 366 -106.5t124 -319.5zM475 547h105q140 0 222.5 67.5t82.5 184.5q0 180 -195 180h-123z" glyph-name="Thorn" horiz-adv-x="1241" unicode="Þ"/><glyph d="M846 1567q208 0 331 -90t123 -240q0 -114 -49 -192t-178 -152q-73 -42 -96 -68.5t-23 -54.5q0 -23 22 -49.5t79 -69.5q107 -83 144.5 -150.5t37.5 -150.5q0 -170 -123.5 -270t-337.5 -100q-187 0 -297 61v240q128 -78 258 -78q101 0 148 33t47 86q0 40 -26.5 75 t-108.5 97q-94 72 -129 130t-35 126q0 84 45 145t162 127q66 37 104.5 76t38.5 96q0 62 -39.5 98.5t-124.5 36.5q-96 0 -156 -51.5t-85 -171.5l-254 -1219q-43 -198 -147 -288.5t-277 -90.5q-90 0 -160 25v242q61 -21 115 -21q133 0 170 178l254 1207q47 224 182 326 t385 102z" glyph-name="germandbls" horiz-adv-x="1350" unicode="ß"/><glyph d="M406 -20q-147 0 -231.5 106.5t-84.5 298.5q0 198 72 377.5t189 278t257 98.5q97 0 167.5 -42t109.5 -122h8l57 143h232l-238 -1118h-225l14 145h-8q-134 -165 -319 -165zM524 223q69 0 133 67t103 181.5t39 259.5q0 71 -38.5 117.5t-101.5 46.5q-68 0 -129.5 -72 t-98 -190t-36.5 -234q0 -88 33.5 -132t95.5 -44zM869 1241h-184q-71 69 -138.5 153.5t-103.5 153.5v21h311q36 -148 115 -303v-25z" glyph-name="agrave" horiz-adv-x="1217" unicode="à"/><glyph d="M406 -20q-147 0 -231.5 106.5t-84.5 298.5q0 198 72 377.5t189 278t257 98.5q97 0 167.5 -42t109.5 -122h8l57 143h232l-238 -1118h-225l14 145h-8q-134 -165 -319 -165zM524 223q69 0 133 67t103 181.5t39 259.5q0 71 -38.5 117.5t-101.5 46.5q-68 0 -129.5 -72 t-98 -190t-36.5 -234q0 -88 33.5 -132t95.5 -44zM598 1266q79 88 222 303h335v-17q-46 -56 -154 -152.5t-194 -158.5h-209v25z" glyph-name="aacute" horiz-adv-x="1217" unicode="á"/><glyph d="M406 -20q-147 0 -231.5 106.5t-84.5 298.5q0 198 72 377.5t189 278t257 98.5q97 0 167.5 -42t109.5 -122h8l57 143h232l-238 -1118h-225l14 145h-8q-134 -165 -319 -165zM524 223q69 0 133 67t103 181.5t39 259.5q0 71 -38.5 117.5t-101.5 46.5q-68 0 -129.5 -72 t-98 -190t-36.5 -234q0 -88 33.5 -132t95.5 -44zM1120 1241h-198q-63 53 -162 168q-105 -88 -232 -168h-217v25q63 57 153 147t142 156h338q22 -54 74 -142.5t102 -160.5v-25z" glyph-name="acircumflex" horiz-adv-x="1217" unicode="â"/><glyph d="M406 -20q-147 0 -231.5 106.5t-84.5 298.5q0 198 72 377.5t189 278t257 98.5q97 0 167.5 -42t109.5 -122h8l57 143h232l-238 -1118h-225l14 145h-8q-134 -165 -319 -165zM524 223q69 0 133 67t103 181.5t39 259.5q0 71 -38.5 117.5t-101.5 46.5q-68 0 -129.5 -72 t-98 -190t-36.5 -234q0 -88 33.5 -132t95.5 -44zM884 1241q-49 0 -86.5 16.5t-69.5 36t-61.5 36t-62.5 16.5q-31 0 -55.5 -28t-38.5 -79h-177q59 309 281 309q49 0 87.5 -16.5t71.5 -36t62 -35.5t60 -16q34 0 58 25.5t46 80.5h172q-66 -309 -287 -309z" glyph-name="atilde" horiz-adv-x="1217" unicode="ã"/><glyph d="M406 -20q-147 0 -231.5 106.5t-84.5 298.5q0 198 72 377.5t189 278t257 98.5q97 0 167.5 -42t109.5 -122h8l57 143h232l-238 -1118h-225l14 145h-8q-134 -165 -319 -165zM524 223q69 0 133 67t103 181.5t39 259.5q0 71 -38.5 117.5t-101.5 46.5q-68 0 -129.5 -72 t-98 -190t-36.5 -234q0 -88 33.5 -132t95.5 -44zM416 1382q0 78 39.5 118t111.5 40q125 0 125 -108q0 -73 -36 -116.5t-113 -43.5q-127 0 -127 110zM799 1382q0 78 39.5 118t111.5 40q125 0 125 -108q0 -73 -36 -116.5t-113 -43.5q-127 0 -127 110z" glyph-name="adieresis" horiz-adv-x="1217" unicode="ä"/><glyph d="M406 -20q-147 0 -231.5 106.5t-84.5 298.5q0 198 72 377.5t189 278t257 98.5q97 0 167.5 -42t109.5 -122h8l57 143h232l-238 -1118h-225l14 145h-8q-134 -165 -319 -165zM524 223q69 0 133 67t103 181.5t39 259.5q0 71 -38.5 117.5t-101.5 46.5q-68 0 -129.5 -72 t-98 -190t-36.5 -234q0 -88 33.5 -132t95.5 -44zM1023 1479q0 -107 -70 -173.5t-184 -66.5q-110 0 -179 63.5t-69 174.5q0 109 68.5 173t179.5 64q110 0 182 -65t72 -170zM866 1477q0 45 -27.5 70.5t-69.5 25.5t-69 -25.5t-27 -70.5t24 -71t72 -26q42 0 69.5 26t27.5 71z" glyph-name="aring" horiz-adv-x="1217" unicode="å"/><glyph d="M1206 -20q-109 0 -179.5 27t-117.5 87l-16 -94h-188l14 145h-10q-74 -92 -148 -128.5t-162 -36.5q-146 0 -227.5 109t-81.5 296q0 200 68.5 375.5t185 277t258.5 101.5q93 0 156 -37.5t114 -126.5h11l57 143h188l-18 -90q44 49 120.5 80t168.5 31q157 0 246.5 -83.5 t89.5 -221.5q0 -187 -167 -288.5t-476 -101.5h-52l-2 -19v-19q0 -96 55.5 -147.5t159.5 -51.5q66 0 152 23t162 63v-227q-179 -86 -361 -86zM518 223q72 0 134.5 69.5t99 186.5t36.5 240q0 80 -33 128t-102 48q-68 0 -128 -69t-95 -185.5t-35 -241.5q0 -84 32.5 -130 t90.5 -46zM1341 922q-88 0 -166 -80t-102 -195h45q155 0 241.5 48.5t86.5 131.5q0 95 -105 95z" glyph-name="ae" horiz-adv-x="1786" unicode="æ"/><glyph d="M506 -20q-201 0 -308.5 107.5t-107.5 303.5q0 212 74.5 385.5t209.5 268t308 94.5q182 0 328 -72l-92 -229q-54 23 -106 40t-118 17q-85 0 -153.5 -64t-107 -175.5t-38.5 -239.5q0 -96 45.5 -144.5t126.5 -48.5q76 0 141 23.5t134 58.5v-246q-152 -79 -336 -79zM653 -250 q0 -116 -83 -179t-234 -63q-86 0 -152 23v168q63 -23 125 -23q102 0 102 82q0 34 -31 56.5t-110 31.5l96 154h185l-39 -72q141 -49 141 -178z" glyph-name="ccedilla" horiz-adv-x="989" unicode="ç"/><glyph d="M696 922q-88 0 -166 -80t-102 -195h45q155 0 241.5 48.5t86.5 131.5q0 95 -105 95zM532 -20q-210 0 -326 113t-116 319q0 207 82.5 377.5t223.5 260t319 89.5q177 0 276 -81.5t99 -223.5q0 -187 -167 -288.5t-477 -101.5h-51l-2 -21v-20q0 -91 51.5 -143.5t147.5 -52.5 q87 0 158 19t172 67v-227q-172 -86 -390 -86zM849 1241h-184q-71 69 -138.5 153.5t-103.5 153.5v21h311q36 -148 115 -303v-25z" glyph-name="egrave" horiz-adv-x="1141" unicode="è"/><glyph d="M696 922q-88 0 -166 -80t-102 -195h45q155 0 241.5 48.5t86.5 131.5q0 95 -105 95zM532 -20q-210 0 -326 113t-116 319q0 207 82.5 377.5t223.5 260t319 89.5q177 0 276 -81.5t99 -223.5q0 -187 -167 -288.5t-477 -101.5h-51l-2 -21v-20q0 -91 51.5 -143.5t147.5 -52.5 q87 0 158 19t172 67v-227q-172 -86 -390 -86zM528 1266q79 88 222 303h335v-17q-46 -56 -154 -152.5t-194 -158.5h-209v25z" glyph-name="eacute" horiz-adv-x="1141" unicode="é"/><glyph d="M696 922q-88 0 -166 -80t-102 -195h45q155 0 241.5 48.5t86.5 131.5q0 95 -105 95zM532 -20q-210 0 -326 113t-116 319q0 207 82.5 377.5t223.5 260t319 89.5q177 0 276 -81.5t99 -223.5q0 -187 -167 -288.5t-477 -101.5h-51l-2 -21v-20q0 -91 51.5 -143.5t147.5 -52.5 q87 0 158 19t172 67v-227q-172 -86 -390 -86zM1101 1241h-198q-63 53 -162 168q-105 -88 -232 -168h-217v25q63 57 153 147t142 156h338q22 -54 74 -142.5t102 -160.5v-25z" glyph-name="ecircumflex" horiz-adv-x="1141" unicode="ê"/><glyph d="M696 922q-88 0 -166 -80t-102 -195h45q155 0 241.5 48.5t86.5 131.5q0 95 -105 95zM532 -20q-210 0 -326 113t-116 319q0 207 82.5 377.5t223.5 260t319 89.5q177 0 276 -81.5t99 -223.5q0 -187 -167 -288.5t-477 -101.5h-51l-2 -21v-20q0 -91 51.5 -143.5t147.5 -52.5 q87 0 158 19t172 67v-227q-172 -86 -390 -86zM384 1382q0 78 39.5 118t111.5 40q125 0 125 -108q0 -73 -36 -116.5t-113 -43.5q-127 0 -127 110zM767 1382q0 78 39.5 118t111.5 40q125 0 125 -108q0 -73 -36 -116.5t-113 -43.5q-127 0 -127 110z" glyph-name="edieresis" horiz-adv-x="1141" unicode="ë"/><glyph d="M338 0h-301l237 1118h301zM579 1241h-184q-71 69 -138.5 153.5t-103.5 153.5v21h311q36 -148 115 -303v-25z" glyph-name="igrave" horiz-adv-x="608" unicode="ì"/><glyph d="M338 0h-301l237 1118h301zM291 1266q79 88 222 303h335v-17q-46 -56 -154 -152.5t-194 -158.5h-209v25z" glyph-name="iacute" horiz-adv-x="608" unicode="í"/><glyph d="M338 0h-301l237 1118h301zM845 1241h-198q-63 53 -162 168q-105 -88 -232 -168h-217v25q63 57 153 147t142 156h338q22 -54 74 -142.5t102 -160.5v-25z" glyph-name="icircumflex" horiz-adv-x="608" unicode="î"/><glyph d="M338 0h-301l237 1118h301zM145 1382q0 78 39.5 118t111.5 40q125 0 125 -108q0 -73 -36 -116.5t-113 -43.5q-127 0 -127 110zM528 1382q0 78 39.5 118t111.5 40q125 0 125 -108q0 -73 -36 -116.5t-113 -43.5q-127 0 -127 110z" glyph-name="idieresis" horiz-adv-x="608" unicode="ï"/><glyph d="M618 1300q-38 38 -124 80l118 187q138 -63 232 -140l237 132l76 -152l-192 -107q81 -106 113 -230.5t32 -274.5q0 -249 -69.5 -432.5t-203.5 -283t-323 -99.5q-216 0 -329 110t-113 316q0 165 64.5 301t180.5 212t265 76q172 0 262 -125h10q-20 207 -117 301l-231 -131 l-88 148zM528 205q66 0 122.5 55.5t89 148.5t32.5 193q0 77 -38.5 122.5t-108.5 45.5q-73 0 -130 -53t-88.5 -143t-31.5 -197q0 -81 39 -126.5t114 -45.5z" glyph-name="eth" horiz-adv-x="1182" unicode="ð"/><glyph d="M977 0h-301l137 653q16 68 16 119q0 123 -108 123q-92 0 -167 -114t-118 -318l-98 -463h-301l237 1118h230l-21 -207h9q146 228 352 228q138 0 213.5 -83.5t75.5 -238.5q0 -73 -23 -180zM911 1241q-49 0 -86.5 16.5t-69.5 36t-61.5 36t-62.5 16.5q-31 0 -55.5 -28 t-38.5 -79h-177q59 309 281 309q49 0 87.5 -16.5t71.5 -36t62 -35.5t60 -16q34 0 58 25.5t46 80.5h172q-66 -309 -287 -309z" glyph-name="ntilde" horiz-adv-x="1237" unicode="ñ"/><glyph d="M805 696q0 197 -143 197q-75 0 -134.5 -61t-97 -179t-37.5 -243q0 -185 150 -185q75 0 135 61.5t93.5 171t33.5 238.5zM1108 696q0 -211 -70.5 -374t-203.5 -252.5t-316 -89.5q-195 0 -311.5 117.5t-116.5 312.5q0 213 71.5 379.5t206.5 258t316 91.5q196 0 310 -118 t114 -325zM845 1241h-184q-71 69 -138.5 153.5t-103.5 153.5v21h311q36 -148 115 -303v-25z" glyph-name="ograve" horiz-adv-x="1198" unicode="ò"/><glyph d="M805 696q0 197 -143 197q-75 0 -134.5 -61t-97 -179t-37.5 -243q0 -185 150 -185q75 0 135 61.5t93.5 171t33.5 238.5zM1108 696q0 -211 -70.5 -374t-203.5 -252.5t-316 -89.5q-195 0 -311.5 117.5t-116.5 312.5q0 213 71.5 379.5t206.5 258t316 91.5q196 0 310 -118 t114 -325zM571 1266q79 88 222 303h335v-17q-46 -56 -154 -152.5t-194 -158.5h-209v25z" glyph-name="oacute" horiz-adv-x="1198" unicode="ó"/><glyph d="M805 696q0 197 -143 197q-75 0 -134.5 -61t-97 -179t-37.5 -243q0 -185 150 -185q75 0 135 61.5t93.5 171t33.5 238.5zM1108 696q0 -211 -70.5 -374t-203.5 -252.5t-316 -89.5q-195 0 -311.5 117.5t-116.5 312.5q0 213 71.5 379.5t206.5 258t316 91.5q196 0 310 -118 t114 -325zM1109 1241h-198q-63 53 -162 168q-105 -88 -232 -168h-217v25q63 57 153 147t142 156h338q22 -54 74 -142.5t102 -160.5v-25z" glyph-name="ocircumflex" horiz-adv-x="1198" unicode="ô"/><glyph d="M805 696q0 197 -143 197q-75 0 -134.5 -61t-97 -179t-37.5 -243q0 -185 150 -185q75 0 135 61.5t93.5 171t33.5 238.5zM1108 696q0 -211 -70.5 -374t-203.5 -252.5t-316 -89.5q-195 0 -311.5 117.5t-116.5 312.5q0 213 71.5 379.5t206.5 258t316 91.5q196 0 310 -118 t114 -325zM865 1241q-49 0 -86.5 16.5t-69.5 36t-61.5 36t-62.5 16.5q-31 0 -55.5 -28t-38.5 -79h-177q59 309 281 309q49 0 87.5 -16.5t71.5 -36t62 -35.5t60 -16q34 0 58 25.5t46 80.5h172q-66 -309 -287 -309z" glyph-name="otilde" horiz-adv-x="1198" unicode="õ"/><glyph d="M805 696q0 197 -143 197q-75 0 -134.5 -61t-97 -179t-37.5 -243q0 -185 150 -185q75 0 135 61.5t93.5 171t33.5 238.5zM1108 696q0 -211 -70.5 -374t-203.5 -252.5t-316 -89.5q-195 0 -311.5 117.5t-116.5 312.5q0 213 71.5 379.5t206.5 258t316 91.5q196 0 310 -118 t114 -325zM405 1382q0 78 39.5 118t111.5 40q125 0 125 -108q0 -73 -36 -116.5t-113 -43.5q-127 0 -127 110zM788 1382q0 78 39.5 118t111.5 40q125 0 125 -108q0 -73 -36 -116.5t-113 -43.5q-127 0 -127 110z" glyph-name="odieresis" horiz-adv-x="1198" unicode="ö"/><glyph d="M109 612v219h952v-219h-952zM444 373q0 76 37 113.5t103 37.5t102.5 -39t36.5 -112q0 -70 -37 -111t-102 -41t-102.5 39t-37.5 113zM444 1071q0 75 37 113.5t103 38.5q67 0 103 -40.5t36 -111.5q0 -70 -37 -110.5t-102 -40.5t-102.5 39t-37.5 112z" glyph-name="divide" horiz-adv-x="1128" unicode="÷"/><glyph d="M1108 696q0 -211 -70.5 -374t-203.5 -252.5t-316 -89.5q-123 0 -225 53l-109 -135l-141 108l119 148q-72 107 -72 256q0 213 71.5 379.5t206.5 258t316 91.5q131 0 227 -56l70 88l145 -110l-84 -105q66 -107 66 -260zM662 903q-82 0 -143.5 -57t-97.5 -172.5t-36 -247.5 l365 453q-35 24 -88 24zM543 215q73 0 132.5 55t98 167t41.5 245l-358 -444q11 -8 35.5 -15.5t50.5 -7.5z" glyph-name="oslash" horiz-adv-x="1198" unicode="ø"/><glyph d="M262 1118h301l-137 -653q-16 -68 -16 -119q0 -123 108 -123q92 0 167 114t118 318l98 463h301l-237 -1118h-230l21 207h-11q-145 -227 -350 -227q-138 0 -211 82.5t-73 238.5q0 93 24 213zM845 1241h-184q-71 69 -138.5 153.5t-103.5 153.5v21h311q36 -148 115 -303v-25z" glyph-name="ugrave" horiz-adv-x="1237" unicode="ù"/><glyph d="M262 1118h301l-137 -653q-16 -68 -16 -119q0 -123 108 -123q92 0 167 114t118 318l98 463h301l-237 -1118h-230l21 207h-11q-145 -227 -350 -227q-138 0 -211 82.5t-73 238.5q0 93 24 213zM610 1266q79 88 222 303h335v-17q-46 -56 -154 -152.5t-194 -158.5h-209v25z" glyph-name="uacute" horiz-adv-x="1237" unicode="ú"/><glyph d="M262 1118h301l-137 -653q-16 -68 -16 -119q0 -123 108 -123q92 0 167 114t118 318l98 463h301l-237 -1118h-230l21 207h-11q-145 -227 -350 -227q-138 0 -211 82.5t-73 238.5q0 93 24 213zM1143 1241h-198q-63 53 -162 168q-105 -88 -232 -168h-217v25q63 57 153 147 t142 156h338q22 -54 74 -142.5t102 -160.5v-25z" glyph-name="ucircumflex" horiz-adv-x="1237" unicode="û"/><glyph d="M262 1118h301l-137 -653q-16 -68 -16 -119q0 -123 108 -123q92 0 167 114t118 318l98 463h301l-237 -1118h-230l21 207h-11q-145 -227 -350 -227q-138 0 -211 82.5t-73 238.5q0 93 24 213zM430 1382q0 78 39.5 118t111.5 40q125 0 125 -108q0 -73 -36 -116.5t-113 -43.5 q-127 0 -127 110zM813 1382q0 78 39.5 118t111.5 40q125 0 125 -108q0 -73 -36 -116.5t-113 -43.5q-127 0 -127 110z" glyph-name="udieresis" horiz-adv-x="1237" unicode="ü"/><glyph d="M102 1118h295l56 -518q12 -105 12 -293h8q20 51 44 119.5t65 153.5l260 538h327l-680 -1278q-177 -332 -483 -332q-90 0 -147 19v240q68 -13 116 -13q84 0 147.5 48t117.5 149l26 49zM497 1266q79 88 222 303h335v-17q-46 -56 -154 -152.5t-194 -158.5h-209v25z" glyph-name="yacute" horiz-adv-x="1063" unicode="ý"/><glyph d="M813 1139q150 0 232.5 -106.5t82.5 -301.5q0 -199 -69 -381t-182 -276t-250 -94q-178 0 -271 163h-8q-12 -159 -43 -295l-72 -340h-301l435 2048h301l-66 -307q-29 -131 -80 -280h8q131 170 283 170zM682 895q-71 0 -130 -65t-95.5 -184.5t-36.5 -246.5q0 -80 33.5 -128 t105.5 -48q71 0 132.5 69.5t96.5 186t35 240.5q0 88 -37.5 132t-103.5 44z" glyph-name="thorn" horiz-adv-x="1219" unicode="þ"/><glyph d="M102 1118h295l56 -518q12 -105 12 -293h8q20 51 44 119.5t65 153.5l260 538h327l-680 -1278q-177 -332 -483 -332q-90 0 -147 19v240q68 -13 116 -13q84 0 147.5 48t117.5 149l26 49zM329 1382q0 78 39.5 118t111.5 40q125 0 125 -108q0 -73 -36 -116.5t-113 -43.5 q-127 0 -127 110zM712 1382q0 78 39.5 118t111.5 40q125 0 125 -108q0 -73 -36 -116.5t-113 -43.5q-127 0 -127 110z" glyph-name="ydieresis" horiz-adv-x="1063" unicode="ÿ"/><glyph d="M842 348h-473l-172 -348h-320l766 1468h373l147 -1468h-297zM827 608l-26 350l-5 133l-3 156h-5q-54 -147 -106 -254l-188 -385h333zM577 1790h619l-45 -211h-619z" glyph-name="Amacron" horiz-adv-x="1286" unicode="Ā"/><glyph d="M406 -20q-147 0 -231.5 106.5t-84.5 298.5q0 198 72 377.5t189 278t257 98.5q97 0 167.5 -42t109.5 -122h8l57 143h232l-238 -1118h-225l14 145h-8q-134 -165 -319 -165zM524 223q69 0 133 67t103 181.5t39 259.5q0 71 -38.5 117.5t-101.5 46.5q-68 0 -129.5 -72 t-98 -190t-36.5 -234q0 -88 33.5 -132t95.5 -44zM465 1452h619l-45 -211h-619z" glyph-name="amacron" horiz-adv-x="1217" unicode="ā"/><glyph d="M842 348h-473l-172 -348h-320l766 1468h373l147 -1468h-297zM827 608l-26 350l-5 133l-3 156h-5q-54 -147 -106 -254l-188 -385h333zM1239 1917q-55 -338 -393 -338q-153 0 -238.5 73t-85.5 199q0 38 6 66h174q0 -65 36.5 -95t117.5 -30q78 0 127.5 27t66.5 98h189z" glyph-name="Abreve" horiz-adv-x="1286" unicode="Ă"/><glyph d="M406 -20q-147 0 -231.5 106.5t-84.5 298.5q0 198 72 377.5t189 278t257 98.5q97 0 167.5 -42t109.5 -122h8l57 143h232l-238 -1118h-225l14 145h-8q-134 -165 -319 -165zM524 223q69 0 133 67t103 181.5t39 259.5q0 71 -38.5 117.5t-101.5 46.5q-68 0 -129.5 -72 t-98 -190t-36.5 -234q0 -88 33.5 -132t95.5 -44zM1130 1579q-55 -338 -393 -338q-153 0 -238.5 73t-85.5 199q0 38 6 66h174q0 -65 36.5 -95t117.5 -30q78 0 127.5 27t66.5 98h189z" glyph-name="abreve" horiz-adv-x="1217" unicode="ă"/><glyph d="M842 348h-473l-172 -348h-320l766 1468h373l147 -1468h-297zM827 608l-26 350l-5 133l-3 156h-5q-54 -147 -106 -254l-188 -385h333zM1065 0q-119 -96 -155 -148t-36 -102q0 -28 16 -43.5t44 -15.5q44 0 102 18v-176q-84 -25 -164 -25q-102 0 -161.5 53.5t-59.5 141.5 q0 82 47.5 151t167.5 146h199z" glyph-name="Aogonek" horiz-adv-x="1286" unicode="Ą"/><glyph d="M406 -20q-147 0 -231.5 106.5t-84.5 298.5q0 198 72 377.5t189 278t257 98.5q97 0 167.5 -42t109.5 -122h8l57 143h232l-238 -1118h-225l14 145h-8q-134 -165 -319 -165zM524 223q69 0 133 67t103 181.5t39 259.5q0 71 -38.5 117.5t-101.5 46.5q-68 0 -129.5 -72 t-98 -190t-36.5 -234q0 -88 33.5 -132t95.5 -44zM914 0q-119 -96 -155 -148t-36 -102q0 -28 16 -43.5t44 -15.5q44 0 102 18v-176q-84 -25 -164 -25q-102 0 -161.5 53.5t-59.5 141.5q0 82 47.5 151t167.5 146h199z" glyph-name="aogonek" horiz-adv-x="1217" unicode="ą"/><glyph d="M905 1227q-132 0 -237.5 -81t-169.5 -239t-64 -338q0 -167 68.5 -248t218.5 -81q146 0 338 77v-260q-199 -77 -400 -77q-254 0 -395 149.5t-141 423.5q0 262 104 482.5t278 335t400 114.5q125 0 222 -22.5t208 -82.5l-118 -250q-106 59 -175 78t-137 19zM735 1604 q79 88 222 303h335v-17q-46 -56 -154 -152.5t-194 -158.5h-209v25z" glyph-name="Cacute" horiz-adv-x="1253" unicode="Ć"/><glyph d="M506 -20q-201 0 -308.5 107.5t-107.5 303.5q0 212 74.5 385.5t209.5 268t308 94.5q182 0 328 -72l-92 -229q-54 23 -106 40t-118 17q-85 0 -153.5 -64t-107 -175.5t-38.5 -239.5q0 -96 45.5 -144.5t126.5 -48.5q76 0 141 23.5t134 58.5v-246q-152 -79 -336 -79zM510 1266 q79 88 222 303h335v-17q-46 -56 -154 -152.5t-194 -158.5h-209v25z" glyph-name="cacute" horiz-adv-x="989" unicode="ć"/><glyph d="M905 1227q-132 0 -237.5 -81t-169.5 -239t-64 -338q0 -167 68.5 -248t218.5 -81q146 0 338 77v-260q-199 -77 -400 -77q-254 0 -395 149.5t-141 423.5q0 262 104 482.5t278 335t400 114.5q125 0 222 -22.5t208 -82.5l-118 -250q-106 59 -175 78t-137 19zM1292 1579h-198 q-63 53 -162 168q-105 -88 -232 -168h-217v25q63 57 153 147t142 156h338q22 -54 74 -142.5t102 -160.5v-25z" glyph-name="Ccircumflex" horiz-adv-x="1253" unicode="Ĉ"/><glyph d="M506 -20q-201 0 -308.5 107.5t-107.5 303.5q0 212 74.5 385.5t209.5 268t308 94.5q182 0 328 -72l-92 -229q-54 23 -106 40t-118 17q-85 0 -153.5 -64t-107 -175.5t-38.5 -239.5q0 -96 45.5 -144.5t126.5 -48.5q76 0 141 23.5t134 58.5v-246q-152 -79 -336 -79z M1062 1241h-198q-63 53 -162 168q-105 -88 -232 -168h-217v25q63 57 153 147t142 156h338q22 -54 74 -142.5t102 -160.5v-25z" glyph-name="ccircumflex" horiz-adv-x="989" unicode="ĉ"/><glyph d="M905 1227q-132 0 -237.5 -81t-169.5 -239t-64 -338q0 -167 68.5 -248t218.5 -81q146 0 338 77v-260q-199 -77 -400 -77q-254 0 -395 149.5t-141 423.5q0 262 104 482.5t278 335t400 114.5q125 0 222 -22.5t208 -82.5l-118 -250q-106 59 -175 78t-137 19zM775 1718 q0 87 47.5 131.5t134.5 44.5q73 0 111 -31t38 -89q0 -80 -44 -129.5t-136 -49.5q-151 0 -151 123z" glyph-name="Cdotaccent" horiz-adv-x="1253" unicode="Ċ"/><glyph d="M506 -20q-201 0 -308.5 107.5t-107.5 303.5q0 212 74.5 385.5t209.5 268t308 94.5q182 0 328 -72l-92 -229q-54 23 -106 40t-118 17q-85 0 -153.5 -64t-107 -175.5t-38.5 -239.5q0 -96 45.5 -144.5t126.5 -48.5q76 0 141 23.5t134 58.5v-246q-152 -79 -336 -79zM531 1380 q0 87 47.5 131.5t134.5 44.5q73 0 111 -31t38 -89q0 -80 -44 -129.5t-136 -49.5q-151 0 -151 123z" glyph-name="cdotaccent" horiz-adv-x="989" unicode="ċ"/><glyph d="M905 1227q-132 0 -237.5 -81t-169.5 -239t-64 -338q0 -167 68.5 -248t218.5 -81q146 0 338 77v-260q-199 -77 -400 -77q-254 0 -395 149.5t-141 423.5q0 262 104 482.5t278 335t400 114.5q125 0 222 -22.5t208 -82.5l-118 -250q-106 59 -175 78t-137 19zM514 1907h198 q63 -53 162 -168q115 94 232 168h217v-25q-212 -198 -295 -303h-338q-22 54 -74 142.5t-102 160.5v25z" glyph-name="Ccaron" horiz-adv-x="1253" unicode="Č"/><glyph d="M506 -20q-201 0 -308.5 107.5t-107.5 303.5q0 212 74.5 385.5t209.5 268t308 94.5q182 0 328 -72l-92 -229q-54 23 -106 40t-118 17q-85 0 -153.5 -64t-107 -175.5t-38.5 -239.5q0 -96 45.5 -144.5t126.5 -48.5q76 0 141 23.5t134 58.5v-246q-152 -79 -336 -79zM308 1569 h198q63 -53 162 -168q115 94 232 168h217v-25q-212 -198 -295 -303h-338q-22 54 -74 142.5t-102 160.5v25z" glyph-name="ccaron" horiz-adv-x="989" unicode="č"/><glyph d="M1323 909q0 -280 -98 -486.5t-283.5 -314.5t-437.5 -108h-451l309 1462h396q270 0 417.5 -143t147.5 -410zM518 256q148 0 258 76t172 223.5t62 337.5q0 154 -72.5 234.5t-208.5 80.5h-115l-202 -952h106zM469 1907h198q63 -53 162 -168q115 94 232 168h217v-25 q-212 -198 -295 -303h-338q-22 54 -74 142.5t-102 160.5v25z" glyph-name="Dcaron" horiz-adv-x="1386" unicode="Ď"/><glyph d="M406 -20q-147 0 -231.5 107t-84.5 300q0 196 71.5 374.5t188.5 278t258 99.5q82 0 141.5 -37t112.5 -127h8l2 28q6 110 25 195l76 358h301l-330 -1556h-229l18 145h-8q-71 -87 -148.5 -126t-170.5 -39zM532 223q70 0 129 63.5t98.5 189.5t39.5 243q0 80 -37.5 128 t-102.5 48q-68 0 -129.5 -72t-98 -190t-36.5 -234q0 -176 137 -176zM1301 1255q83 178 124 301h283v-20q-30 -57 -96.5 -147.5t-130.5 -159.5h-180v26z" glyph-name="dcaron" horiz-adv-x="1217" unicode="ď"/><glyph d="M1323 909q0 -280 -98 -486.5t-283.5 -314.5t-437.5 -108h-451l125 596h-141l55 254h139l131 612h396q270 0 417.5 -143t147.5 -410zM518 256q148 0 258 76t172 223.5t62 337.5q0 154 -72.5 234.5t-208.5 80.5h-115l-75 -358h237l-55 -254h-238l-71 -340h106z" glyph-name="Dcroat" horiz-adv-x="1386" unicode="Đ"/><glyph d="M596 1077q88 0 150.5 -34.5t107.5 -114.5h8q0 27 5.5 81t29.5 187h-295l41 199h295l35 161h301l-35 -161h154l-41 -199h-156l-252 -1196h-225l14 145h-8q-77 -90 -150.5 -127.5t-158.5 -37.5q-152 0 -239 106t-87 301q0 181 70 348t183 254.5t253 87.5zM537 223 q68 0 126 59.5t96 171.5t38 220q0 72 -32.5 116t-105.5 44q-71 0 -132 -61t-96.5 -162t-35.5 -212q0 -88 38 -132t104 -44z" glyph-name="dcroat" horiz-adv-x="1217" unicode="đ"/><glyph d="M870 0h-817l309 1462h818l-54 -254h-512l-67 -321h477l-55 -254h-477l-80 -377h512zM516 1790h619l-45 -211h-619z" glyph-name="Emacron" horiz-adv-x="1110" unicode="Ē"/><glyph d="M696 922q-88 0 -166 -80t-102 -195h45q155 0 241.5 48.5t86.5 131.5q0 95 -105 95zM532 -20q-210 0 -326 113t-116 319q0 207 82.5 377.5t223.5 260t319 89.5q177 0 276 -81.5t99 -223.5q0 -187 -167 -288.5t-477 -101.5h-51l-2 -21v-20q0 -91 51.5 -143.5t147.5 -52.5 q87 0 158 19t172 67v-227q-172 -86 -390 -86zM440 1452h619l-45 -211h-619z" glyph-name="emacron" horiz-adv-x="1141" unicode="ē"/><glyph d="M870 0h-817l309 1462h818l-54 -254h-512l-67 -321h477l-55 -254h-477l-80 -377h512zM1178 1917q-55 -338 -393 -338q-153 0 -238.5 73t-85.5 199q0 38 6 66h174q0 -65 36.5 -95t117.5 -30q78 0 127.5 27t66.5 98h189z" glyph-name="Ebreve" horiz-adv-x="1110" unicode="Ĕ"/><glyph d="M696 922q-88 0 -166 -80t-102 -195h45q155 0 241.5 48.5t86.5 131.5q0 95 -105 95zM532 -20q-210 0 -326 113t-116 319q0 207 82.5 377.5t223.5 260t319 89.5q177 0 276 -81.5t99 -223.5q0 -187 -167 -288.5t-477 -101.5h-51l-2 -21v-20q0 -91 51.5 -143.5t147.5 -52.5 q87 0 158 19t172 67v-227q-172 -86 -390 -86zM1123 1579q-55 -338 -393 -338q-153 0 -238.5 73t-85.5 199q0 38 6 66h174q0 -65 36.5 -95t117.5 -30q78 0 127.5 27t66.5 98h189z" glyph-name="ebreve" horiz-adv-x="1141" unicode="ĕ"/><glyph d="M870 0h-817l309 1462h818l-54 -254h-512l-67 -321h477l-55 -254h-477l-80 -377h512zM623 1689q0 87 47.5 131.5t134.5 44.5q73 0 111 -31t38 -89q0 -80 -44 -129.5t-136 -49.5q-151 0 -151 123z" glyph-name="Edotaccent" horiz-adv-x="1110" unicode="Ė"/><glyph d="M696 922q-88 0 -166 -80t-102 -195h45q155 0 241.5 48.5t86.5 131.5q0 95 -105 95zM532 -20q-210 0 -326 113t-116 319q0 207 82.5 377.5t223.5 260t319 89.5q177 0 276 -81.5t99 -223.5q0 -187 -167 -288.5t-477 -101.5h-51l-2 -21v-20q0 -91 51.5 -143.5t147.5 -52.5 q87 0 158 19t172 67v-227q-172 -86 -390 -86zM572 1380q0 87 47.5 131.5t134.5 44.5q73 0 111 -31t38 -89q0 -80 -44 -129.5t-136 -49.5q-151 0 -151 123z" glyph-name="edotaccent" horiz-adv-x="1141" unicode="ė"/><glyph d="M870 0h-817l309 1462h818l-54 -254h-512l-67 -321h477l-55 -254h-477l-80 -377h512zM772 0q-119 -96 -155 -148t-36 -102q0 -28 16 -43.5t44 -15.5q44 0 102 18v-176q-84 -25 -164 -25q-102 0 -161.5 53.5t-59.5 141.5q0 82 47.5 151t167.5 146h199z" glyph-name="Eogonek" horiz-adv-x="1110" unicode="Ę"/><glyph d="M696 922q-88 0 -166 -80t-102 -195h45q155 0 241.5 48.5t86.5 131.5q0 95 -105 95zM532 -20q-210 0 -326 113t-116 319q0 207 82.5 377.5t223.5 260t319 89.5q177 0 276 -81.5t99 -223.5q0 -187 -167 -288.5t-477 -101.5h-51l-2 -21v-20q0 -91 51.5 -143.5t147.5 -52.5 q87 0 158 19t172 67v-227q-172 -86 -390 -86zM691 20q-119 -96 -155 -148t-36 -102q0 -28 16 -43.5t44 -15.5q44 0 102 18v-176q-84 -25 -164 -25q-102 0 -161.5 53.5t-59.5 141.5q0 82 47.5 151t167.5 146h199z" glyph-name="eogonek" horiz-adv-x="1141" unicode="ę"/><glyph d="M870 0h-817l309 1462h818l-54 -254h-512l-67 -321h477l-55 -254h-477l-80 -377h512zM422 1907h198q63 -53 162 -168q115 94 232 168h217v-25q-212 -198 -295 -303h-338q-22 54 -74 142.5t-102 160.5v25z" glyph-name="Ecaron" horiz-adv-x="1110" unicode="Ě"/><glyph d="M696 922q-88 0 -166 -80t-102 -195h45q155 0 241.5 48.5t86.5 131.5q0 95 -105 95zM532 -20q-210 0 -326 113t-116 319q0 207 82.5 377.5t223.5 260t319 89.5q177 0 276 -81.5t99 -223.5q0 -187 -167 -288.5t-477 -101.5h-51l-2 -21v-20q0 -91 51.5 -143.5t147.5 -52.5 q87 0 158 19t172 67v-227q-172 -86 -390 -86zM364 1569h198q63 -53 162 -168q115 94 232 168h217v-25q-212 -198 -295 -303h-338q-22 54 -74 142.5t-102 160.5v25z" glyph-name="ecaron" horiz-adv-x="1141" unicode="ě"/><glyph d="M754 821h563l-162 -762q-134 -46 -248.5 -62.5t-242.5 -16.5q-259 0 -400 147t-141 422q0 266 105.5 482t298.5 335t452 119q218 0 410 -99l-115 -251q-74 40 -148 64t-161 24q-153 0 -273.5 -83t-189 -236.5t-68.5 -330.5q0 -172 72.5 -252.5t222.5 -80.5q76 0 170 24 l66 299h-267zM1308 1579h-198q-63 53 -162 168q-105 -88 -232 -168h-217v25q63 57 153 147t142 156h338q22 -54 74 -142.5t102 -160.5v-25z" glyph-name="Gcircumflex" horiz-adv-x="1413" unicode="Ĝ"/><glyph d="M950 1118h232l-244 -1145q-52 -238 -182.5 -351.5t-364.5 -113.5q-104 0 -188.5 15.5t-175.5 56.5v262q160 -86 348 -86q104 0 169.5 47.5t93.5 148.5t58 198h-8q-72 -94 -143 -132t-154 -38q-139 0 -220 107t-81 298q0 196 70.5 373t187.5 279t254 102q90 0 154.5 -34.5 t128.5 -129.5h8zM537 223q68 0 126 64t97 185.5t39 246.5q0 80 -37 128t-100 48q-71 0 -133.5 -72.5t-98 -187.5t-35.5 -236q0 -88 38 -132t104 -44zM1190 1241h-198q-63 53 -162 168q-105 -88 -232 -168h-217v25q63 57 153 147t142 156h338q22 -54 74 -142.5t102 -160.5 v-25z" glyph-name="gcircumflex" horiz-adv-x="1217" unicode="ĝ"/><glyph d="M754 821h563l-162 -762q-134 -46 -248.5 -62.5t-242.5 -16.5q-259 0 -400 147t-141 422q0 266 105.5 482t298.5 335t452 119q218 0 410 -99l-115 -251q-74 40 -148 64t-161 24q-153 0 -273.5 -83t-189 -236.5t-68.5 -330.5q0 -172 72.5 -252.5t222.5 -80.5q76 0 170 24 l66 299h-267zM1303 1917q-55 -338 -393 -338q-153 0 -238.5 73t-85.5 199q0 38 6 66h174q0 -65 36.5 -95t117.5 -30q78 0 127.5 27t66.5 98h189z" glyph-name="Gbreve" horiz-adv-x="1413" unicode="Ğ"/><glyph d="M950 1118h232l-244 -1145q-52 -238 -182.5 -351.5t-364.5 -113.5q-104 0 -188.5 15.5t-175.5 56.5v262q160 -86 348 -86q104 0 169.5 47.5t93.5 148.5t58 198h-8q-72 -94 -143 -132t-154 -38q-139 0 -220 107t-81 298q0 196 70.5 373t187.5 279t254 102q90 0 154.5 -34.5 t128.5 -129.5h8zM537 223q68 0 126 64t97 185.5t39 246.5q0 80 -37 128t-100 48q-71 0 -133.5 -72.5t-98 -187.5t-35.5 -236q0 -88 38 -132t104 -44zM1149 1579q-55 -338 -393 -338q-153 0 -238.5 73t-85.5 199q0 38 6 66h174q0 -65 36.5 -95t117.5 -30q78 0 127.5 27 t66.5 98h189z" glyph-name="gbreve" horiz-adv-x="1217" unicode="ğ"/><glyph d="M754 821h563l-162 -762q-134 -46 -248.5 -62.5t-242.5 -16.5q-259 0 -400 147t-141 422q0 266 105.5 482t298.5 335t452 119q218 0 410 -99l-115 -251q-74 40 -148 64t-161 24q-153 0 -273.5 -83t-189 -236.5t-68.5 -330.5q0 -172 72.5 -252.5t222.5 -80.5q76 0 170 24 l66 299h-267zM777 1718q0 87 47.5 131.5t134.5 44.5q73 0 111 -31t38 -89q0 -80 -44 -129.5t-136 -49.5q-151 0 -151 123z" glyph-name="Gdotaccent" horiz-adv-x="1413" unicode="Ġ"/><glyph d="M950 1118h232l-244 -1145q-52 -238 -182.5 -351.5t-364.5 -113.5q-104 0 -188.5 15.5t-175.5 56.5v262q160 -86 348 -86q104 0 169.5 47.5t93.5 148.5t58 198h-8q-72 -94 -143 -132t-154 -38q-139 0 -220 107t-81 298q0 196 70.5 373t187.5 279t254 102q90 0 154.5 -34.5 t128.5 -129.5h8zM537 223q68 0 126 64t97 185.5t39 246.5q0 80 -37 128t-100 48q-71 0 -133.5 -72.5t-98 -187.5t-35.5 -236q0 -88 38 -132t104 -44zM613 1380q0 87 47.5 131.5t134.5 44.5q73 0 111 -31t38 -89q0 -80 -44 -129.5t-136 -49.5q-151 0 -151 123z" glyph-name="gdotaccent" horiz-adv-x="1217" unicode="ġ"/><glyph d="M754 821h563l-162 -762q-134 -46 -248.5 -62.5t-242.5 -16.5q-259 0 -400 147t-141 422q0 266 105.5 482t298.5 335t452 119q218 0 410 -99l-115 -251q-74 40 -148 64t-161 24q-153 0 -273.5 -83t-189 -236.5t-68.5 -330.5q0 -172 72.5 -252.5t222.5 -80.5q76 0 170 24 l66 299h-267zM404 -426q25 51 65.5 147.5t59.5 153.5h282v-20q-33 -62 -95.5 -146.5t-131.5 -161.5h-180v27z" glyph-name="Gcommaaccent" horiz-adv-x="1413" unicode="Ģ"/><glyph d="M950 1118h232l-244 -1145q-52 -238 -182.5 -351.5t-364.5 -113.5q-104 0 -188.5 15.5t-175.5 56.5v262q160 -86 348 -86q104 0 169.5 47.5t93.5 148.5t58 198h-8q-72 -94 -143 -132t-154 -38q-139 0 -220 107t-81 298q0 196 70.5 373t187.5 279t254 102q90 0 154.5 -34.5 t128.5 -129.5h8zM537 223q68 0 126 64t97 185.5t39 246.5q0 80 -37 128t-100 48q-71 0 -133.5 -72.5t-98 -187.5t-35.5 -236q0 -88 38 -132t104 -44zM996 1542q-20 -40 -63.5 -141t-61.5 -160h-283v21q31 59 95.5 146t131.5 161h181v-27z" glyph-name="gcommaaccent" horiz-adv-x="1217" unicode="ģ"/><glyph d="M1135 0h-306l134 631h-471l-134 -631h-305l309 1462h306l-121 -573h471l121 573h305zM1304 1579h-198q-63 53 -162 168q-105 -88 -232 -168h-217v25q63 57 153 147t142 156h338q22 -54 74 -142.5t102 -160.5v-25z" glyph-name="Hcircumflex" horiz-adv-x="1434" unicode="Ĥ"/><glyph d="M977 0h-301l137 653q16 68 16 119q0 123 -108 123q-92 0 -167 -114t-118 -318l-98 -463h-301l330 1556h301q-39 -181 -60 -278t-86 -309h8q62 77 138 123.5t176 46.5q138 0 213.5 -83.5t75.5 -238.5q0 -73 -23 -180zM1198 1634h-198q-63 53 -162 168q-105 -88 -232 -168 h-217v25q63 57 153 147t142 156h338q22 -54 74 -142.5t102 -160.5v-25z" glyph-name="hcircumflex" horiz-adv-x="1237" unicode="ĥ"/><glyph d="M1403 1268h178l-41 -199h-180l-225 -1069h-306l134 631h-471l-134 -631h-305l226 1069h-177l41 199h179l40 194h306l-41 -194h471l41 194h305zM1018 889l37 180h-471l-37 -180h471z" glyph-name="Hbar" horiz-adv-x="1434" unicode="Ħ"/><glyph d="M977 0h-301l125 592q16 68 16 119q0 123 -106 123q-93 0 -168.5 -115.5t-118.5 -317.5l-86 -401h-301l254 1196h-162l43 199h160l35 161h301l-33 -161h299l-43 -199h-299q-38 -164 -80 -289h8q62 78 136.5 124t174.5 46q140 0 214.5 -84t74.5 -237q0 -79 -22 -181z M1086 1118z" glyph-name="hbar" horiz-adv-x="1237" unicode="ħ"/><glyph d="M588 0h-647l36 176l187 82l201 946l-152 82l37 176h647l-37 -176l-190 -82l-201 -946l156 -82zM754 1579q-49 0 -86.5 16.5t-69.5 36t-61.5 36t-62.5 16.5q-31 0 -55.5 -28t-38.5 -79h-177q59 309 281 309q49 0 87.5 -16.5t71.5 -36t62 -35.5t60 -16q34 0 58 25.5 t46 80.5h172q-66 -309 -287 -309z" glyph-name="Itilde" horiz-adv-x="784" unicode="Ĩ"/><glyph d="M338 0h-301l237 1118h301zM605 1241q-49 0 -86.5 16.5t-69.5 36t-61.5 36t-62.5 16.5q-31 0 -55.5 -28t-38.5 -79h-177q59 309 281 309q49 0 87.5 -16.5t71.5 -36t62 -35.5t60 -16q34 0 58 25.5t46 80.5h172q-66 -309 -287 -309z" glyph-name="itilde" horiz-adv-x="608" unicode="ĩ"/><glyph d="M588 0h-647l36 176l187 82l201 946l-152 82l37 176h647l-37 -176l-190 -82l-201 -946l156 -82zM327 1790h619l-45 -211h-619z" glyph-name="Imacron" horiz-adv-x="784" unicode="Ī"/><glyph d="M338 0h-301l237 1118h301zM173 1452h619l-45 -211h-619z" glyph-name="imacron" horiz-adv-x="608" unicode="ī"/><glyph d="M588 0h-647l36 176l187 82l201 946l-152 82l37 176h647l-37 -176l-190 -82l-201 -946l156 -82zM984 1917q-55 -338 -393 -338q-153 0 -238.5 73t-85.5 199q0 38 6 66h174q0 -65 36.5 -95t117.5 -30q78 0 127.5 27t66.5 98h189z" glyph-name="Ibreve" horiz-adv-x="784" unicode="Ĭ"/><glyph d="M338 0h-301l237 1118h301zM851 1579q-55 -338 -393 -338q-153 0 -238.5 73t-85.5 199q0 38 6 66h174q0 -65 36.5 -95t117.5 -30q78 0 127.5 27t66.5 98h189z" glyph-name="ibreve" horiz-adv-x="608" unicode="ĭ"/><glyph d="M588 0h-647l36 176l187 82l201 946l-152 82l37 176h647l-37 -176l-190 -82l-201 -946l156 -82zM410 0q-119 -96 -155 -148t-36 -102q0 -28 16 -43.5t44 -15.5q44 0 102 18v-176q-84 -25 -164 -25q-102 0 -161.5 53.5t-59.5 141.5q0 82 47.5 151t167.5 146h199z" glyph-name="Iogonek" horiz-adv-x="784" unicode="Į"/><glyph d="M338 0h-301l237 1118h301zM322 1380q0 87 47.5 131.5t134.5 44.5q73 0 111 -31t38 -89q0 -80 -44 -129.5t-136 -49.5q-151 0 -151 123zM334 0q-119 -96 -155 -148t-36 -102q0 -28 16 -43.5t44 -15.5q44 0 102 18v-176q-84 -25 -164 -25q-102 0 -161.5 53.5t-59.5 141.5 q0 82 47.5 151t167.5 146h199z" glyph-name="iogonek" horiz-adv-x="608" unicode="į"/><glyph d="M588 0h-647l36 176l187 82l201 946l-152 82l37 176h647l-37 -176l-190 -82l-201 -946l156 -82zM437 1718q0 87 47.5 131.5t134.5 44.5q73 0 111 -31t38 -89q0 -80 -44 -129.5t-136 -49.5q-151 0 -151 123z" glyph-name="Idotaccent" horiz-adv-x="784" unicode="İ"/><glyph d="M338 0h-301l237 1118h301z" glyph-name="dotlessi" horiz-adv-x="608" unicode="ı"/><glyph d="M588 0h-647l36 176l187 82l201 946l-152 82l37 176h647l-37 -176l-190 -82l-201 -946l156 -82zM649 -430q-94 0 -187 27v253q88 -20 164 -20q99 0 160.5 60.5t89.5 191.5l293 1380h305l-303 -1423q-52 -245 -175.5 -357t-346.5 -112z" glyph-name="IJ" horiz-adv-x="1462" unicode="Ĳ"/><glyph d="M338 0h-301l237 1118h301zM322 1380q0 87 47.5 131.5t134.5 44.5q73 0 111 -31t38 -89q0 -80 -44 -129.5t-136 -49.5q-151 0 -151 123zM518 -492q-104 0 -174 25v242q61 -21 114 -21q137 0 173 170l253 1194h302l-265 -1239q-77 -371 -403 -371zM932 1380 q0 87 47.5 131.5t134.5 44.5q73 0 111 -31t38 -89q0 -80 -44 -129.5t-136 -49.5q-151 0 -151 123z" glyph-name="ij" horiz-adv-x="1217" unicode="ĳ"/><glyph d="M-135 -430q-94 0 -187 27v253q88 -20 164 -20q99 0 160.5 60.5t89.5 191.5l293 1380h305l-303 -1423q-52 -245 -175.5 -357t-346.5 -112zM949 1579h-198q-63 53 -162 168q-105 -88 -232 -168h-217v25q63 57 153 147t142 156h338q22 -54 74 -142.5t102 -160.5v-25z" glyph-name="Jcircumflex" horiz-adv-x="678" unicode="Ĵ"/><glyph d="M-88 -492q-104 0 -174 25v242q61 -21 115 -21q61 0 107 40t65 130l254 1194h301l-265 -1239q-77 -371 -403 -371zM836 1241h-198q-63 53 -162 168q-105 -88 -232 -168h-217v25q63 57 153 147t142 156h338q22 -54 74 -142.5t102 -160.5v-25z" glyph-name="jcircumflex" horiz-adv-x="608" unicode="ĵ"/><glyph d="M1141 0h-338l-211 592l-125 -70l-109 -522h-305l309 1462h306l-154 -706l156 209l413 497h361l-594 -700zM303 -426q25 51 65.5 147.5t59.5 153.5h282v-20q-33 -62 -95.5 -146.5t-131.5 -161.5h-180v27z" glyph-name="Kcommaaccent" horiz-adv-x="1255" unicode="Ķ"/><glyph d="M920 1118h344l-498 -504l285 -614h-336l-183 420l-120 -72l-74 -348h-301l330 1556h301l-148 -694q-11 -57 -48 -175l-13 -44h8zM246 -426q25 51 65.5 147.5t59.5 153.5h282v-20q-33 -62 -95.5 -146.5t-131.5 -161.5h-180v27z" glyph-name="kcommaaccent" horiz-adv-x="1163" unicode="ķ"/><glyph d="M920 1118h344l-498 -504l285 -614h-336l-183 420l-120 -72l-74 -348h-301l237 1118h301q-35 -155 -55.5 -247.5t-64.5 -233.5h8z" glyph-name="kgreenlandic" horiz-adv-x="1163" unicode="ĸ"/><glyph d="M53 0l309 1462h306l-256 -1206h512l-54 -256h-817zM384 1604q79 88 222 303h335v-17q-46 -56 -154 -152.5t-194 -158.5h-209v25z" glyph-name="Lacute" horiz-adv-x="1061" unicode="Ĺ"/><glyph d="M338 0h-301l330 1556h301zM384 1661q79 88 222 303h335v-17q-46 -56 -154 -152.5t-194 -158.5h-209v25z" glyph-name="lacute" horiz-adv-x="608" unicode="ĺ"/><glyph d="M53 0l309 1462h306l-256 -1206h512l-54 -256h-817zM189 -426q25 51 65.5 147.5t59.5 153.5h282v-20q-33 -62 -95.5 -146.5t-131.5 -161.5h-180v27z" glyph-name="Lcommaaccent" horiz-adv-x="1061" unicode="Ļ"/><glyph d="M338 0h-301l330 1556h301zM-99 -426q25 51 65.5 147.5t59.5 153.5h282v-20q-33 -62 -95.5 -146.5t-131.5 -161.5h-180v27z" glyph-name="lcommaaccent" horiz-adv-x="608" unicode="ļ"/><glyph d="M53 0l309 1462h306l-256 -1206h512l-54 -256h-817zM783 1162q83 178 124 301h283v-20q-30 -57 -96.5 -147.5t-130.5 -159.5h-180v26z" glyph-name="Lcaron" horiz-adv-x="1061" unicode="Ľ"/><glyph d="M338 0h-301l330 1556h301zM695 1255q83 178 124 301h283v-20q-30 -57 -96.5 -147.5t-130.5 -159.5h-180v26z" glyph-name="lcaron" horiz-adv-x="608" unicode="ľ"/><glyph d="M53 0l309 1462h306l-256 -1206h512l-54 -256h-817zM695 724q0 87 47.5 131.5t134.5 44.5q73 0 111 -31t38 -89q0 -80 -44 -129.5t-136 -49.5q-151 0 -151 123z" glyph-name="Ldot" horiz-adv-x="1061" unicode="Ŀ"/><glyph d="M338 0h-301l330 1556h301zM611 668q0 87 47.5 131.5t134.5 44.5q73 0 111 -31t38 -89q0 -80 -44 -129.5t-136 -49.5q-151 0 -151 123z" glyph-name="ldot" horiz-adv-x="889" unicode="ŀ"/><glyph d="M55 0l103 481l-58 -30l-102 202l221 119l146 690h303l-107 -506l141 78l107 -203l-311 -167l-86 -408h512l-54 -256h-815z" glyph-name="Lslash" horiz-adv-x="1061" unicode="Ł"/><glyph d="M559 936l64 37l106 -203l-231 -125l-138 -645h-297l99 467l-60 -33l-102 203l223 121l170 798h297z" glyph-name="lslash" horiz-adv-x="670" unicode="ł"/><glyph d="M1247 0h-342l-356 1106h-10l-8 -59q-27 -214 -58 -359l-145 -688h-275l309 1462h357l340 -1077h8q35 223 68 385l147 692h274zM856 1604q79 88 222 303h335v-17q-46 -56 -154 -152.5t-194 -158.5h-209v25z" glyph-name="Nacute" horiz-adv-x="1546" unicode="Ń"/><glyph d="M977 0h-301l137 653q16 68 16 119q0 123 -108 123q-92 0 -167 -114t-118 -318l-98 -463h-301l237 1118h230l-21 -207h9q146 228 352 228q138 0 213.5 -83.5t75.5 -238.5q0 -73 -23 -180zM594 1266q79 88 222 303h335v-17q-46 -56 -154 -152.5t-194 -158.5h-209v25z" glyph-name="nacute" horiz-adv-x="1237" unicode="ń"/><glyph d="M1247 0h-342l-356 1106h-10l-8 -59q-27 -214 -58 -359l-145 -688h-275l309 1462h357l340 -1077h8q35 223 68 385l147 692h274zM381 -426q25 51 65.5 147.5t59.5 153.5h282v-20q-33 -62 -95.5 -146.5t-131.5 -161.5h-180v27z" glyph-name="Ncommaaccent" horiz-adv-x="1546" unicode="Ņ"/><glyph d="M977 0h-301l137 653q16 68 16 119q0 123 -108 123q-92 0 -167 -114t-118 -318l-98 -463h-301l237 1118h230l-21 -207h9q146 228 352 228q138 0 213.5 -83.5t75.5 -238.5q0 -73 -23 -180zM236 -426q25 51 65.5 147.5t59.5 153.5h282v-20q-33 -62 -95.5 -146.5 t-131.5 -161.5h-180v27z" glyph-name="ncommaaccent" horiz-adv-x="1237" unicode="ņ"/><glyph d="M1247 0h-342l-356 1106h-10l-8 -59q-27 -214 -58 -359l-145 -688h-275l309 1462h357l340 -1077h8q35 223 68 385l147 692h274zM621 1907h198q63 -53 162 -168q115 94 232 168h217v-25q-212 -198 -295 -303h-338q-22 54 -74 142.5t-102 160.5v25z" glyph-name="Ncaron" horiz-adv-x="1546" unicode="Ň"/><glyph d="M977 0h-301l137 653q16 68 16 119q0 123 -108 123q-92 0 -167 -114t-118 -318l-98 -463h-301l237 1118h230l-21 -207h9q146 228 352 228q138 0 213.5 -83.5t75.5 -238.5q0 -73 -23 -180zM383 1569h198q63 -53 162 -168q115 94 232 168h217v-25q-212 -198 -295 -303h-338 q-22 54 -74 142.5t-102 160.5v25z" glyph-name="ncaron" horiz-adv-x="1237" unicode="ň"/><glyph d="M1186 0h-301l137 653q16 68 16 119q0 123 -108 123q-92 0 -167 -114t-118 -318l-98 -463h-301l237 1118h230l-21 -207h9q146 228 352 228q138 0 213.5 -83.5t75.5 -238.5q0 -73 -23 -180zM532 1462l8 -22q-103 -227 -262 -479h-226q89 206 195 501h285z" glyph-name="napostrophe" horiz-adv-x="1446" unicode="ŉ"/><glyph d="M727 -430q-120 0 -190 24v242q90 -22 161 -22q111 0 174 43t95 143l-418 1106h-8l-8 -59q-32 -224 -60 -359l-145 -688h-275l309 1462h330l381 -985h10l12 80q29 200 56 317l131 588h274l-309 -1462q-46 -215 -178.5 -322.5t-341.5 -107.5z" glyph-name="Eng" horiz-adv-x="1546" unicode="Ŋ"/><glyph d="M547 -492q-104 0 -174 25v242q61 -21 114 -21q61 0 107.5 40.5t64.5 129.5l154 729q16 68 16 119q0 123 -108 123q-92 0 -167 -114t-118 -318l-98 -463h-301l237 1118h228l-21 -207h8q146 228 355 228q138 0 213.5 -83.5t75.5 -238.5q0 -73 -23 -180l-158 -754 q-41 -192 -141.5 -283.5t-263.5 -91.5z" glyph-name="eng" horiz-adv-x="1237" unicode="ŋ"/><glyph d="M1432 938q0 -283 -99 -506.5t-271 -337.5t-396 -114q-256 0 -399.5 147.5t-143.5 409.5q0 265 99 487.5t273 341.5t402 119q255 0 395 -144t140 -403zM872 1227q-121 0 -222 -91.5t-158.5 -251.5t-57.5 -347q0 -147 66.5 -222t187.5 -75t220.5 87t155.5 246t56 357 q0 142 -65 219.5t-183 77.5zM668 1790h619l-45 -211h-619z" glyph-name="Omacron" horiz-adv-x="1495" unicode="Ō"/><glyph d="M805 696q0 197 -143 197q-75 0 -134.5 -61t-97 -179t-37.5 -243q0 -185 150 -185q75 0 135 61.5t93.5 171t33.5 238.5zM1108 696q0 -211 -70.5 -374t-203.5 -252.5t-316 -89.5q-195 0 -311.5 117.5t-116.5 312.5q0 213 71.5 379.5t206.5 258t316 91.5q196 0 310 -118 t114 -325zM444 1452h619l-45 -211h-619z" glyph-name="omacron" horiz-adv-x="1198" unicode="ō"/><glyph d="M1432 938q0 -283 -99 -506.5t-271 -337.5t-396 -114q-256 0 -399.5 147.5t-143.5 409.5q0 265 99 487.5t273 341.5t402 119q255 0 395 -144t140 -403zM872 1227q-121 0 -222 -91.5t-158.5 -251.5t-57.5 -347q0 -147 66.5 -222t187.5 -75t220.5 87t155.5 246t56 357 q0 142 -65 219.5t-183 77.5zM1323 1917q-55 -338 -393 -338q-153 0 -238.5 73t-85.5 199q0 38 6 66h174q0 -65 36.5 -95t117.5 -30q78 0 127.5 27t66.5 98h189z" glyph-name="Obreve" horiz-adv-x="1495" unicode="Ŏ"/><glyph d="M805 696q0 197 -143 197q-75 0 -134.5 -61t-97 -179t-37.5 -243q0 -185 150 -185q75 0 135 61.5t93.5 171t33.5 238.5zM1108 696q0 -211 -70.5 -374t-203.5 -252.5t-316 -89.5q-195 0 -311.5 117.5t-116.5 312.5q0 213 71.5 379.5t206.5 258t316 91.5q196 0 310 -118 t114 -325zM1111 1579q-55 -338 -393 -338q-153 0 -238.5 73t-85.5 199q0 38 6 66h174q0 -65 36.5 -95t117.5 -30q78 0 127.5 27t66.5 98h189z" glyph-name="obreve" horiz-adv-x="1198" unicode="ŏ"/><glyph d="M1432 938q0 -283 -99 -506.5t-271 -337.5t-396 -114q-256 0 -399.5 147.5t-143.5 409.5q0 265 99 487.5t273 341.5t402 119q255 0 395 -144t140 -403zM872 1227q-121 0 -222 -91.5t-158.5 -251.5t-57.5 -347q0 -147 66.5 -222t187.5 -75t220.5 87t155.5 246t56 357 q0 142 -65 219.5t-183 77.5zM601 1604q114 128 231 303h305v-17q-43 -53 -152.5 -147.5t-205.5 -163.5h-178v25zM998 1604q114 128 231 303h305v-17q-43 -53 -152.5 -147.5t-205.5 -163.5h-178v25z" glyph-name="Ohungarumlaut" horiz-adv-x="1495" unicode="Ő"/><glyph d="M805 696q0 197 -143 197q-75 0 -134.5 -61t-97 -179t-37.5 -243q0 -185 150 -185q75 0 135 61.5t93.5 171t33.5 238.5zM1108 696q0 -211 -70.5 -374t-203.5 -252.5t-316 -89.5q-195 0 -311.5 117.5t-116.5 312.5q0 213 71.5 379.5t206.5 258t316 91.5q196 0 310 -118 t114 -325zM375 1266q114 128 231 303h305v-17q-43 -53 -152.5 -147.5t-205.5 -163.5h-178v25zM772 1266q114 128 231 303h305v-17q-43 -53 -152.5 -147.5t-205.5 -163.5h-178v25z" glyph-name="ohungarumlaut" horiz-adv-x="1198" unicode="ő"/><glyph d="M1606 0h-760q-93 -20 -180 -20q-256 0 -399.5 147.5t-143.5 409.5q0 265 99 487.5t273 341.5t402 119q140 0 209 -23h809l-53 -254h-512l-68 -321h477l-55 -254h-477l-80 -377h512zM688 240q88 0 158 32l194 916q-62 39 -168 39q-121 0 -222 -91.5t-158.5 -251.5 t-57.5 -347q0 -147 66.5 -222t187.5 -75z" glyph-name="OE" horiz-adv-x="1845" unicode="Œ"/><glyph d="M1198 -20q-116 0 -208 38.5t-138 106.5q-63 -68 -147 -106.5t-207 -38.5q-187 0 -297.5 117t-110.5 317q0 216 69 380.5t200 254.5t309 90q209 0 313 -160q154 160 399 160q177 0 276 -81.5t99 -223.5q0 -187 -167 -288.5t-476 -101.5h-51l-2 -21v-20q0 -91 51 -143.5 t147 -52.5q87 0 158 19t172 67v-227q-93 -46 -185.5 -66t-203.5 -20zM645 893q-71 0 -127 -60.5t-90.5 -176.5t-34.5 -242q0 -91 36.5 -140t109.5 -49q109 0 179 134.5t70 336.5q0 96 -37 146.5t-106 50.5zM1362 922q-88 0 -165.5 -78.5t-102.5 -196.5h45q155 0 241 48.5 t86 131.5q0 95 -104 95z" glyph-name="oe" horiz-adv-x="1806" unicode="œ"/><glyph d="M530 813h78q131 0 204 57t73 174q0 82 -47.5 123t-149.5 41h-74zM477 561l-119 -561h-305l309 1462h359q237 0 356 -102t119 -299q0 -158 -83 -271.5t-239 -168.5l261 -621h-332l-207 561h-119zM645 1604q79 88 222 303h335v-17q-46 -56 -154 -152.5t-194 -158.5h-209v25 z" glyph-name="Racute" horiz-adv-x="1247" unicode="Ŕ"/><glyph d="M842 1139q59 0 96 -11l-66 -290q-45 16 -100 16q-116 0 -203.5 -91.5t-124.5 -262.5l-106 -500h-301l237 1118h230l-21 -207h11q145 228 348 228zM459 1266q79 88 222 303h335v-17q-46 -56 -154 -152.5t-194 -158.5h-209v25z" glyph-name="racute" horiz-adv-x="862" unicode="ŕ"/><glyph d="M530 813h78q131 0 204 57t73 174q0 82 -47.5 123t-149.5 41h-74zM477 561l-119 -561h-305l309 1462h359q237 0 356 -102t119 -299q0 -158 -83 -271.5t-239 -168.5l261 -621h-332l-207 561h-119zM299 -426q25 51 65.5 147.5t59.5 153.5h282v-20q-33 -62 -95.5 -146.5 t-131.5 -161.5h-180v27z" glyph-name="Rcommaaccent" horiz-adv-x="1247" unicode="Ŗ"/><glyph d="M842 1139q59 0 96 -11l-66 -290q-45 16 -100 16q-116 0 -203.5 -91.5t-124.5 -262.5l-106 -500h-301l237 1118h230l-21 -207h11q145 228 348 228zM-95 -426q25 51 65.5 147.5t59.5 153.5h282v-20q-33 -62 -95.5 -146.5t-131.5 -161.5h-180v27z" glyph-name="rcommaaccent" horiz-adv-x="862" unicode="ŗ"/><glyph d="M530 813h78q131 0 204 57t73 174q0 82 -47.5 123t-149.5 41h-74zM477 561l-119 -561h-305l309 1462h359q237 0 356 -102t119 -299q0 -158 -83 -271.5t-239 -168.5l261 -621h-332l-207 561h-119zM443 1907h198q63 -53 162 -168q115 94 232 168h217v-25 q-212 -198 -295 -303h-338q-22 54 -74 142.5t-102 160.5v25z" glyph-name="Rcaron" horiz-adv-x="1247" unicode="Ř"/><glyph d="M842 1139q59 0 96 -11l-66 -290q-45 16 -100 16q-116 0 -203.5 -91.5t-124.5 -262.5l-106 -500h-301l237 1118h230l-21 -207h11q145 228 348 228zM259 1569h198q63 -53 162 -168q115 94 232 168h217v-25q-212 -198 -295 -303h-338q-22 54 -74 142.5t-102 160.5v25z" glyph-name="rcaron" horiz-adv-x="862" unicode="ř"/><glyph d="M946 432q0 -209 -148 -330.5t-401 -121.5q-221 0 -356 90v274q193 -108 358 -108q112 0 175 42.5t63 116.5q0 43 -13.5 75.5t-38.5 60.5t-124 102q-138 99 -194 196t-56 209q0 129 62 230.5t176.5 158t263.5 56.5q217 0 397 -99l-109 -233q-156 74 -288 74 q-83 0 -136 -45t-53 -119q0 -61 33 -106.5t148 -120.5q121 -80 181 -176.5t60 -225.5zM587 1604q79 88 222 303h335v-17q-46 -56 -154 -152.5t-194 -158.5h-209v25z" glyph-name="Sacute" horiz-adv-x="1085" unicode="Ś"/><glyph d="M829 369q0 -188 -124.5 -288.5t-346.5 -100.5q-107 0 -186.5 15t-148.5 50v248q157 -90 319 -90q80 0 131 32.5t51 88.5q0 43 -37 77t-131 86q-121 68 -169 135.5t-48 159.5q0 170 110.5 263.5t315.5 93.5q201 0 363 -95l-99 -215q-140 84 -258 84q-57 0 -92 -25.5 t-35 -68.5q0 -39 32 -68.5t120 -74.5q123 -63 178 -137t55 -170zM443 1266q79 88 222 303h335v-17q-46 -56 -154 -152.5t-194 -158.5h-209v25z" glyph-name="sacute" horiz-adv-x="969" unicode="ś"/><glyph d="M946 432q0 -209 -148 -330.5t-401 -121.5q-221 0 -356 90v274q193 -108 358 -108q112 0 175 42.5t63 116.5q0 43 -13.5 75.5t-38.5 60.5t-124 102q-138 99 -194 196t-56 209q0 129 62 230.5t176.5 158t263.5 56.5q217 0 397 -99l-109 -233q-156 74 -288 74 q-83 0 -136 -45t-53 -119q0 -61 33 -106.5t148 -120.5q121 -80 181 -176.5t60 -225.5zM1124 1579h-198q-63 53 -162 168q-105 -88 -232 -168h-217v25q63 57 153 147t142 156h338q22 -54 74 -142.5t102 -160.5v-25z" glyph-name="Scircumflex" horiz-adv-x="1085" unicode="Ŝ"/><glyph d="M829 369q0 -188 -124.5 -288.5t-346.5 -100.5q-107 0 -186.5 15t-148.5 50v248q157 -90 319 -90q80 0 131 32.5t51 88.5q0 43 -37 77t-131 86q-121 68 -169 135.5t-48 159.5q0 170 110.5 263.5t315.5 93.5q201 0 363 -95l-99 -215q-140 84 -258 84q-57 0 -92 -25.5 t-35 -68.5q0 -39 32 -68.5t120 -74.5q123 -63 178 -137t55 -170zM980 1241h-198q-63 53 -162 168q-105 -88 -232 -168h-217v25q63 57 153 147t142 156h338q22 -54 74 -142.5t102 -160.5v-25z" glyph-name="scircumflex" horiz-adv-x="969" unicode="ŝ"/><glyph d="M946 432q0 -209 -148 -330.5t-401 -121.5q-221 0 -356 90v274q193 -108 358 -108q112 0 175 42.5t63 116.5q0 43 -13.5 75.5t-38.5 60.5t-124 102q-138 99 -194 196t-56 209q0 129 62 230.5t176.5 158t263.5 56.5q217 0 397 -99l-109 -233q-156 74 -288 74 q-83 0 -136 -45t-53 -119q0 -61 33 -106.5t148 -120.5q121 -80 181 -176.5t60 -225.5zM618 -250q0 -116 -83 -179t-234 -63q-86 0 -152 23v168q63 -23 125 -23q102 0 102 82q0 34 -31 56.5t-110 31.5l96 154h185l-39 -72q141 -49 141 -178z" glyph-name="Scedilla" horiz-adv-x="1085" unicode="Ş"/><glyph d="M829 369q0 -188 -124.5 -288.5t-346.5 -100.5q-107 0 -186.5 15t-148.5 50v248q157 -90 319 -90q80 0 131 32.5t51 88.5q0 43 -37 77t-131 86q-121 68 -169 135.5t-48 159.5q0 170 110.5 263.5t315.5 93.5q201 0 363 -95l-99 -215q-140 84 -258 84q-57 0 -92 -25.5 t-35 -68.5q0 -39 32 -68.5t120 -74.5q123 -63 178 -137t55 -170zM565 -250q0 -116 -83 -179t-234 -63q-86 0 -152 23v168q63 -23 125 -23q102 0 102 82q0 34 -31 56.5t-110 31.5l96 154h185l-39 -72q141 -49 141 -178z" glyph-name="scedilla" horiz-adv-x="969" unicode="ş"/><glyph d="M946 432q0 -209 -148 -330.5t-401 -121.5q-221 0 -356 90v274q193 -108 358 -108q112 0 175 42.5t63 116.5q0 43 -13.5 75.5t-38.5 60.5t-124 102q-138 99 -194 196t-56 209q0 129 62 230.5t176.5 158t263.5 56.5q217 0 397 -99l-109 -233q-156 74 -288 74 q-83 0 -136 -45t-53 -119q0 -61 33 -106.5t148 -120.5q121 -80 181 -176.5t60 -225.5zM362 1907h198q63 -53 162 -168q115 94 232 168h217v-25q-212 -198 -295 -303h-338q-22 54 -74 142.5t-102 160.5v25z" glyph-name="Scaron" horiz-adv-x="1085" unicode="Š"/><glyph d="M829 369q0 -188 -124.5 -288.5t-346.5 -100.5q-107 0 -186.5 15t-148.5 50v248q157 -90 319 -90q80 0 131 32.5t51 88.5q0 43 -37 77t-131 86q-121 68 -169 135.5t-48 159.5q0 170 110.5 263.5t315.5 93.5q201 0 363 -95l-99 -215q-140 84 -258 84q-57 0 -92 -25.5 t-35 -68.5q0 -39 32 -68.5t120 -74.5q123 -63 178 -137t55 -170zM249 1569h198q63 -53 162 -168q115 94 232 168h217v-25q-212 -198 -295 -303h-338q-22 54 -74 142.5t-102 160.5v25z" glyph-name="scaron" horiz-adv-x="969" unicode="š"/><glyph d="M571 0h-305l254 1204h-352l55 258h1010l-55 -258h-353zM127 -426q25 51 65.5 147.5t59.5 153.5h282v-20q-33 -62 -95.5 -146.5t-131.5 -161.5h-180v27z" glyph-name="uni021A" horiz-adv-x="1087" unicode="Ț"/><glyph d="M514 223q65 0 162 35v-225q-111 -53 -266 -53q-150 0 -220.5 63t-70.5 195q0 50 12 112l115 539h-152l29 147l196 84l132 236h194l-49 -238h283l-50 -229h-282l-115 -539q-6 -30 -6 -53q0 -74 88 -74zM56 -426q25 51 65.5 147.5t59.5 153.5h282v-20q-33 -62 -95.5 -146.5 t-131.5 -161.5h-180v27z" glyph-name="uni021B" horiz-adv-x="840" unicode="ț"/><glyph d="M571 0h-305l254 1204h-352l55 258h1010l-55 -258h-353zM397 1907h198q63 -53 162 -168q115 94 232 168h217v-25q-212 -198 -295 -303h-338q-22 54 -74 142.5t-102 160.5v25z" glyph-name="Tcaron" horiz-adv-x="1087" unicode="Ť"/><glyph d="M514 223q65 0 162 35v-225q-111 -53 -266 -53q-150 0 -220.5 63t-70.5 195q0 50 12 112l115 539h-152l29 147l196 84l132 236h194l-49 -238h283l-50 -229h-282l-115 -539q-6 -30 -6 -53q0 -74 88 -74zM752 1275q83 178 124 301h283v-20q-30 -57 -96.5 -147.5 t-130.5 -159.5h-180v26z" glyph-name="tcaron" horiz-adv-x="840" unicode="ť"/><glyph d="M750 850h235l-55 -254h-234l-125 -596h-305l125 596h-225l55 254h223l76 354h-352l55 258h1010l-55 -258h-353z" glyph-name="Tbar" horiz-adv-x="1087" unicode="Ŧ"/><glyph d="M514 223q65 0 162 35v-225q-111 -53 -266 -53q-150 0 -220.5 63t-70.5 195q0 66 12 112l33 148h-133l41 198h133l41 193h-152l29 147l196 84l132 236h194l-49 -238h283l-50 -229h-282l-41 -193h233l-41 -198h-235l-31 -148q-6 -30 -6 -53q0 -74 88 -74z" glyph-name="tbar" horiz-adv-x="840" unicode="ŧ"/><glyph d="M1434 1462l-201 -946q-57 -266 -218 -401t-419 -135q-212 0 -333.5 113.5t-121.5 307.5q0 72 15 138l196 923h305l-194 -919q-17 -74 -17 -125q0 -178 189 -178q123 0 195 76.5t104 228.5l194 917h306zM1071 1579q-49 0 -86.5 16.5t-69.5 36t-61.5 36t-62.5 16.5 q-31 0 -55.5 -28t-38.5 -79h-177q59 309 281 309q49 0 87.5 -16.5t71.5 -36t62 -35.5t60 -16q34 0 58 25.5t46 80.5h172q-66 -309 -287 -309z" glyph-name="Utilde" horiz-adv-x="1415" unicode="Ũ"/><glyph d="M262 1118h301l-137 -653q-16 -68 -16 -119q0 -123 108 -123q92 0 167 114t118 318l98 463h301l-237 -1118h-230l21 207h-11q-145 -227 -350 -227q-138 0 -211 82.5t-73 238.5q0 93 24 213zM915 1241q-49 0 -86.5 16.5t-69.5 36t-61.5 36t-62.5 16.5q-31 0 -55.5 -28 t-38.5 -79h-177q59 309 281 309q49 0 87.5 -16.5t71.5 -36t62 -35.5t60 -16q34 0 58 25.5t46 80.5h172q-66 -309 -287 -309z" glyph-name="utilde" horiz-adv-x="1237" unicode="ũ"/><glyph d="M1434 1462l-201 -946q-57 -266 -218 -401t-419 -135q-212 0 -333.5 113.5t-121.5 307.5q0 72 15 138l196 923h305l-194 -919q-17 -74 -17 -125q0 -178 189 -178q123 0 195 76.5t104 228.5l194 917h306zM647 1790h619l-45 -211h-619z" glyph-name="Umacron" horiz-adv-x="1415" unicode="Ū"/><glyph d="M262 1118h301l-137 -653q-16 -68 -16 -119q0 -123 108 -123q92 0 167 114t118 318l98 463h301l-237 -1118h-230l21 207h-11q-145 -227 -350 -227q-138 0 -211 82.5t-73 238.5q0 93 24 213zM487 1452h619l-45 -211h-619z" glyph-name="umacron" horiz-adv-x="1237" unicode="ū"/><glyph d="M1434 1462l-201 -946q-57 -266 -218 -401t-419 -135q-212 0 -333.5 113.5t-121.5 307.5q0 72 15 138l196 923h305l-194 -919q-17 -74 -17 -125q0 -178 189 -178q123 0 195 76.5t104 228.5l194 917h306zM1309 1917q-55 -338 -393 -338q-153 0 -238.5 73t-85.5 199 q0 38 6 66h174q0 -65 36.5 -95t117.5 -30q78 0 127.5 27t66.5 98h189z" glyph-name="Ubreve" horiz-adv-x="1415" unicode="Ŭ"/><glyph d="M262 1118h301l-137 -653q-16 -68 -16 -119q0 -123 108 -123q92 0 167 114t118 318l98 463h301l-237 -1118h-230l21 207h-11q-145 -227 -350 -227q-138 0 -211 82.5t-73 238.5q0 93 24 213zM1161 1579q-55 -338 -393 -338q-153 0 -238.5 73t-85.5 199q0 38 6 66h174 q0 -65 36.5 -95t117.5 -30q78 0 127.5 27t66.5 98h189z" glyph-name="ubreve" horiz-adv-x="1237" unicode="ŭ"/><glyph d="M1434 1462l-201 -946q-57 -266 -218 -401t-419 -135q-212 0 -333.5 113.5t-121.5 307.5q0 72 15 138l196 923h305l-194 -919q-17 -74 -17 -125q0 -178 189 -178q123 0 195 76.5t104 228.5l194 917h306zM1194 1817q0 -107 -70 -173.5t-184 -66.5q-110 0 -179 63.5 t-69 174.5q0 109 68.5 173t179.5 64q110 0 182 -65t72 -170zM1037 1815q0 45 -27.5 70.5t-69.5 25.5t-69 -25.5t-27 -70.5t24 -71t72 -26q42 0 69.5 26t27.5 71z" glyph-name="Uring" horiz-adv-x="1415" unicode="Ů"/><glyph d="M262 1118h301l-137 -653q-16 -68 -16 -119q0 -123 108 -123q92 0 167 114t118 318l98 463h301l-237 -1118h-230l21 207h-11q-145 -227 -350 -227q-138 0 -211 82.5t-73 238.5q0 93 24 213zM1034 1479q0 -107 -70 -173.5t-184 -66.5q-110 0 -179 63.5t-69 174.5 q0 109 68.5 173t179.5 64q110 0 182 -65t72 -170zM877 1477q0 45 -27.5 70.5t-69.5 25.5t-69 -25.5t-27 -70.5t24 -71t72 -26q42 0 69.5 26t27.5 71z" glyph-name="uring" horiz-adv-x="1237" unicode="ů"/><glyph d="M1434 1462l-201 -946q-57 -266 -218 -401t-419 -135q-212 0 -333.5 113.5t-121.5 307.5q0 72 15 138l196 923h305l-194 -919q-17 -74 -17 -125q0 -178 189 -178q123 0 195 76.5t104 228.5l194 917h306zM598 1604q114 128 231 303h305v-17q-43 -53 -152.5 -147.5 t-205.5 -163.5h-178v25zM995 1604q114 128 231 303h305v-17q-43 -53 -152.5 -147.5t-205.5 -163.5h-178v25z" glyph-name="Uhungarumlaut" horiz-adv-x="1415" unicode="Ű"/><glyph d="M262 1118h301l-137 -653q-16 -68 -16 -119q0 -123 108 -123q92 0 167 114t118 318l98 463h301l-237 -1118h-230l21 207h-11q-145 -227 -350 -227q-138 0 -211 82.5t-73 238.5q0 93 24 213zM429 1266q114 128 231 303h305v-17q-43 -53 -152.5 -147.5t-205.5 -163.5h-178 v25zM826 1266q114 128 231 303h305v-17q-43 -53 -152.5 -147.5t-205.5 -163.5h-178v25z" glyph-name="uhungarumlaut" horiz-adv-x="1237" unicode="ű"/><glyph d="M1434 1462l-201 -946q-57 -266 -218 -401t-419 -135q-212 0 -333.5 113.5t-121.5 307.5q0 72 15 138l196 923h305l-194 -919q-17 -74 -17 -125q0 -178 189 -178q123 0 195 76.5t104 228.5l194 917h306zM777 0q-119 -96 -155 -148t-36 -102q0 -28 16 -43.5t44 -15.5 q44 0 102 18v-176q-84 -25 -164 -25q-102 0 -161.5 53.5t-59.5 141.5q0 82 47.5 151t167.5 146h199z" glyph-name="Uogonek" horiz-adv-x="1415" unicode="Ų"/><glyph d="M262 1118h301l-137 -653q-16 -68 -16 -119q0 -123 108 -123q92 0 167 114t118 318l98 463h301l-237 -1118h-230l21 207h-11q-145 -227 -350 -227q-138 0 -211 82.5t-73 238.5q0 93 24 213zM934 0q-119 -96 -155 -148t-36 -102q0 -28 16 -43.5t44 -15.5q44 0 102 18v-176 q-84 -25 -164 -25q-102 0 -161.5 53.5t-59.5 141.5q0 82 47.5 151t167.5 146h199z" glyph-name="uogonek" horiz-adv-x="1237" unicode="ų"/><glyph d="M1004 1018q-52 -163 -113 -299l-324 -719h-338l-45 1462h287l6 -798q0 -52 -4 -173t-10 -174h8q33 93 73.5 198t51.5 128l369 819h270l21 -873q0 -146 -9 -272h8q53 159 129 349l330 796h309l-647 -1462h-346l-22 721l-2 113q0 94 6 184h-8zM1519 1579h-198 q-63 53 -162 168q-105 -88 -232 -168h-217v25q63 57 153 147t142 156h338q22 -54 74 -142.5t102 -160.5v-25z" glyph-name="Wcircumflex" horiz-adv-x="1831" unicode="Ŵ"/><glyph d="M850 860q-90 -255 -117 -319l-233 -541h-324l-51 1118h281l4 -495q0 -209 -11 -338h9q12 44 46 140t60 157l231 536h328v-536q0 -193 -10 -297h10q81 250 119 338l219 495h307l-530 -1118h-330l-6 520q0 155 10 340h-12zM1321 1241h-198q-63 53 -162 168 q-105 -88 -232 -168h-217v25q63 57 153 147t142 156h338q22 -54 74 -142.5t102 -160.5v-25z" glyph-name="wcircumflex" horiz-adv-x="1614" unicode="ŵ"/><glyph d="M627 870l374 592h342l-618 -903l-119 -559h-303l119 559l-236 903h312zM1151 1579h-198q-63 53 -162 168q-105 -88 -232 -168h-217v25q63 57 153 147t142 156h338q22 -54 74 -142.5t102 -160.5v-25z" glyph-name="Ycircumflex" horiz-adv-x="1155" unicode="Ŷ"/><glyph d="M102 1118h295l56 -518q12 -105 12 -293h8q20 51 44 119.5t65 153.5l260 538h327l-680 -1278q-177 -332 -483 -332q-90 0 -147 19v240q68 -13 116 -13q84 0 147.5 48t117.5 149l26 49zM1033 1241h-198q-63 53 -162 168q-105 -88 -232 -168h-217v25q63 57 153 147t142 156 h338q22 -54 74 -142.5t102 -160.5v-25z" glyph-name="ycircumflex" horiz-adv-x="1063" unicode="ŷ"/><glyph d="M627 870l374 592h342l-618 -903l-119 -559h-303l119 559l-236 903h312zM451 1720q0 78 39.5 118t111.5 40q125 0 125 -108q0 -73 -36 -116.5t-113 -43.5q-127 0 -127 110zM834 1720q0 78 39.5 118t111.5 40q125 0 125 -108q0 -73 -36 -116.5t-113 -43.5q-127 0 -127 110z" glyph-name="Ydieresis" horiz-adv-x="1155" unicode="Ÿ"/><glyph d="M920 0h-981l38 201l777 1005h-543l53 256h936l-41 -202l-782 -1004h596zM589 1604q79 88 222 303h335v-17q-46 -56 -154 -152.5t-194 -158.5h-209v25z" glyph-name="Zacute" horiz-adv-x="1098" unicode="Ź"/><glyph d="M748 0h-795l35 180l575 705h-397l51 233h750l-43 -200l-566 -685h439zM476 1266q79 88 222 303h335v-17q-46 -56 -154 -152.5t-194 -158.5h-209v25z" glyph-name="zacute" horiz-adv-x="932" unicode="ź"/><glyph d="M920 0h-981l38 201l777 1005h-543l53 256h936l-41 -202l-782 -1004h596zM594 1718q0 87 47.5 131.5t134.5 44.5q73 0 111 -31t38 -89q0 -80 -44 -129.5t-136 -49.5q-151 0 -151 123z" glyph-name="Zdotaccent" horiz-adv-x="1098" unicode="Ż"/><glyph d="M748 0h-795l35 180l575 705h-397l51 233h750l-43 -200l-566 -685h439zM455 1380q0 87 47.5 131.5t134.5 44.5q73 0 111 -31t38 -89q0 -80 -44 -129.5t-136 -49.5q-151 0 -151 123z" glyph-name="zdotaccent" horiz-adv-x="932" unicode="ż"/><glyph d="M920 0h-981l38 201l777 1005h-543l53 256h936l-41 -202l-782 -1004h596zM387 1907h198q63 -53 162 -168q115 94 232 168h217v-25q-212 -198 -295 -303h-338q-22 54 -74 142.5t-102 160.5v25z" glyph-name="Zcaron" horiz-adv-x="1098" unicode="Ž"/><glyph d="M748 0h-795l35 180l575 705h-397l51 233h750l-43 -200l-566 -685h439zM265 1569h198q63 -53 162 -168q115 94 232 168h217v-25q-212 -198 -295 -303h-338q-22 54 -74 142.5t-102 160.5v25z" glyph-name="zcaron" horiz-adv-x="932" unicode="ž"/><glyph d="M-72 -492q-104 0 -174 25v242q61 -21 115 -21q136 0 172 170l272 1278q42 192 139.5 278.5t272.5 86.5q129 0 236 -49l-80 -224q-69 31 -133 31q-57 0 -91.5 -40t-48.5 -105l-276 -1301q-77 -371 -404 -371z" glyph-name="longs" horiz-adv-x="733" unicode="ſ"/><glyph d="M143 -492q-104 0 -174 25v242q61 -21 115 -21q136 0 172 170l186 881h-168l29 149l189 80l18 84q41 190 138.5 277.5t273.5 87.5q131 0 235 -49l-80 -224q-69 31 -133 31q-57 0 -92 -40t-47 -105l-12 -62h219l-49 -229h-220l-196 -926q-77 -371 -404 -371z" glyph-name="florin" horiz-adv-x="1128" unicode="ƒ"/><glyph d="M1085 1462q0 -112 -77 -180l155 -1282h-297l-30 330h-469l-170 -330h-320l731 1346q-24 48 -24 114q0 110 68 174t179 64q110 0 182 -65t72 -171zM768 1767q36 27 102.5 87.5t108.5 107.5h342v-10q-58 -49 -156 -105t-182 -94h-215v14zM928 1460q0 45 -27.5 70.5 t-69.5 25.5t-69 -25.5t-27 -70.5t24 -70.5t72 -25.5q42 0 69.5 25.5t27.5 70.5zM768 1149q-43 -111 -96 -217l-174 -342h323l-26 309q-10 85 -15 250h-12zM491 1462z" glyph-name="Aringacute" horiz-adv-x="1286" unicode="Ǻ"/><glyph d="M680 1767q39 31 106 92t105 103h342v-10q-58 -49 -156 -105t-182 -94h-215v14zM995 1438q0 -107 -70 -173.5t-184 -66.5q-112 0 -179.5 64.5t-67.5 173.5q0 108 67.5 172.5t179.5 64.5q110 0 182 -65t72 -170zM838 1436q0 45 -27.5 70.5t-69.5 25.5t-69 -25.5t-27 -70.5 t24 -71t72 -26q42 0 69.5 26t27.5 71zM406 -20q-147 0 -231.5 106.5t-84.5 298.5q0 198 72 377.5t189 278t257 98.5q97 0 167.5 -42t109.5 -122h8l57 143h232l-238 -1118h-225l14 145h-8q-134 -165 -319 -165zM524 223q69 0 133 67t103 181.5t39 259.5q0 71 -38.5 117.5 t-101.5 46.5q-68 0 -129.5 -72t-98 -190t-36.5 -234q0 -88 33.5 -132t95.5 -44zM702 2189z" glyph-name="aringacute" horiz-adv-x="1217" unicode="ǻ"/><glyph d="M1593 0h-817l74 348h-426l-219 -348h-328l922 1462h1104l-54 -254h-512l-67 -321h477l-55 -254h-478l-79 -377h512zM905 608l127 600h-80l-364 -600h317zM1128 1604q79 88 222 303h335v-17q-46 -56 -154 -152.5t-194 -158.5h-209v25z" glyph-name="AEacute" horiz-adv-x="1833" unicode="Ǽ"/><glyph d="M1206 -20q-109 0 -179.5 27t-117.5 87l-16 -94h-188l14 145h-10q-74 -92 -148 -128.5t-162 -36.5q-146 0 -227.5 109t-81.5 296q0 200 68.5 375.5t185 277t258.5 101.5q93 0 156 -37.5t114 -126.5h11l57 143h188l-18 -90q44 49 120.5 80t168.5 31q157 0 246.5 -83.5 t89.5 -221.5q0 -187 -167 -288.5t-476 -101.5h-52l-2 -19v-19q0 -96 55.5 -147.5t159.5 -51.5q66 0 152 23t162 63v-227q-179 -86 -361 -86zM518 223q72 0 134.5 69.5t99 186.5t36.5 240q0 80 -33 128t-102 48q-68 0 -128 -69t-95 -185.5t-35 -241.5q0 -84 32.5 -130 t90.5 -46zM1341 922q-88 0 -166 -80t-102 -195h45q155 0 241.5 48.5t86.5 131.5q0 95 -105 95zM948 1266q79 88 222 303h335v-17q-46 -56 -154 -152.5t-194 -158.5h-209v25z" glyph-name="aeacute" horiz-adv-x="1786" unicode="ǽ"/><glyph d="M1432 938q0 -283 -99 -506.5t-271 -337.5t-396 -114q-180 0 -304 71l-108 -137l-154 115l121 151q-98 138 -98 357q0 265 99 487.5t273 341.5t402 119q182 0 305 -76l105 131l151 -117l-117 -145q91 -134 91 -340zM870 1233q-126 0 -229 -91.5t-160 -252.5t-57 -352 q0 -32 8 -101l596 754q-69 43 -158 43zM1133 930l-5 80l-589 -740q59 -37 153 -37q124 0 226 89t158.5 247.5t56.5 360.5zM753 1604q79 88 222 303h335v-17q-46 -56 -154 -152.5t-194 -158.5h-209v25z" glyph-name="Oslashacute" horiz-adv-x="1495" unicode="Ǿ"/><glyph d="M1108 696q0 -211 -70.5 -374t-203.5 -252.5t-316 -89.5q-123 0 -225 53l-109 -135l-141 108l119 148q-72 107 -72 256q0 213 71.5 379.5t206.5 258t316 91.5q131 0 227 -56l70 88l145 -110l-84 -105q66 -107 66 -260zM662 903q-82 0 -143.5 -57t-97.5 -172.5t-36 -247.5 l365 453q-35 24 -88 24zM543 215q73 0 132.5 55t98 167t41.5 245l-358 -444q11 -8 35.5 -15.5t50.5 -7.5zM555 1266q79 88 222 303h335v-17q-46 -56 -154 -152.5t-194 -158.5h-209v25z" glyph-name="oslashacute" horiz-adv-x="1198" unicode="ǿ"/><glyph d="M946 432q0 -209 -148 -330.5t-401 -121.5q-221 0 -356 90v274q193 -108 358 -108q112 0 175 42.5t63 116.5q0 43 -13.5 75.5t-38.5 60.5t-124 102q-138 99 -194 196t-56 209q0 129 62 230.5t176.5 158t263.5 56.5q217 0 397 -99l-109 -233q-156 74 -288 74 q-83 0 -136 -45t-53 -119q0 -61 33 -106.5t148 -120.5q121 -80 181 -176.5t60 -225.5zM150 -426q25 51 65.5 147.5t59.5 153.5h282v-20q-33 -62 -95.5 -146.5t-131.5 -161.5h-180v27z" glyph-name="Scommaaccent" horiz-adv-x="1085" unicode="Ș"/><glyph d="M829 369q0 -188 -124.5 -288.5t-346.5 -100.5q-107 0 -186.5 15t-148.5 50v248q157 -90 319 -90q80 0 131 32.5t51 88.5q0 43 -37 77t-131 86q-121 68 -169 135.5t-48 159.5q0 170 110.5 263.5t315.5 93.5q201 0 363 -95l-99 -215q-140 84 -258 84q-57 0 -92 -25.5 t-35 -68.5q0 -39 32 -68.5t120 -74.5q123 -63 178 -137t55 -170zM108 -426q25 51 65.5 147.5t59.5 153.5h282v-20q-33 -62 -95.5 -146.5t-131.5 -161.5h-180v27z" glyph-name="scommaaccent" horiz-adv-x="969" unicode="ș"/><glyph d="M1120 1241h-198q-63 53 -162 168q-105 -88 -232 -168h-217v25q63 57 153 147t142 156h338q22 -54 74 -142.5t102 -160.5v-25z" glyph-name="circumflex" horiz-adv-x="1135" unicode="ˆ"/><glyph d="M377 1569h198q63 -53 162 -168q115 94 232 168h217v-25q-212 -198 -295 -303h-338q-22 54 -74 142.5t-102 160.5v25z" glyph-name="caron" horiz-adv-x="1135" unicode="ˇ"/><glyph d="M430 1452h619l-45 -211h-619z" glyph-name="uni02C9" horiz-adv-x="1096" unicode="ˉ"/><glyph d="M1147 1579q-55 -338 -393 -338q-153 0 -238.5 73t-85.5 199q0 38 6 66h174q0 -65 36.5 -95t117.5 -30q78 0 127.5 27t66.5 98h189z" glyph-name="breve" horiz-adv-x="1135" unicode="˘"/><glyph d="M322 1380q0 87 47.5 131.5t134.5 44.5q73 0 111 -31t38 -89q0 -80 -44 -129.5t-136 -49.5q-151 0 -151 123z" glyph-name="dotaccent" horiz-adv-x="608" unicode="˙"/><glyph d="M1034 1479q0 -107 -70 -173.5t-184 -66.5q-110 0 -179 63.5t-69 174.5q0 109 68.5 173t179.5 64q110 0 182 -65t72 -170zM877 1477q0 45 -27.5 70.5t-69.5 25.5t-69 -25.5t-27 -70.5t24 -71t72 -26q42 0 69.5 26t27.5 71z" glyph-name="ring" horiz-adv-x="1182" unicode="˚"/><glyph d="M242 0q-119 -96 -155 -148t-36 -102q0 -28 16 -43.5t44 -15.5q44 0 102 18v-176q-84 -25 -164 -25q-102 0 -161.5 53.5t-59.5 141.5q0 82 47.5 151t167.5 146h199z" glyph-name="ogonek" horiz-adv-x="422" unicode="˛"/><glyph d="M866 1241q-49 0 -86.5 16.5t-69.5 36t-61.5 36t-62.5 16.5q-31 0 -55.5 -28t-38.5 -79h-177q59 309 281 309q49 0 87.5 -16.5t71.5 -36t62 -35.5t60 -16q34 0 58 25.5t46 80.5h172q-66 -309 -287 -309z" glyph-name="tilde" horiz-adv-x="1135" unicode="˜"/><glyph d="M279 1266q114 128 231 303h305v-17q-43 -53 -152.5 -147.5t-205.5 -163.5h-178v25zM676 1266q114 128 231 303h305v-17q-43 -53 -152.5 -147.5t-205.5 -163.5h-178v25z" glyph-name="hungarumlaut" horiz-adv-x="1135" unicode="˝"/><glyph d="M565 1272q76 152 150 358h284v-24q-120 -198 -254 -365h-180v31zM820 1567z" glyph-name="tonos" horiz-adv-x="1135" unicode="΄"/><glyph d="M645 1415q21 42 57.5 134t61.5 167h260v-20q-90 -143 -238 -307h-141v26zM342 1382q0 78 38.5 118t106.5 40q60 0 90.5 -28.5t30.5 -79.5q0 -73 -35.5 -116.5t-109.5 -43.5q-121 0 -121 110zM893 1382q0 78 38.5 118t106.5 40q60 0 90.5 -28.5t30.5 -79.5 q0 -73 -35.5 -116.5t-109.5 -43.5q-121 0 -121 110z" glyph-name="dieresistonos" horiz-adv-x="1135" unicode="΅"/><glyph d="M842 348h-473l-172 -348h-320l766 1468h373l147 -1468h-297zM827 608l-26 350l-5 133l-3 156h-5q-54 -147 -106 -254l-188 -385h333zM74 1167q76 152 150 358h284v-24q-120 -198 -254 -365h-180v31zM329 1462z" glyph-name="Alphatonos" horiz-adv-x="1286" unicode="Ά"/><glyph d="M131 695q0 90 53.5 144t150.5 54q68 0 109 -38t41 -107q0 -87 -55 -141t-144 -54q-73 0 -114 37.5t-41 104.5z" glyph-name="anoteleia" horiz-adv-x="584" unicode="·"/><glyph d="M1017 0h-817l309 1462h818l-54 -254h-512l-67 -321h477l-55 -254h-477l-80 -377h512zM34 1167q76 152 150 358h284v-24q-120 -198 -254 -365h-180v31zM289 1462z" glyph-name="Epsilontonos" horiz-adv-x="1257" unicode="Έ"/><glyph d="M1282 0h-306l134 631h-471l-134 -631h-305l309 1462h306l-121 -573h471l121 573h305zM34 1167q76 152 150 358h284v-24q-120 -198 -254 -365h-180v31zM289 1462z" glyph-name="Etatonos" horiz-adv-x="1581" unicode="Ή"/><glyph d="M846 0h-647l36 176l187 82l201 946l-152 82l37 176h647l-37 -176l-190 -82l-201 -946l156 -82zM34 1167q76 152 150 358h284v-24q-120 -198 -254 -365h-180v31zM289 1462z" glyph-name="Iotatonos" horiz-adv-x="1042" unicode="Ί"/><glyph d="M1551 938q0 -283 -99 -506.5t-271 -337.5t-396 -114q-256 0 -399.5 147.5t-143.5 409.5q0 265 99 487.5t273 341.5t402 119q255 0 395 -144t140 -403zM991 1227q-121 0 -222 -91.5t-158.5 -251.5t-57.5 -347q0 -147 66.5 -222t187.5 -75t220.5 87t155.5 246t56 357 q0 142 -65 219.5t-183 77.5zM62 1167q76 152 150 358h284v-24q-120 -198 -254 -365h-180v31zM317 1462z" glyph-name="Omicrontonos" horiz-adv-x="1614" unicode="Ό"/><glyph d="M938 870l374 592h342l-618 -903l-119 -559h-303l119 559l-236 903h312zM34 1167q76 152 150 358h284v-24q-120 -198 -254 -365h-180v31zM289 1462z" glyph-name="Upsilontonos" horiz-adv-x="1466" unicode="Ύ"/><glyph d="M1005 1227q-115 0 -208.5 -66.5t-152 -191t-58.5 -258.5q0 -160 35.5 -263t109.5 -172l-59 -276h-580l53 260h363q-107 67 -168.5 188.5t-61.5 270.5q0 219 98 398.5t266.5 273.5t385.5 94q173 0 302 -64.5t197 -183t68 -272.5q0 -240 -107.5 -423.5t-310.5 -281.5h365 l-55 -260h-629l59 276q367 215 367 652q0 140 -75 219.5t-204 79.5zM62 1167q76 152 150 358h284v-24q-120 -198 -254 -365h-180v31zM317 1462z" glyph-name="Omegatonos" horiz-adv-x="1647" unicode="Ώ"/><glyph d="M492 223q66 0 161 35v-225q-111 -53 -266 -53q-148 0 -219.5 62.5t-71.5 195.5q0 52 23 157l153 723h301l-155 -741q-12 -59 -12 -82q0 -72 86 -72zM374 1415q21 42 57.5 134t61.5 167h260v-20q-90 -143 -238 -307h-141v26zM71 1382q0 78 38.5 118t106.5 40 q60 0 90.5 -28.5t30.5 -79.5q0 -73 -35.5 -116.5t-109.5 -43.5q-121 0 -121 110zM622 1382q0 78 38.5 118t106.5 40q60 0 90.5 -28.5t30.5 -79.5q0 -73 -35.5 -116.5t-109.5 -43.5q-121 0 -121 110z" glyph-name="iotadieresistonos" horiz-adv-x="752" unicode="ΐ"/><glyph d="M842 348h-473l-172 -348h-320l766 1468h373l147 -1468h-297zM827 608l-26 350l-5 133l-3 156h-5q-54 -147 -106 -254l-188 -385h333z" glyph-name="Alpha" horiz-adv-x="1286" unicode="Α"/><glyph d="M788 1462q229 0 346 -81.5t117 -243.5q0 -150 -83 -246.5t-236 -128.5v-8q100 -26 159.5 -96.5t59.5 -180.5q0 -229 -153 -353t-423 -124h-522l309 1462h426zM545 883h149q121 0 181.5 48.5t60.5 139.5q0 137 -170 137h-152zM412 256h180q117 0 183.5 58t66.5 161 q0 162 -183 162h-165z" glyph-name="Beta" horiz-adv-x="1270" unicode="Β"/><glyph d="M354 0h-301l309 1462h814l-54 -254h-512z" glyph-name="Gamma" horiz-adv-x="1030" unicode="Γ"/><glyph d="M629 1468h352l141 -1294l-39 -174h-1136l35 180zM752 1174q-16 -55 -58 -142l-375 -774h517l-76 758q-8 96 -8 158z" glyph-name="Delta" horiz-adv-x="1239" unicode="Δ"/><glyph d="M870 0h-817l309 1462h818l-54 -254h-512l-67 -321h477l-55 -254h-477l-80 -377h512z" glyph-name="Epsilon" horiz-adv-x="1110" unicode="Ε"/><glyph d="M920 0h-981l38 201l777 1005h-543l53 256h936l-41 -202l-782 -1004h596z" glyph-name="Zeta" horiz-adv-x="1098" unicode="Ζ"/><glyph d="M1135 0h-306l134 631h-471l-134 -631h-305l309 1462h306l-121 -573h471l121 573h305z" glyph-name="Eta" horiz-adv-x="1434" unicode="Η"/><glyph d="M1040 870l-53 -254h-444l53 254h444zM1456 903q0 -270 -93 -483t-266.5 -326.5t-404.5 -113.5q-268 0 -418.5 153.5t-150.5 421.5q0 271 100.5 488t276 329.5t403.5 112.5q263 0 408 -153.5t145 -428.5zM885 1227q-132 0 -234 -84t-159.5 -245t-57.5 -351 q0 -142 73 -224.5t198 -82.5q136 0 235 84.5t152 240.5t53 353q0 142 -69.5 225.5t-190.5 83.5z" glyph-name="Theta" horiz-adv-x="1520" unicode="Θ"/><glyph d="M588 0h-647l36 176l187 82l201 946l-152 82l37 176h647l-37 -176l-190 -82l-201 -946l156 -82z" glyph-name="Iota" horiz-adv-x="784" unicode="Ι"/><glyph d="M1141 0h-338l-211 592l-125 -70l-109 -522h-305l309 1462h306l-154 -706l156 209l413 497h361l-594 -700z" glyph-name="Kappa" horiz-adv-x="1255" unicode="Κ"/><glyph d="M-123 0l748 1468h342l139 -1468h-295l-59 836q-9 113 -9 338l-29 -79q-47 -127 -89 -214l-428 -881h-320z" glyph-name="Lambda" horiz-adv-x="1229" unicode="Λ"/><glyph d="M840 369l549 1093h423l-309 -1462h-280l145 692q36 169 109 441h-9l-569 -1133h-281l-61 1133h-8q-22 -182 -78 -453l-143 -680h-275l309 1462h404l65 -1093h9z" glyph-name="Mu" horiz-adv-x="1802" unicode="Μ"/><glyph d="M1247 0h-342l-356 1106h-10l-8 -59q-27 -214 -58 -359l-145 -688h-275l309 1462h357l340 -1077h8q35 223 68 385l147 692h274z" glyph-name="Nu" horiz-adv-x="1546" unicode="Ν"/><glyph d="M262 887h668l-56 -254h-667zM305 1462h823l-53 -254h-823zM911 256l-53 -256h-901l51 256h903z" glyph-name="Xi" horiz-adv-x="1067" unicode="Ξ"/><glyph d="M1432 938q0 -283 -99 -506.5t-271 -337.5t-396 -114q-256 0 -399.5 147.5t-143.5 409.5q0 265 99 487.5t273 341.5t402 119q255 0 395 -144t140 -403zM872 1227q-121 0 -222 -91.5t-158.5 -251.5t-57.5 -347q0 -147 66.5 -222t187.5 -75t220.5 87t155.5 246t56 357 q0 142 -65 219.5t-183 77.5z" glyph-name="Omicron" horiz-adv-x="1495" unicode="Ο"/><glyph d="M1124 0h-305l256 1204h-461l-256 -1204h-305l309 1462h1072z" glyph-name="Pi" horiz-adv-x="1423" unicode="Π"/><glyph d="M1260 1036q0 -241 -169.5 -378.5t-467.5 -137.5h-156l-109 -520h-305l309 1462h408q242 0 366 -107t124 -319zM522 774h125q142 0 223.5 69t81.5 185q0 93 -48.5 136.5t-145.5 43.5h-144z" glyph-name="Rho" horiz-adv-x="1249" unicode="Ρ"/><glyph d="M-43 0l49 242l543 506l-322 481l49 233h906l-54 -254h-559l318 -481l-500 -471h596l-53 -256h-973z" glyph-name="Sigma" horiz-adv-x="1112" unicode="Σ"/><glyph d="M571 0h-305l254 1204h-352l55 258h1010l-55 -258h-353z" glyph-name="Tau" horiz-adv-x="1087" unicode="Τ"/><glyph d="M627 870l374 592h342l-618 -903l-119 -559h-303l119 559l-236 903h312z" glyph-name="Upsilon" horiz-adv-x="1155" unicode="Υ"/><glyph d="M557 -20l49 223q-147 11 -255.5 69t-168 165.5t-59.5 252.5q0 281 186 440.5t531 172.5l37 180h284l-37 -180q232 -20 358 -145.5t126 -336.5q0 -287 -189.5 -449.5t-527.5 -166.5l-49 -225h-285zM942 444q176 12 268.5 111.5t92.5 265.5q0 109 -59 172.5t-171 67.5z M788 1061q-168 -10 -264 -107t-96 -266q0 -112 59 -176t170 -68z" glyph-name="Phi" horiz-adv-x="1671" unicode="Φ"/><glyph d="M1124 0h-331l-172 543l-396 -543h-342l576 764l-238 698h320l153 -518l363 518h344l-545 -725z" glyph-name="Chi" horiz-adv-x="1241" unicode="Χ"/><glyph d="M967 434h-21l-92 -434h-285l95 434h-15q-222 0 -346.5 103.5t-124.5 287.5q0 89 23 197l94 440h295l-101 -479q-14 -68 -14 -117q0 -98 55.5 -139t167.5 -41h17l164 776h284l-164 -776h17q147 0 222.5 69t109.5 224l102 483h297l-111 -518q-109 -510 -669 -510z" glyph-name="Psi" horiz-adv-x="1671" unicode="Ψ"/><glyph d="M872 1227q-115 0 -208.5 -66.5t-152 -191t-58.5 -258.5q0 -160 35.5 -263t109.5 -172l-59 -276h-580l53 260h363q-107 67 -168.5 188.5t-61.5 270.5q0 219 98 398.5t266.5 273.5t385.5 94q173 0 302 -64.5t197 -183t68 -272.5q0 -240 -107.5 -423.5t-310.5 -281.5h365 l-55 -260h-629l59 276q367 215 367 652q0 140 -75 219.5t-204 79.5z" glyph-name="Omega" horiz-adv-x="1513" unicode="Ω"/><glyph d="M588 0h-647l36 176l187 82l201 946l-152 82l37 176h647l-37 -176l-190 -82l-201 -946l156 -82zM282 1720q0 78 39.5 118t111.5 40q125 0 125 -108q0 -73 -36 -116.5t-113 -43.5q-127 0 -127 110zM665 1720q0 78 39.5 118t111.5 40q125 0 125 -108q0 -73 -36 -116.5 t-113 -43.5q-127 0 -127 110z" glyph-name="Iotadieresis" horiz-adv-x="784" unicode="Ϊ"/><glyph d="M627 870l374 592h342l-618 -903l-119 -559h-303l119 559l-236 903h312zM451 1720q0 78 39.5 118t111.5 40q125 0 125 -108q0 -73 -36 -116.5t-113 -43.5q-127 0 -127 110zM834 1720q0 78 39.5 118t111.5 40q125 0 125 -108q0 -73 -36 -116.5t-113 -43.5q-127 0 -127 110z" glyph-name="Upsilondieresis" horiz-adv-x="1155" unicode="Ϋ"/><glyph d="M889 967q15 31 43.5 78t54.5 73h254q-45 -83 -91.5 -203.5t-72.5 -240.5l-67 -320q-6 -30 -6 -53q0 -65 61 -65q36 0 65 12v-238q-63 -30 -165 -30q-199 0 -244 165h-8q-81 -95 -153.5 -130t-164.5 -35q-145 0 -225 106.5t-80 298.5q0 212 67 385.5t188 271t271 97.5 q89 0 151.5 -39t113.5 -133h8zM528 223q77 0 135 70.5t91.5 205t33.5 220.5q0 80 -32 128t-97 48q-71 0 -131.5 -68t-96.5 -180.5t-36 -232.5q0 -99 32.5 -145t100.5 -46zM633 1272q76 152 150 358h284v-24q-120 -198 -254 -365h-180v31zM888 1567z" glyph-name="alphatonos" horiz-adv-x="1241" unicode="ά"/><glyph d="M762 477h-148q-120 0 -189 -38.5t-69 -106.5q0 -56 45 -86.5t131 -30.5q92 0 175.5 20.5t177.5 69.5v-246q-160 -79 -402 -79q-206 0 -325 77.5t-119 216.5q0 257 328 310v8q-80 31 -123 87.5t-43 127.5q0 158 123 245t344 87q245 0 403 -86l-92 -222q-92 46 -161.5 64 t-141.5 18q-97 0 -149 -32t-52 -93q0 -52 48.5 -76t148.5 -24h135zM562 1272q76 152 150 358h284v-24q-120 -198 -254 -365h-180v31zM817 1567z" glyph-name="epsilontonos" horiz-adv-x="1051" unicode="έ"/><glyph d="M872 -492h-301l242 1145q16 68 16 119q0 123 -108 123q-92 0 -167 -114t-118 -318l-98 -463h-301l237 1118h228l-21 -207h8q146 228 355 228q138 0 213.5 -83.5t75.5 -238.5q0 -73 -23 -180zM631 1272q76 152 150 358h284v-24q-120 -198 -254 -365h-180v31zM886 1567z" glyph-name="etatonos" horiz-adv-x="1237" unicode="ή"/><glyph d="M492 223q66 0 161 35v-225q-111 -53 -266 -53q-148 0 -219.5 62.5t-71.5 195.5q0 52 23 157l153 723h301l-155 -741q-12 -59 -12 -82q0 -72 86 -72zM333 1272q76 152 150 358h284v-24q-120 -198 -254 -365h-180v31zM588 1567z" glyph-name="iotatonos" horiz-adv-x="752" unicode="ί"/><glyph d="M532 -20q-201 0 -307 99t-106 281q0 70 16 150l129 608h299l-129 -616q-14 -61 -14 -121q0 -156 141 -156q309 0 309 893h301q0 -331 -40 -538.5t-117.5 -336t-198 -196t-283.5 -67.5zM657 1415q21 42 57.5 134t61.5 167h260v-20q-90 -143 -238 -307h-141v26zM354 1382 q0 78 38.5 118t106.5 40q60 0 90.5 -28.5t30.5 -79.5q0 -73 -35.5 -116.5t-109.5 -43.5q-121 0 -121 110zM905 1382q0 78 38.5 118t106.5 40q60 0 90.5 -28.5t30.5 -79.5q0 -73 -35.5 -116.5t-109.5 -43.5q-121 0 -121 110z" glyph-name="upsilondieresistonos" horiz-adv-x="1262" unicode="ΰ"/><glyph d="M889 967q15 31 43.5 78t54.5 73h254q-45 -83 -91.5 -203.5t-72.5 -240.5l-67 -320q-6 -30 -6 -53q0 -65 61 -65q36 0 65 12v-238q-63 -30 -165 -30q-199 0 -244 165h-8q-81 -95 -153.5 -130t-164.5 -35q-145 0 -225 106.5t-80 298.5q0 212 67 385.5t188 271t271 97.5 q89 0 151.5 -39t113.5 -133h8zM528 223q77 0 135 70.5t91.5 205t33.5 220.5q0 80 -32 128t-97 48q-71 0 -131.5 -68t-96.5 -180.5t-36 -232.5q0 -99 32.5 -145t100.5 -46z" glyph-name="alpha" horiz-adv-x="1241" unicode="α"/><glyph d="M803 1567q204 0 316 -93t112 -257q0 -176 -92.5 -275t-259.5 -127q125 -23 196.5 -109t71.5 -219q0 -149 -64.5 -268.5t-176.5 -179t-263 -59.5q-79 0 -147 16.5t-144 58.5l-114 -547h-304l345 1635q46 219 172.5 321.5t351.5 102.5zM786 1329q-83 0 -134 -60t-77 -184 l-174 -800q27 -27 79 -44.5t106 -17.5q113 0 178 75.5t65 201.5q0 92 -52.5 138t-151.5 46h-47l51 242h59q110 0 172 68t62 192q0 68 -37 105.5t-99 37.5z" glyph-name="beta" horiz-adv-x="1270" unicode="β"/><glyph d="M381 -492h-322q51 257 183 506l-140 1104h295l39 -500q8 -107 8 -315h9q18 51 43 109t100 211l248 495h323l-551 -1012q-98 -181 -151 -318t-84 -280z" glyph-name="gamma" horiz-adv-x="1049" unicode="γ"/><glyph d="M530 926q-151 126 -151 284q0 166 120 261.5t324 95.5q112 0 210.5 -26.5t197.5 -86.5l-119 -215q-157 102 -287 102q-67 0 -107 -32t-40 -88q0 -30 10 -54t33 -49t127 -110q233 -187 233 -437q0 -271 -156 -431t-431 -160q-202 0 -320.5 105.5t-118.5 287.5 q0 204 124 349.5t351 203.5zM528 225q101 0 168.5 95t67.5 243q0 147 -102 228q-126 -43 -207.5 -150t-81.5 -238q0 -85 38.5 -131.5t116.5 -46.5z" glyph-name="delta" horiz-adv-x="1204" unicode="δ"/><glyph d="M762 477h-148q-120 0 -189 -38.5t-69 -106.5q0 -56 45 -86.5t131 -30.5q92 0 175.5 20.5t177.5 69.5v-246q-160 -79 -402 -79q-206 0 -325 77.5t-119 216.5q0 257 328 310v8q-80 31 -123 87.5t-43 127.5q0 158 123 245t344 87q245 0 403 -86l-92 -222q-92 46 -161.5 64 t-141.5 18q-97 0 -149 -32t-52 -93q0 -52 48.5 -76t148.5 -24h135z" glyph-name="epsilon" horiz-adv-x="1051" unicode="ε"/><glyph d="M90 438q0 156 62.5 293t185.5 271t399 344q-78 -13 -180 -13h-238l50 223h780l-39 -182q-281 -226 -430 -374.5t-217 -271.5t-68 -247q0 -76 43 -129.5t135 -95.5q106 -50 154.5 -89.5t73 -88.5t24.5 -115q0 -91 -43.5 -170.5t-142.5 -171.5h-315q119 119 157.5 177.5 t38.5 103.5q0 34 -28 60t-109 63q-155 70 -224 169.5t-69 243.5zM776 228z" glyph-name="zeta" horiz-adv-x="948" unicode="ζ"/><glyph d="M872 -492h-301l242 1145q16 68 16 119q0 123 -108 123q-92 0 -167 -114t-118 -318l-98 -463h-301l237 1118h228l-21 -207h8q146 228 355 228q138 0 213.5 -83.5t75.5 -238.5q0 -73 -23 -180z" glyph-name="eta" horiz-adv-x="1237" unicode="η"/><glyph d="M492 -20q-191 0 -291.5 114.5t-100.5 333.5q0 138 30 311.5t90 343.5t136 273t178.5 157t243.5 54q190 0 286.5 -116.5t96.5 -336.5q0 -265 -85.5 -563.5t-230 -434.5t-353.5 -136zM514 201q91 0 156 114t121 351h-365q-31 -163 -31 -281q0 -184 119 -184zM754 1346 q-171 0 -279 -453h361q28 154 28 278q0 79 -26.5 127t-83.5 48z" glyph-name="theta" horiz-adv-x="1198" unicode="θ"/><glyph d="M492 223q66 0 161 35v-225q-111 -53 -266 -53q-148 0 -219.5 62.5t-71.5 195.5q0 52 23 157l153 723h301l-155 -741q-12 -59 -12 -82q0 -72 86 -72z" glyph-name="iota" horiz-adv-x="752" unicode="ι"/><glyph d="M920 1118h344l-498 -504l285 -614h-336l-183 420l-120 -72l-74 -348h-301l237 1118h301q-35 -155 -55.5 -247.5t-64.5 -233.5h8z" glyph-name="kappa" horiz-adv-x="1163" unicode="κ"/><glyph d="M520 1061l-10 92q-9 88 -39.5 124t-93.5 36q-44 0 -101 -13l-36 246q87 23 192 23q162 0 249.5 -87.5t113.5 -277.5l102 -766q15 -115 40.5 -158.5t74.5 -43.5q32 0 67 10v-234q-73 -32 -190 -32q-115 0 -175.5 66t-80.5 206l-29 201q-11 73 -18 239q-23 -48 -48 -110.5 t-57 -122.5l-245 -459h-328zM670 1118z" glyph-name="lambda" horiz-adv-x="1171" unicode="λ"/><glyph d="M424 348q0 -60 31.5 -92.5t79.5 -32.5q90 0 162.5 106.5t117.5 319.5l98 469h301l-237 -1118h-225l18 176h-10q-117 -196 -266 -196q-51 0 -89.5 19.5t-58.5 47.5h-10q-13 -105 -20 -148t-80 -391h-304l342 1610h301l-135 -645q-16 -70 -16 -125z" glyph-name="mu" horiz-adv-x="1249" unicode="μ"/><glyph d="M102 1118h295l62 -616q10 -97 10 -230q133 157 219.5 355.5t149.5 490.5h307q-65 -357 -211 -624.5t-395 -493.5h-297z" glyph-name="nu" horiz-adv-x="1126" unicode="ν"/><glyph d="M848 705h-70q-179 0 -281 -64.5t-102 -179.5q0 -68 35 -110.5t143 -94.5q120 -60 163.5 -98t66 -85.5t22.5 -109.5q0 -91 -43.5 -170.5t-142.5 -171.5h-315q113 113 152.5 174t39.5 107q0 38 -29.5 63.5t-103.5 59.5q-152 70 -221.5 163t-69.5 222q0 315 363 409v8 q-96 23 -149.5 80t-53.5 137q0 112 77.5 186t245.5 116q-185 -13 -243 -13h-53l49 223h753l-45 -210h-24q-134 0 -240.5 -32t-159.5 -92t-53 -143q0 -80 58.5 -122t173.5 -42h102zM790 231z" glyph-name="xi" horiz-adv-x="948" unicode="ξ"/><glyph d="M805 696q0 197 -143 197q-75 0 -134.5 -61t-97 -179t-37.5 -243q0 -185 150 -185q75 0 135 61.5t93.5 171t33.5 238.5zM1108 696q0 -211 -70.5 -374t-203.5 -252.5t-316 -89.5q-195 0 -311.5 117.5t-116.5 312.5q0 213 71.5 379.5t206.5 258t316 91.5q196 0 310 -118 t114 -325z" glyph-name="omicron" horiz-adv-x="1198" unicode="ο"/><glyph d="M1174 219q65 0 131 33v-217q-100 -55 -248 -55q-131 0 -201 64t-70 185q0 27 5.5 62t119.5 598h-274l-188 -889h-306l191 889h-240l29 147l196 82h1182l-47 -229h-240l-108 -541q-8 -40 -8 -57q0 -72 76 -72z" glyph-name="pi" horiz-adv-x="1464" unicode="π"/><glyph d="M1128 705q0 -210 -65 -376t-185 -257.5t-274 -91.5q-163 0 -258 124q-9 -82 -25 -170t-88 -426h-299l228 1082q46 216 113 327t174 166.5t264 55.5q195 0 305 -115t110 -319zM694 895q-87 0 -140 -78.5t-87 -241.5l-55 -264q49 -88 149 -88q70 0 127.5 64t96 187 t38.5 235q0 88 -33 137t-96 49z" glyph-name="rho" horiz-adv-x="1219" unicode="ρ"/><glyph d="M395 487q0 -80 39 -133t139 -98q106 -50 154.5 -89.5t73 -88.5t24.5 -115q0 -91 -43.5 -170.5t-142.5 -171.5h-315q113 113 152.5 174t39.5 107q0 40 -31 67.5t-102 59.5q-157 71 -225 170t-68 247q0 190 81.5 355.5t215.5 251.5t303 86t320 -72l-92 -229 q-126 57 -224 57q-84 0 -152 -56t-107.5 -152t-39.5 -200zM768 237z" glyph-name="sigma1" horiz-adv-x="948" unicode="ς"/><glyph d="M1098 590q0 -109 -43.5 -230t-118 -205t-178 -129.5t-234.5 -45.5q-201 0 -317.5 118t-116.5 326q0 211 80 368.5t232.5 241.5t359.5 84h577l-47 -223h-284q37 -45 63.5 -123.5t26.5 -181.5zM735 895q-105 0 -182.5 -60t-118.5 -166.5t-41 -238.5q0 -205 150 -205 q116 0 189 131t73 326q0 111 -41 213h-29z" glyph-name="sigma" horiz-adv-x="1266" unicode="σ"/><glyph d="M645 223q65 0 162 35v-225q-111 -53 -266 -53q-148 0 -219.5 62.5t-71.5 195.5q0 50 12 112l115 539h-283l29 147l190 82h748l-49 -229h-334l-115 -539q-6 -30 -6 -53q0 -74 88 -74z" glyph-name="tau" horiz-adv-x="1022" unicode="τ"/><glyph d="M532 -20q-201 0 -307 99t-106 281q0 70 16 150l129 608h299l-129 -616q-14 -61 -14 -121q0 -156 141 -156q309 0 309 893h301q0 -331 -40 -538.5t-117.5 -336t-198 -196t-283.5 -67.5z" glyph-name="upsilon" horiz-adv-x="1262" unicode="υ"/><glyph d="M397 -492l105 482q-189 25 -300.5 149t-111.5 322q0 197 82.5 355.5t278.5 322.5l196 -170q-140 -142 -195 -258.5t-55 -239.5q0 -109 42 -169t110 -77l110 516q47 210 149 304t277 94q184 0 287 -115t103 -315q0 -209 -84.5 -371t-242 -254.5t-364.5 -101.5l-96 -474 h-291zM836 227q102 16 177 86t115.5 180.5t40.5 241.5q0 178 -94 178q-89 0 -129 -176z" glyph-name="phi" horiz-adv-x="1565" unicode="φ"/><glyph d="M307 1139q124 0 187.5 -70t87.5 -233l26 -183l320 465h332l-574 -774l74 -463q9 -58 33 -87.5t73 -29.5q45 0 103 15v-238q-97 -33 -195 -33q-126 0 -191.5 69.5t-88.5 229.5l-41 281l-385 -580h-328l639 893l-53 334q-13 77 -34 109.5t-63 32.5q-34 0 -73 -15l-52 238 q101 39 203 39z" glyph-name="chi" horiz-adv-x="1130" unicode="χ"/><glyph d="M887 215q196 32 286.5 248.5t90.5 654.5h301q0 -416 -78 -649.5t-239 -354.5t-412 -143l-99 -463h-288l98 463q-209 21 -318.5 120t-109.5 269q0 70 16 150l129 608h299l-129 -616q-14 -61 -14 -121q0 -77 45.5 -121t132.5 -49l285 1343h288z" glyph-name="psi" horiz-adv-x="1655" unicode="ψ"/><glyph d="M438 -20q-166 0 -257 105.5t-91 295.5q0 346 246 737h303q-120 -176 -190 -369.5t-70 -359.5q0 -172 113 -172q70 0 112 59t70 191l63 295h285q-41 -189 -61.5 -286.5t-20.5 -143.5q0 -115 100 -115q72 0 132 78.5t96.5 226t36.5 309.5q0 151 -31 287h285 q30 -125 30 -264q0 -405 -142.5 -639.5t-399.5 -234.5q-218 0 -275 202q-66 -109 -147 -155.5t-187 -46.5z" glyph-name="omega" horiz-adv-x="1679" unicode="ω"/><glyph d="M492 223q66 0 161 35v-225q-111 -53 -266 -53q-148 0 -219.5 62.5t-71.5 195.5q0 52 23 157l153 723h301l-155 -741q-12 -59 -12 -82q0 -72 86 -72zM169 1382q0 78 39.5 118t111.5 40q125 0 125 -108q0 -73 -36 -116.5t-113 -43.5q-127 0 -127 110zM552 1382 q0 78 39.5 118t111.5 40q125 0 125 -108q0 -73 -36 -116.5t-113 -43.5q-127 0 -127 110z" glyph-name="iotadieresis" horiz-adv-x="752" unicode="ϊ"/><glyph d="M532 -20q-201 0 -307 99t-106 281q0 70 16 150l129 608h299l-129 -616q-14 -61 -14 -121q0 -156 141 -156q309 0 309 893h301q0 -331 -40 -538.5t-117.5 -336t-198 -196t-283.5 -67.5zM420 1382q0 78 39.5 118t111.5 40q125 0 125 -108q0 -73 -36 -116.5t-113 -43.5 q-127 0 -127 110zM803 1382q0 78 39.5 118t111.5 40q125 0 125 -108q0 -73 -36 -116.5t-113 -43.5q-127 0 -127 110z" glyph-name="upsilondieresis" horiz-adv-x="1262" unicode="ϋ"/><glyph d="M805 696q0 197 -143 197q-75 0 -134.5 -61t-97 -179t-37.5 -243q0 -185 150 -185q75 0 135 61.5t93.5 171t33.5 238.5zM1108 696q0 -211 -70.5 -374t-203.5 -252.5t-316 -89.5q-195 0 -311.5 117.5t-116.5 312.5q0 213 71.5 379.5t206.5 258t316 91.5q196 0 310 -118 t114 -325zM596 1272q76 152 150 358h284v-24q-120 -198 -254 -365h-180v31zM851 1567z" glyph-name="omicrontonos" horiz-adv-x="1198" unicode="ό"/><glyph d="M532 -20q-201 0 -307 99t-106 281q0 70 16 150l129 608h299l-129 -616q-14 -61 -14 -121q0 -156 141 -156q309 0 309 893h301q0 -331 -40 -538.5t-117.5 -336t-198 -196t-283.5 -67.5zM614 1272q76 152 150 358h284v-24q-120 -198 -254 -365h-180v31zM869 1567z" glyph-name="upsilontonos" horiz-adv-x="1262" unicode="ύ"/><glyph d="M438 -20q-166 0 -257 105.5t-91 295.5q0 346 246 737h303q-120 -176 -190 -369.5t-70 -359.5q0 -172 113 -172q70 0 112 59t70 191l63 295h285q-41 -189 -61.5 -286.5t-20.5 -143.5q0 -115 100 -115q72 0 132 78.5t96.5 226t36.5 309.5q0 151 -31 287h285 q30 -125 30 -264q0 -405 -142.5 -639.5t-399.5 -234.5q-218 0 -275 202q-66 -109 -147 -155.5t-187 -46.5zM841 1272q76 152 150 358h284v-24q-120 -198 -254 -365h-180v31zM1096 1567z" glyph-name="omegatonos" horiz-adv-x="1679" unicode="ώ"/><glyph d="M870 0h-817l309 1462h818l-54 -254h-512l-67 -321h477l-55 -254h-477l-80 -377h512zM475 1720q0 78 39.5 118t111.5 40q125 0 125 -108q0 -73 -36 -116.5t-113 -43.5q-127 0 -127 110zM858 1720q0 78 39.5 118t111.5 40q125 0 125 -108q0 -73 -36 -116.5t-113 -43.5 q-127 0 -127 110z" glyph-name="afii10023" horiz-adv-x="1110" unicode="Ё"/><glyph d="M932 -20q-117 0 -195 38v254q80 -39 148 -39q73 0 111 38t56.5 122.5t23.5 119.5t3 46q0 61 -31.5 88t-101.5 27h-233l-144 -674h-305l256 1204h-352l55 258h1061l-55 -258h-404l-57 -272h242q178 0 277 -87t99 -243q0 -39 -3 -72t-29 -172.5t-75 -219.5t-129 -118 t-218 -40z" glyph-name="afii10051" horiz-adv-x="1520" unicode="Ђ"/><glyph d="M354 0h-301l309 1462h814l-54 -254h-512zM608 1604q79 88 222 303h335v-17q-46 -56 -154 -152.5t-194 -158.5h-209v25z" glyph-name="afii10052" horiz-adv-x="1030" unicode="Ѓ"/><glyph d="M905 1227q-146 0 -255.5 -95.5t-166.5 -267.5h533l-53 -254h-527l-2 -30v-31q0 -309 287 -309q146 0 338 77v-260q-187 -77 -400 -77q-254 0 -395 149.5t-141 423.5q0 262 104 482.5t278 335t400 114.5q122 0 224 -24.5t206 -80.5l-118 -250q-72 41 -148.5 69t-163.5 28z" glyph-name="afii10053" horiz-adv-x="1253" unicode="Є"/><glyph d="M946 432q0 -209 -148 -330.5t-401 -121.5q-221 0 -356 90v274q193 -108 358 -108q112 0 175 42.5t63 116.5q0 43 -13.5 75.5t-38.5 60.5t-124 102q-138 99 -194 196t-56 209q0 129 62 230.5t176.5 158t263.5 56.5q217 0 397 -99l-109 -233q-156 74 -288 74 q-83 0 -136 -45t-53 -119q0 -61 33 -106.5t148 -120.5q121 -80 181 -176.5t60 -225.5z" glyph-name="afii10054" horiz-adv-x="1085" unicode="Ѕ"/><glyph d="M588 0h-647l36 176l187 82l201 946l-152 82l37 176h647l-37 -176l-190 -82l-201 -946l156 -82z" glyph-name="afii10055" horiz-adv-x="784" unicode="І"/><glyph d="M588 0h-647l36 176l187 82l201 946l-152 82l37 176h647l-37 -176l-190 -82l-201 -946l156 -82zM282 1720q0 78 39.5 118t111.5 40q125 0 125 -108q0 -73 -36 -116.5t-113 -43.5q-127 0 -127 110zM665 1720q0 78 39.5 118t111.5 40q125 0 125 -108q0 -73 -36 -116.5 t-113 -43.5q-127 0 -127 110z" glyph-name="afii10056" horiz-adv-x="784" unicode="Ї"/><glyph d="M-135 -430q-94 0 -187 27v253q88 -20 164 -20q99 0 160.5 60.5t89.5 191.5l293 1380h305l-303 -1423q-52 -245 -175.5 -357t-346.5 -112z" glyph-name="afii10057" horiz-adv-x="678" unicode="Ј"/><glyph d="M1298 901h68q237 0 363 -103t126 -296q0 -243 -158 -372.5t-456 -129.5h-438l254 1204h-254q-79 -320 -161 -577t-155.5 -393.5t-164 -195t-240.5 -58.5q-80 0 -143 24v254q53 -20 100 -20q65 0 107 31.5t82 101.5t92.5 217.5t117 371.5t135.5 502h844zM1161 254h119 q129 0 197.5 60.5t68.5 177.5q0 74 -47.5 114.5t-144.5 40.5h-109z" glyph-name="afii10058" horiz-adv-x="1962" unicode="Љ"/><glyph d="M1815 506q0 -244 -156.5 -375t-448.5 -131h-448l137 647h-403l-138 -647h-305l309 1462h306l-119 -561h401l121 561h305l-119 -561h86q230 0 351 -102t121 -293zM1120 254h127q125 0 191.5 60.5t66.5 170.5q0 162 -192 162h-109z" glyph-name="afii10059" horiz-adv-x="1921" unicode="Њ"/><glyph d="M1079 551q0 68 -37 95.5t-112 27.5h-217l-144 -674h-305l256 1204h-352l55 258h1061l-55 -258h-404l-57 -272h225q195 0 293 -90t98 -250q0 -62 -22 -174l-84 -418h-309l100 471q10 50 10 80z" glyph-name="afii10060" horiz-adv-x="1520" unicode="Ћ"/><glyph d="M1120 0h-338l-272 719l-152 -719h-305l309 1462h306l-146 -684l541 684h344l-582 -723zM702 1604q79 88 222 303h335v-17q-46 -56 -154 -152.5t-194 -158.5h-209v25z" glyph-name="afii10061" horiz-adv-x="1219" unicode="Ќ"/><glyph d="M242 -20q-124 0 -211 32v267q81 -39 198 -39q48 0 85 17t68.5 49.5t80.5 113.5l-285 1042h307l154 -631q23 -93 29 -151q46 110 67 149l344 633h334l-602 -1030q-132 -225 -205 -302t-159 -113.5t-205 -36.5zM1304 1937q-34 -133 -98 -207.5t-170 -112.5t-258 -38 q-200 0 -307 76.5t-107 234.5q0 24 5 47h266l-2 -26v-21q0 -139 170 -139q99 0 152.5 44t76.5 142h272z" glyph-name="afii10062" horiz-adv-x="1225" unicode="Ў"/><glyph d="M362 1462h308l-256 -1204h460l256 1204h304l-310 -1462h-383l-92 -426h-303l92 426h-385z" glyph-name="afii10145" horiz-adv-x="1423" unicode="Џ"/><glyph d="M842 348h-473l-172 -348h-320l766 1468h373l147 -1468h-297zM827 608l-26 350l-5 133l-3 156h-5q-54 -147 -106 -254l-188 -385h333z" glyph-name="afii10017" horiz-adv-x="1286" unicode="А"/><glyph d="M612 901q238 0 364 -104.5t126 -304.5q0 -237 -158 -364.5t-457 -127.5h-434l309 1462h822l-54 -254h-520l-65 -307h67zM508 254q139 0 212 58.5t73 164.5q0 170 -193 170h-108l-84 -393h100z" glyph-name="afii10018" horiz-adv-x="1212" unicode="Б"/><glyph d="M788 1462q229 0 346 -81.5t117 -243.5q0 -150 -83 -246.5t-236 -128.5v-8q100 -26 159.5 -96.5t59.5 -180.5q0 -229 -153 -353t-423 -124h-522l309 1462h426zM545 883h149q121 0 181.5 48.5t60.5 139.5q0 137 -170 137h-152zM412 256h180q117 0 183.5 58t66.5 161 q0 162 -183 162h-165z" glyph-name="afii10019" horiz-adv-x="1270" unicode="В"/><glyph d="M354 0h-301l309 1462h814l-54 -254h-512z" glyph-name="afii10020" horiz-adv-x="1030" unicode="Г"/><glyph d="M-53 258h129q171 247 307.5 542t257.5 662h766l-256 -1204h186l-145 -684h-303l92 426h-784l-93 -426h-301zM840 1204q-215 -616 -426 -946h424l202 946h-200z" glyph-name="afii10021" horiz-adv-x="1475" unicode="Д"/><glyph d="M870 0h-817l309 1462h818l-54 -254h-512l-67 -321h477l-55 -254h-477l-80 -377h512z" glyph-name="afii10022" horiz-adv-x="1110" unicode="Е"/><glyph d="M494 780l-279 682h303l266 -684l146 684h293l-146 -684l537 684h328l-582 -723l295 -739h-316l-274 719l-152 -719h-292l151 717l-555 -717h-342z" glyph-name="afii10024" horiz-adv-x="1776" unicode="Ж"/><glyph d="M1200 1143q0 -169 -109.5 -264.5t-306.5 -108.5v-8q143 -17 226.5 -101t83.5 -215q0 -224 -161 -345t-468 -121q-139 0 -242.5 18t-181.5 61v263q182 -99 399 -99q170 0 256 60.5t86 175.5q0 93 -77 136.5t-242 43.5h-141l51 242h127q383 0 383 200q0 72 -47.5 113 t-141.5 41q-170 0 -360 -123l-109 209q143 91 268.5 126.5t276.5 35.5q123 0 222 -44t153.5 -122t54.5 -174z" glyph-name="afii10025" horiz-adv-x="1221" unicode="З"/><glyph d="M422 418l764 1044h370l-309 -1462h-276q94 446 144 682t85 379l-8 2l-764 -1063h-375l309 1462h281l-147 -692q-65 -282 -84 -352h10z" glyph-name="afii10026" horiz-adv-x="1546" unicode="И"/><glyph d="M422 418l764 1044h370l-309 -1462h-276q94 446 144 682t85 379l-8 2l-764 -1063h-375l309 1462h281l-147 -692q-65 -282 -84 -352h10zM1482 1937q-34 -133 -98 -207.5t-170 -112.5t-258 -38q-200 0 -307 76.5t-107 234.5q0 24 5 47h266l-2 -26v-21q0 -139 170 -139 q99 0 152.5 44t76.5 142h272z" glyph-name="afii10027" horiz-adv-x="1546" unicode="Й"/><glyph d="M1120 0h-338l-272 719l-152 -719h-305l309 1462h306l-146 -684l541 684h344l-582 -723z" glyph-name="afii10028" horiz-adv-x="1219" unicode="К"/><glyph d="M803 1204q-79 -320 -161 -577t-155.5 -393.5t-164 -195t-240.5 -58.5q-80 0 -143 24v254q53 -20 100 -20q65 0 107 31.5t82 101.5t92.5 217.5t117 371.5t135.5 502h861l-312 -1462h-303l256 1204h-272z" glyph-name="afii10029" horiz-adv-x="1423" unicode="Л"/><glyph d="M840 369l549 1093h423l-309 -1462h-280l145 692q36 169 109 441h-9l-569 -1133h-281l-61 1133h-8q-22 -182 -78 -453l-143 -680h-275l309 1462h404l65 -1093h9z" glyph-name="afii10030" horiz-adv-x="1802" unicode="М"/><glyph d="M1135 0h-306l134 631h-471l-134 -631h-305l309 1462h306l-121 -573h471l121 573h305z" glyph-name="afii10031" horiz-adv-x="1434" unicode="Н"/><glyph d="M1432 938q0 -283 -99 -506.5t-271 -337.5t-396 -114q-256 0 -399.5 147.5t-143.5 409.5q0 265 99 487.5t273 341.5t402 119q255 0 395 -144t140 -403zM872 1227q-121 0 -222 -91.5t-158.5 -251.5t-57.5 -347q0 -147 66.5 -222t187.5 -75t220.5 87t155.5 246t56 357 q0 142 -65 219.5t-183 77.5z" glyph-name="afii10032" horiz-adv-x="1495" unicode="О"/><glyph d="M1124 0h-305l256 1204h-461l-256 -1204h-305l309 1462h1072z" glyph-name="afii10033" horiz-adv-x="1423" unicode="П"/><glyph d="M1260 1036q0 -241 -169.5 -378.5t-467.5 -137.5h-156l-109 -520h-305l309 1462h408q242 0 366 -107t124 -319zM522 774h125q142 0 223.5 69t81.5 185q0 93 -48.5 136.5t-145.5 43.5h-144z" glyph-name="afii10034" horiz-adv-x="1249" unicode="Р"/><glyph d="M905 1227q-132 0 -237.5 -81t-169.5 -239t-64 -338q0 -167 68.5 -248t218.5 -81q146 0 338 77v-260q-199 -77 -400 -77q-254 0 -395 149.5t-141 423.5q0 262 104 482.5t278 335t400 114.5q125 0 222 -22.5t208 -82.5l-118 -250q-106 59 -175 78t-137 19z" glyph-name="afii10035" horiz-adv-x="1253" unicode="С"/><glyph d="M571 0h-305l254 1204h-352l55 258h1010l-55 -258h-353z" glyph-name="afii10036" horiz-adv-x="1087" unicode="Т"/><glyph d="M242 -20q-124 0 -211 32v267q81 -39 198 -39q48 0 85 17t68.5 49.5t80.5 113.5l-285 1042h307l154 -631q23 -93 29 -151q46 110 67 149l344 633h334l-602 -1030q-132 -225 -205 -302t-159 -113.5t-205 -36.5z" glyph-name="afii10037" horiz-adv-x="1225" unicode="У"/><glyph d="M557 -20l49 223q-147 11 -255.5 69t-168 165.5t-59.5 252.5q0 281 186 440.5t531 172.5l37 180h284l-37 -180q232 -20 358 -145.5t126 -336.5q0 -287 -189.5 -449.5t-527.5 -166.5l-49 -225h-285zM942 444q176 12 268.5 111.5t92.5 265.5q0 109 -59 172.5t-171 67.5z M788 1061q-168 -10 -264 -107t-96 -266q0 -112 59 -176t170 -68z" glyph-name="afii10038" horiz-adv-x="1671" unicode="Ф"/><glyph d="M1124 0h-331l-172 543l-396 -543h-342l576 764l-238 698h320l153 -518l363 518h344l-545 -725z" glyph-name="afii10039" horiz-adv-x="1241" unicode="Х"/><glyph d="M1384 246l-143 -672h-303l92 426h-977l309 1462h308l-256 -1204h460l256 1204h304l-258 -1216h208z" glyph-name="afii10040" horiz-adv-x="1501" unicode="Ц"/><glyph d="M774 0l119 561q-187 -86 -348 -86q-167 0 -264 85t-97 237q0 57 13 116l112 549h305l-108 -516q-10 -46 -10 -82q0 -131 153 -131q131 0 295 74l139 655h306l-310 -1462h-305z" glyph-name="afii10041" horiz-adv-x="1378" unicode="Ч"/><glyph d="M53 0l309 1462h314l-256 -1204h381l256 1204h315l-256 -1204h381l256 1204h313l-309 -1462h-1704z" glyph-name="afii10042" horiz-adv-x="2056" unicode="Ш"/><glyph d="M2017 246l-143 -672h-303l92 426h-1610l309 1462h314l-256 -1204h381l256 1204h315l-256 -1204h381l256 1204h313l-258 -1216h209z" glyph-name="afii10043" horiz-adv-x="2134" unicode="Щ"/><glyph d="M762 901h67q240 0 365 -105t125 -304q0 -237 -158 -364.5t-456 -127.5h-439l254 1204h-352l55 258h658zM625 254h100q139 0 212 58.5t73 164.5q0 170 -193 170h-108z" glyph-name="afii10044" horiz-adv-x="1425" unicode="Ъ"/><glyph d="M1513 0h-313l309 1462h314zM1075 492q0 -237 -158 -364.5t-456 -127.5h-408l309 1462h306l-119 -561h37q240 0 364.5 -105t124.5 -304zM412 254h69q139 0 212 58.5t73 164.5q0 170 -193 170h-77z" glyph-name="afii10045" horiz-adv-x="1812" unicode="Ы"/><glyph d="M1106 492q0 -237 -158 -364.5t-456 -127.5h-439l309 1462h306l-119 -561h67q240 0 365 -105t125 -304zM412 254h100q139 0 212 58.5t73 164.5q0 170 -193 170h-108z" glyph-name="afii10046" horiz-adv-x="1212" unicode="Ь"/><glyph d="M389 238q169 0 278 91.5t169 280.5h-539l53 254h527l2 25v26q0 312 -258 312q-65 0 -127.5 -13.5t-194.5 -64.5l-80 246q208 90 440 90q258 0 394.5 -146.5t136.5 -418.5q0 -268 -99 -489.5t-269.5 -336t-397.5 -114.5q-121 0 -217.5 18.5t-179.5 64.5v271 q173 -96 362 -96z" glyph-name="afii10047" horiz-adv-x="1253" unicode="Э"/><glyph d="M1997 938q0 -279 -88 -501t-249.5 -339.5t-381.5 -117.5q-241 0 -377.5 147.5t-136.5 409.5q0 50 4 94h-276l-134 -631h-305l309 1462h306l-121 -573h262q80 288 258.5 442t423.5 154q241 0 373.5 -144t132.5 -403zM1464 1227q-107 0 -197 -91.5t-141 -251.5t-51 -347 q0 -147 59.5 -222t165.5 -75q107 0 196 87t139.5 244.5t50.5 358.5q0 139 -57 218t-165 79z" glyph-name="afii10048" horiz-adv-x="2060" unicode="Ю"/><glyph d="M653 561l-415 -561h-363l514 657q-107 68 -151.5 146.5t-44.5 185.5q0 223 153.5 348t433.5 125h486l-310 -1462h-305l119 561h-117zM907 1208h-135q-127 0 -193.5 -57t-66.5 -168q0 -79 54.5 -124.5t148.5 -45.5h108z" glyph-name="afii10049" horiz-adv-x="1255" unicode="Я"/><glyph d="M406 -20q-147 0 -231.5 106.5t-84.5 298.5q0 198 72 377.5t189 278t257 98.5q97 0 167.5 -42t109.5 -122h8l57 143h232l-238 -1118h-225l14 145h-8q-134 -165 -319 -165zM524 223q69 0 133 67t103 181.5t39 259.5q0 71 -38.5 117.5t-101.5 46.5q-68 0 -129.5 -72 t-98 -190t-36.5 -234q0 -88 33.5 -132t95.5 -44z" glyph-name="afii10065" horiz-adv-x="1217" unicode="а"/><glyph d="M109 461q0 237 70.5 453t193.5 357t285.5 193.5t578.5 102.5l31 -258l-105 -15q-242 -34 -325 -51q-156 -31 -240 -117t-127 -254l6 -2q66 83 151.5 127.5t180.5 44.5q142 0 219.5 -94.5t77.5 -273.5q0 -197 -74 -359.5t-206.5 -248.5t-303.5 -86q-201 0 -307 123 t-106 358zM551 227q66 0 123.5 60.5t93 165t35.5 211.5q0 153 -115 153q-56 0 -123 -45t-127 -127q-24 -115 -24 -194q0 -224 137 -224z" glyph-name="afii10066" horiz-adv-x="1198" unicode="б"/><glyph d="M711 1139q187 0 295 -81.5t108 -219.5q0 -110 -58.5 -175.5t-183.5 -93.5v-8q89 -25 134 -82t45 -141q0 -106 -58.5 -187.5t-168 -126t-257.5 -44.5q-227 0 -352 116.5t-125 335.5q0 202 76.5 363.5t218 252.5t326.5 91zM393 475l-2 -31v-32q0 -105 45.5 -163.5 t134.5 -58.5q85 0 131 43t46 111q0 66 -48.5 98.5t-160.5 32.5h-146zM698 922q-85 0 -155 -65t-109 -175h201q87 0 134.5 35t47.5 104q0 48 -33 74.5t-86 26.5z" glyph-name="afii10067" horiz-adv-x="1174" unicode="в"/><glyph d="M166 1051q183 88 391 88q179 0 276 -78.5t97 -224.5q0 -95 -33 -156.5t-89 -103.5t-130 -71.5t-156 -58.5q-100 -35 -132.5 -53t-48 -39t-15.5 -51q0 -100 143 -100q135 0 326 90v-227q-94 -47 -184.5 -66.5t-204.5 -19.5q-184 0 -285 83.5t-101 233.5q0 93 35 155 t90.5 103.5t125.5 68.5t139 50q92 30 136.5 50.5t62.5 40.5t18 62q0 86 -121 86q-114 0 -266 -75z" glyph-name="afii10068" horiz-adv-x="981" unicode="г"/><glyph d="M1165 928q0 -284 -80 -503t-223.5 -332t-339.5 -113q-207 0 -319.5 116.5t-112.5 325.5q0 186 60.5 329t171 221.5t251.5 78.5q183 0 279 -183h8l2 36v30q0 206 -64 296.5t-200 90.5q-106 0 -203 -41l-63 238q133 49 313 49q257 0 388.5 -161t131.5 -478zM539 225 q106 0 179.5 112t106.5 329q-20 66 -64.5 109.5t-115.5 43.5q-115 0 -183.5 -110.5t-68.5 -296.5q0 -88 38 -137.5t108 -49.5z" glyph-name="afii10069" horiz-adv-x="1231" unicode="д"/><glyph d="M696 922q-88 0 -166 -80t-102 -195h45q155 0 241.5 48.5t86.5 131.5q0 95 -105 95zM532 -20q-210 0 -326 113t-116 319q0 207 82.5 377.5t223.5 260t319 89.5q177 0 276 -81.5t99 -223.5q0 -187 -167 -288.5t-477 -101.5h-51l-2 -21v-20q0 -91 51.5 -143.5t147.5 -52.5 q87 0 158 19t172 67v-227q-172 -86 -390 -86z" glyph-name="afii10070" horiz-adv-x="1141" unicode="е"/><glyph d="M811 451h-152q-57 -223 -199.5 -347t-344.5 -124q-77 0 -135 12l47 239q53 -8 79 -8q84 0 149.5 64t101.5 175t36 240q0 96 -36 144.5t-101 48.5q-45 0 -121 -27v244q76 27 178 27q175 0 276 -114t101 -318v-27l-2 -27h166l100 465h289l-100 -465h157q57 227 203 356.5 t348 129.5q71 0 136 -13l-52 -239q-53 8 -80 8q-125 0 -205.5 -136t-80.5 -343q0 -96 36 -144.5t101 -48.5q45 0 121 27v-244q-73 -26 -178 -26q-177 0 -277 111.5t-100 314.5l2 45h-174l-96 -451h-289z" glyph-name="afii10072" horiz-adv-x="1966" unicode="ж"/><glyph d="M463 688q140 0 198 29.5t58 97.5q0 46 -34 72t-120 26q-69 0 -153.5 -22.5t-161.5 -56.5l-72 219q224 86 440 86q193 0 297.5 -71t104.5 -206q0 -103 -62 -171t-198 -105v-8q190 -56 190 -226q0 -180 -143.5 -276t-409.5 -96q-101 0 -202 20t-170 55v248q176 -88 362 -88 q258 0 258 145q0 117 -176 117h-176l45 211h125z" glyph-name="afii10073" horiz-adv-x="1073" unicode="з"/><glyph d="M262 1118h301l-137 -653q-16 -68 -16 -119q0 -123 108 -123q92 0 167 114t118 318l98 463h301l-237 -1118h-230l21 207h-11q-145 -227 -350 -227q-138 0 -211 82.5t-73 238.5q0 93 24 213z" glyph-name="afii10074" horiz-adv-x="1237" unicode="и"/><glyph d="M262 1118h301l-137 -653q-16 -68 -16 -119q0 -123 108 -123q92 0 167 114t118 318l98 463h301l-237 -1118h-230l21 207h-11q-145 -227 -350 -227q-138 0 -211 82.5t-73 238.5q0 93 24 213zM1265 1599q-34 -133 -98 -207.5t-170 -112.5t-258 -38q-200 0 -307 76.5 t-107 234.5q0 24 5 47h266l-2 -26v-21q0 -139 170 -139q99 0 152.5 44t76.5 142h272z" glyph-name="afii10075" horiz-adv-x="1237" unicode="й"/><glyph d="M907 1118h344l-479 -561l277 -557h-338l-256 545l-117 -545h-301l239 1118h302l-111 -520z" glyph-name="afii10076" horiz-adv-x="1184" unicode="к"/><glyph d="M987 0h-301l188 885q-40 8 -63 8q-67 0 -112 -31.5t-82 -101t-109 -283.5q-35 -103 -68.5 -193.5t-79 -158t-110 -106.5t-160.5 -39q-89 0 -149 24v248q37 -16 84 -16q50 0 89.5 52.5t77.5 163.5q102 303 158 408t122.5 163.5t162.5 87t233 28.5q87 0 182 -15.5 t164 -42.5z" glyph-name="afii10077" horiz-adv-x="1260" unicode="л"/><glyph d="M1231 807q-28 -62 -69 -136t-83 -153l-276 -518h-232l-63 504q-24 203 -31 307l-170 -811h-284l239 1118h406l59 -477q11 -84 15.5 -156t9.5 -143q26 60 59 136t78 155l270 485h428l-235 -1118h-293z" glyph-name="afii10078" horiz-adv-x="1620" unicode="м"/><glyph d="M580 1118l-93 -430h349l90 430h301l-238 -1118h-301l96 461h-346l-98 -461h-303l239 1118h304z" glyph-name="afii10079" horiz-adv-x="1262" unicode="н"/><glyph d="M805 696q0 197 -143 197q-75 0 -134.5 -61t-97 -179t-37.5 -243q0 -185 150 -185q75 0 135 61.5t93.5 171t33.5 238.5zM1108 696q0 -211 -70.5 -374t-203.5 -252.5t-316 -89.5q-195 0 -311.5 117.5t-116.5 312.5q0 213 71.5 379.5t206.5 258t316 91.5q196 0 310 -118 t114 -325z" glyph-name="afii10080" horiz-adv-x="1198" unicode="о"/><glyph d="M977 0h-301l137 653q16 68 16 119q0 123 -108 123q-92 0 -167 -114t-118 -318l-98 -463h-301l237 1118h230l-21 -207h9q146 228 352 228q138 0 213.5 -83.5t75.5 -238.5q0 -73 -23 -180z" glyph-name="afii10081" horiz-adv-x="1237" unicode="п"/><glyph d="M813 1139q146 0 230.5 -107.5t84.5 -300.5q0 -191 -68.5 -367.5t-187.5 -280t-262 -103.5q-83 0 -143 37t-111 126h-8q-12 -159 -43 -295l-72 -340h-301l342 1610h230l-17 -170h9q138 191 317 191zM692 895q-74 0 -134.5 -65t-99 -188.5t-38.5 -242.5q0 -80 37 -128 t102 -48q67 0 128 69t98.5 189.5t37.5 237.5q0 176 -131 176z" glyph-name="afii10082" horiz-adv-x="1219" unicode="р"/><glyph d="M506 -20q-201 0 -308.5 107.5t-107.5 303.5q0 212 74.5 385.5t209.5 268t308 94.5q182 0 328 -72l-92 -229q-54 23 -106 40t-118 17q-85 0 -153.5 -64t-107 -175.5t-38.5 -239.5q0 -96 45.5 -144.5t126.5 -48.5q76 0 141 23.5t134 58.5v-246q-152 -79 -336 -79z" glyph-name="afii10083" horiz-adv-x="989" unicode="с"/><glyph d="M844 1139q219 0 262 -228h8q70 112 161 170t195 58q136 0 207.5 -85t71.5 -237q0 -76 -23 -180l-133 -637h-301l138 653q16 68 16 119q0 123 -98 123q-94 0 -169.5 -115t-115.5 -315l-96 -465h-301l137 653q16 68 16 119q0 123 -98 123q-92 0 -167 -114t-118 -318 l-98 -463h-301l237 1118h230l-21 -207h9q146 228 352 228z" glyph-name="afii10084" horiz-adv-x="1853" unicode="т"/><glyph d="M102 1118h295l56 -518q12 -105 12 -293h8q20 51 44 119.5t65 153.5l260 538h327l-680 -1278q-177 -332 -483 -332q-90 0 -147 19v240q68 -13 116 -13q84 0 147.5 48t117.5 149l26 49z" glyph-name="afii10085" horiz-adv-x="1063" unicode="у"/><glyph d="M1049 1124q204 -30 314 -153t110 -314q0 -193 -81 -340.5t-229.5 -230.5t-357.5 -104l-96 -474h-291l104 484q-202 23 -317 147.5t-115 313.5q0 191 84.5 342.5t234 234.5t353.5 96l90 430h287zM397 477q0 -103 43 -171t129 -81l144 668q-93 -6 -163.5 -58.5t-111.5 -150 t-41 -207.5zM856 225q93 13 161.5 66t109 149.5t40.5 210.5q0 96 -45.5 159.5t-124.5 78.5z" glyph-name="afii10086" horiz-adv-x="1563" unicode="ф"/><glyph d="M379 573l-225 545h321l115 -334l244 334h354l-467 -561l244 -557h-326l-125 342l-264 -342h-350z" glyph-name="afii10087" horiz-adv-x="1087" unicode="х"/><glyph d="M563 1118l-137 -653q-16 -68 -16 -119q0 -123 108 -123q92 0 167 114t118 318l98 463h301l-162 -764q-6 -30 -6 -53q0 -65 62 -65q39 0 90 14l-137 -651h-279l96 401q-56 26 -82.5 73.5t-40.5 106.5h-8q-142 -200 -340 -200q-137 0 -213 82.5t-76 238.5q0 68 29 213 l127 604h301z" glyph-name="afii10088" horiz-adv-x="1270" unicode="ц"/><glyph d="M545 1118l-62 -291q-16 -68 -16 -118q0 -63 31 -95t88 -32q98 0 161.5 98.5t108.5 310.5l27 127h301l-238 -1118h-301l64 303q16 85 45 180h-9q-128 -141 -292 -141q-135 0 -212 86t-77 236q0 79 29 213l51 241h301z" glyph-name="afii10089" horiz-adv-x="1219" unicode="ч"/><glyph d="M1190 1118l-137 -653q-17 -70 -17 -119q0 -123 99 -123q93 0 167 115t117 317l99 463h301l-238 -1118h-227l20 207h-8q-145 -227 -354 -227q-217 0 -260 227h-9q-145 -227 -358 -227q-133 0 -206 83t-73 238q0 73 23 180l133 637h301l-137 -653q-16 -68 -16 -119 q0 -123 98 -123q92 0 165 110.5t120 319.5l96 465h301z" glyph-name="afii10090" horiz-adv-x="1853" unicode="ш"/><glyph d="M1190 1118l-137 -653q-17 -70 -17 -119q0 -123 99 -123q93 0 167 115t117 317l99 463h301l-162 -764q-6 -30 -6 -53q0 -65 61 -65q41 0 90 14l-137 -651h-279l97 401q-97 44 -123 184h-8q-145 -204 -340 -204q-217 0 -260 227h-9q-145 -227 -358 -227q-133 0 -206 83 t-73 238q0 73 23 180l133 637h301l-137 -653q-16 -68 -16 -119q0 -123 98 -123q92 0 165 110.5t120 319.5l96 465h301z" glyph-name="afii10091" horiz-adv-x="1886" unicode="щ"/><glyph d="M793 1118l-99 -454q88 22 217 22q166 0 260.5 -82.5t94.5 -220.5q0 -120 -62.5 -211t-182 -141.5t-290.5 -50.5q-195 0 -297 83t-102 244q0 70 24 180l88 402h-352l49 229h652zM631 317q0 -61 38 -94t105 -33q86 0 137.5 44.5t51.5 117.5q0 123 -150 123q-70 0 -160 -18 q-7 -32 -14.5 -71t-7.5 -69z" glyph-name="afii10092" horiz-adv-x="1380" unicode="ъ"/><glyph d="M565 1118l-98 -454q98 22 203 22q139 0 226 -82t87 -215q0 -121 -57.5 -213t-167.5 -144t-262 -52q-390 0 -390 325q0 87 23 189l135 624h301zM557 475q-57 0 -131 -18q-15 -67 -17.5 -93.5t-2.5 -50.5q0 -61 31 -92t83 -31q73 0 117.5 46.5t44.5 119.5q0 119 -125 119z M1372 0h-301l238 1118h301z" glyph-name="afii10093" horiz-adv-x="1645" unicode="ы"/><glyph d="M467 664q86 22 217 22q166 0 260 -83t94 -220q0 -121 -62 -211.5t-181.5 -141t-290.5 -50.5q-195 0 -297.5 83.5t-102.5 243.5q0 65 25 180l135 631h301zM586 475q-70 0 -160 -18q-23 -103 -23 -140q0 -62 39 -94.5t105 -32.5q86 0 137 45t51 117q0 123 -149 123z" glyph-name="afii10094" horiz-adv-x="1153" unicode="ь"/><glyph d="M489 1139q195 0 302.5 -117t107.5 -332q0 -213 -72.5 -374t-210.5 -248.5t-329 -87.5q-152 0 -256 55v252q52 -25 112 -44.5t138 -19.5q113 0 183 58.5t103 181.5h-372l43 203h356l2 19v20q0 91 -43.5 140.5t-124.5 49.5q-57 0 -103.5 -16t-103.5 -43l-80 221 q164 82 348 82z" glyph-name="afii10095" horiz-adv-x="989" unicode="э"/><glyph d="M1620 696q0 -211 -67.5 -374t-195 -252.5t-302.5 -89.5q-194 0 -302 113t-108 315v53h-207l-98 -461h-303l239 1118h304l-93 -430h193q57 214 195 332.5t337 118.5q194 0 301 -117t107 -326zM1186 893q-68 0 -123 -65t-89 -181t-34 -237q0 -185 137 -185q64 0 119 62.5 t88 174t33 234.5q0 197 -131 197z" glyph-name="afii10096" horiz-adv-x="1710" unicode="ю"/><glyph d="M647 416q-57 0 -98 -39.5t-87 -139.5q-66 -141 -143 -199t-188 -58q-91 0 -151 24v248q40 -16 77 -16q42 0 68.5 22.5t46.5 56.5q58 96 97.5 135t92.5 54q-157 65 -157 235q0 178 127.5 278.5t355.5 100.5h467l-235 -1118h-302l91 416h-62zM684 903q-79 0 -125.5 -43.5 t-46.5 -116.5q0 -55 35 -88.5t112 -33.5h93l59 282h-127z" glyph-name="afii10097" horiz-adv-x="1192" unicode="я"/><glyph d="M696 922q-88 0 -166 -80t-102 -195h45q155 0 241.5 48.5t86.5 131.5q0 95 -105 95zM532 -20q-210 0 -326 113t-116 319q0 207 82.5 377.5t223.5 260t319 89.5q177 0 276 -81.5t99 -223.5q0 -187 -167 -288.5t-477 -101.5h-51l-2 -21v-20q0 -91 51.5 -143.5t147.5 -52.5 q87 0 158 19t172 67v-227q-172 -86 -390 -86zM374 1382q0 78 39.5 118t111.5 40q125 0 125 -108q0 -73 -36 -116.5t-113 -43.5q-127 0 -127 110zM757 1382q0 78 39.5 118t111.5 40q125 0 125 -108q0 -73 -36 -116.5t-113 -43.5q-127 0 -127 110z" glyph-name="afii10071" horiz-adv-x="1141" unicode="ё"/><glyph d="M635 1395h299l-43 -199h-297q-38 -187 -82 -289h8q62 78 136.5 124t174.5 46q140 0 214.5 -84t74.5 -237q0 -79 -22 -181l-146 -692q-41 -192 -141.5 -283.5t-263.5 -91.5q-104 0 -174 25v242q61 -21 114 -21q61 0 107.5 40.5t64.5 129.5l142 668q16 68 16 119 q0 123 -106 123q-92 0 -166.5 -113.5t-118.5 -319.5l-88 -401h-301l252 1196h-160l43 199h160l35 161h301zM1089 1118z" glyph-name="afii10099" horiz-adv-x="1237" unicode="ђ"/><glyph d="M166 1051q183 88 391 88q179 0 276 -78.5t97 -224.5q0 -95 -33 -156.5t-89 -103.5t-130 -71.5t-156 -58.5q-100 -35 -132.5 -53t-48 -39t-15.5 -51q0 -100 143 -100q135 0 326 90v-227q-94 -47 -184.5 -66.5t-204.5 -19.5q-184 0 -285 83.5t-101 233.5q0 93 35 155 t90.5 103.5t125.5 68.5t139 50q92 30 136.5 50.5t62.5 40.5t18 62q0 86 -121 86q-114 0 -266 -75zM485 1266q79 88 222 303h335v-17q-46 -56 -154 -152.5t-194 -158.5h-209v25z" glyph-name="afii10100" horiz-adv-x="981" unicode="ѓ"/><glyph d="M506 -20q-200 0 -308 108t-108 305q0 220 75.5 393t208.5 263t308 90q182 0 328 -72l-92 -229q-54 23 -106 40t-118 17q-91 0 -160.5 -57.5t-103.5 -171.5h367l-43 -203h-359l-2 -24v-23q0 -193 174 -193q76 0 141 23.5t134 58.5v-246q-152 -79 -336 -79z" glyph-name="afii10101" horiz-adv-x="989" unicode="є"/><glyph d="M829 369q0 -188 -124.5 -288.5t-346.5 -100.5q-107 0 -186.5 15t-148.5 50v248q157 -90 319 -90q80 0 131 32.5t51 88.5q0 43 -37 77t-131 86q-121 68 -169 135.5t-48 159.5q0 170 110.5 263.5t315.5 93.5q201 0 363 -95l-99 -215q-140 84 -258 84q-57 0 -92 -25.5 t-35 -68.5q0 -39 32 -68.5t120 -74.5q123 -63 178 -137t55 -170z" glyph-name="afii10102" horiz-adv-x="969" unicode="ѕ"/><glyph d="M338 0h-301l237 1118h301zM322 1380q0 87 47.5 131.5t134.5 44.5q73 0 111 -31t38 -89q0 -80 -44 -129.5t-136 -49.5q-151 0 -151 123z" glyph-name="afii10103" horiz-adv-x="608" unicode="і"/><glyph d="M338 0h-301l237 1118h301zM145 1382q0 78 39.5 118t111.5 40q125 0 125 -108q0 -73 -36 -116.5t-113 -43.5q-127 0 -127 110zM528 1382q0 78 39.5 118t111.5 40q125 0 125 -108q0 -73 -36 -116.5t-113 -43.5q-127 0 -127 110z" glyph-name="afii10104" horiz-adv-x="608" unicode="ї"/><glyph d="M-90 -492q-104 0 -174 25v242q61 -21 114 -21q137 0 173 170l253 1194h302l-265 -1239q-77 -371 -403 -371zM324 1380q0 87 47.5 131.5t134.5 44.5q73 0 111 -31t38 -89q0 -80 -44 -129.5t-136 -49.5q-151 0 -151 123z" glyph-name="afii10105" horiz-adv-x="608" unicode="ј"/><glyph d="M1087 664q108 22 218 22q165 0 259.5 -82.5t94.5 -220.5q0 -121 -62 -211.5t-181.5 -141t-291.5 -50.5q-195 0 -297 83t-102 244q0 73 25 180l90 402l-45 4q-67 0 -111.5 -32t-80 -99.5t-103.5 -284.5q-72 -232 -123.5 -319t-121.5 -132.5t-171 -45.5q-51 0 -80.5 6 t-62.5 18v248q37 -16 84 -16q51 0 89.5 51.5t73.5 163.5l43 135q81 251 152 356t173 151t259 46q206 0 363 -58zM1206 475q-69 0 -159 -18q-20 -91 -21.5 -108.5t-1.5 -31.5q0 -61 38 -94t105 -33q86 0 137.5 44.5t51.5 117.5q0 123 -150 123z" glyph-name="afii10106" horiz-adv-x="1767" unicode="љ"/><glyph d="M1087 664q116 22 218 22q165 0 259.5 -82.5t94.5 -220.5q0 -121 -62 -211.5t-181.5 -141t-291.5 -50.5q-195 0 -297 83t-102 244q0 61 20 154h-294l-99 -461h-303l240 1118h303l-92 -430h295l90 430h301zM1206 475q-69 0 -159 -18q-20 -91 -21.5 -108.5t-1.5 -31.5 q0 -61 38 -94t105 -33q86 0 137.5 44.5t51.5 117.5q0 123 -150 123z" glyph-name="afii10107" horiz-adv-x="1767" unicode="њ"/><glyph d="M977 0h-301l125 592q16 68 16 119q0 123 -106 123q-93 0 -168.5 -115.5t-118.5 -317.5l-86 -401h-301l254 1196h-162l43 199h160l35 161h301l-33 -161h299l-43 -199h-299q-38 -164 -80 -289h8q62 78 136.5 124t174.5 46q140 0 214.5 -84t74.5 -237q0 -79 -22 -181z M1086 1118z" glyph-name="afii10108" horiz-adv-x="1237" unicode="ћ"/><glyph d="M907 1118h344l-479 -561l277 -557h-338l-256 545l-117 -545h-301l239 1118h302l-111 -520zM624 1266q79 88 222 303h335v-17q-46 -56 -154 -152.5t-194 -158.5h-209v25z" glyph-name="afii10109" horiz-adv-x="1184" unicode="ќ"/><glyph d="M102 1118h295l56 -518q12 -105 12 -293h8q20 51 44 119.5t65 153.5l260 538h327l-680 -1278q-177 -332 -483 -332q-90 0 -147 19v240q68 -13 116 -13q84 0 147.5 48t117.5 149l26 49zM1156 1599q-34 -133 -98 -207.5t-170 -112.5t-258 -38q-200 0 -307 76.5t-107 234.5 q0 24 5 47h266l-2 -26v-21q0 -139 170 -139q99 0 152.5 44t76.5 142h272z" glyph-name="afii10110" horiz-adv-x="1063" unicode="ў"/><glyph d="M596 -41h49l-96 -451h-281l76 345zM563 1118l-137 -653q-16 -68 -16 -119q0 -123 108 -123q92 0 167 114t118 318l98 463h301l-237 -1118h-228l21 207h-8q-145 -227 -355 -227q-137 0 -213 82.5t-76 238.5q0 68 29 213l127 604h301z" glyph-name="afii10193" horiz-adv-x="1237" unicode="џ"/><glyph d="M901 1462l66 310h272l-117 -564h-512l-256 -1208h-301l309 1462h539z" glyph-name="afii10050" horiz-adv-x="1030" unicode="Ґ"/><glyph d="M961 870h-439l-184 -870h-301l237 1118h461l64 305h278z" glyph-name="afii10098" horiz-adv-x="948" unicode="ґ"/><glyph d="M1004 1018q-52 -163 -113 -299l-324 -719h-338l-45 1462h287l6 -798q0 -52 -4 -173t-10 -174h8q33 93 73.5 198t51.5 128l369 819h270l21 -873q0 -146 -9 -272h8q53 159 129 349l330 796h309l-647 -1462h-346l-22 721l-2 113q0 94 6 184h-8zM1227 1579h-184 q-71 69 -138.5 153.5t-103.5 153.5v21h311q36 -148 115 -303v-25z" glyph-name="Wgrave" horiz-adv-x="1831" unicode="Ẁ"/><glyph d="M850 860q-90 -255 -117 -319l-233 -541h-324l-51 1118h281l4 -495q0 -209 -11 -338h9q12 44 46 140t60 157l231 536h328v-536q0 -193 -10 -297h10q81 250 119 338l219 495h307l-530 -1118h-330l-6 520q0 155 10 340h-12zM1049 1241h-184q-71 69 -138.5 153.5 t-103.5 153.5v21h311q36 -148 115 -303v-25z" glyph-name="wgrave" horiz-adv-x="1614" unicode="ẁ"/><glyph d="M1004 1018q-52 -163 -113 -299l-324 -719h-338l-45 1462h287l6 -798q0 -52 -4 -173t-10 -174h8q33 93 73.5 198t51.5 128l369 819h270l21 -873q0 -146 -9 -272h8q53 159 129 349l330 796h309l-647 -1462h-346l-22 721l-2 113q0 94 6 184h-8zM954 1604q79 88 222 303h335 v-17q-46 -56 -154 -152.5t-194 -158.5h-209v25z" glyph-name="Wacute" horiz-adv-x="1831" unicode="Ẃ"/><glyph d="M850 860q-90 -255 -117 -319l-233 -541h-324l-51 1118h281l4 -495q0 -209 -11 -338h9q12 44 46 140t60 157l231 536h328v-536q0 -193 -10 -297h10q81 250 119 338l219 495h307l-530 -1118h-330l-6 520q0 155 10 340h-12zM798 1266q79 88 222 303h335v-17 q-46 -56 -154 -152.5t-194 -158.5h-209v25z" glyph-name="wacute" horiz-adv-x="1614" unicode="ẃ"/><glyph d="M1004 1018q-52 -163 -113 -299l-324 -719h-338l-45 1462h287l6 -798q0 -52 -4 -173t-10 -174h8q33 93 73.5 198t51.5 128l369 819h270l21 -873q0 -146 -9 -272h8q53 159 129 349l330 796h309l-647 -1462h-346l-22 721l-2 113q0 94 6 184h-8zM797 1720q0 78 39.5 118 t111.5 40q125 0 125 -108q0 -73 -36 -116.5t-113 -43.5q-127 0 -127 110zM1180 1720q0 78 39.5 118t111.5 40q125 0 125 -108q0 -73 -36 -116.5t-113 -43.5q-127 0 -127 110z" glyph-name="Wdieresis" horiz-adv-x="1831" unicode="Ẅ"/><glyph d="M850 860q-90 -255 -117 -319l-233 -541h-324l-51 1118h281l4 -495q0 -209 -11 -338h9q12 44 46 140t60 157l231 536h328v-536q0 -193 -10 -297h10q81 250 119 338l219 495h307l-530 -1118h-330l-6 520q0 155 10 340h-12zM604 1382q0 78 39.5 118t111.5 40q125 0 125 -108 q0 -73 -36 -116.5t-113 -43.5q-127 0 -127 110zM987 1382q0 78 39.5 118t111.5 40q125 0 125 -108q0 -73 -36 -116.5t-113 -43.5q-127 0 -127 110z" glyph-name="wdieresis" horiz-adv-x="1614" unicode="ẅ"/><glyph d="M627 870l374 592h342l-618 -903l-119 -559h-303l119 559l-236 903h312zM865 1579h-184q-71 69 -138.5 153.5t-103.5 153.5v21h311q36 -148 115 -303v-25z" glyph-name="Ygrave" horiz-adv-x="1155" unicode="Ỳ"/><glyph d="M102 1118h295l56 -518q12 -105 12 -293h8q20 51 44 119.5t65 153.5l260 538h327l-680 -1278q-177 -332 -483 -332q-90 0 -147 19v240q68 -13 116 -13q84 0 147.5 48t117.5 149l26 49zM755 1241h-184q-71 69 -138.5 153.5t-103.5 153.5v21h311q36 -148 115 -303v-25z" glyph-name="ygrave" horiz-adv-x="1063" unicode="ỳ"/><glyph d="M41 436l49 230h852l-49 -230h-852z" glyph-name="endash" horiz-adv-x="983" unicode="–"/><glyph d="M41 436l49 230h1835l-49 -230h-1835z" glyph-name="emdash" horiz-adv-x="1966" unicode="—"/><glyph d="M41 436l49 230h1835l-49 -230h-1835z" glyph-name="afii00208" horiz-adv-x="1966" unicode="―"/><glyph d="M608 -463h-821l31 139h821zM664 -184h-822l31 139h821zM-65 -492z" glyph-name="underscoredbl" horiz-adv-x="819" unicode="‗"/><glyph d="M123 961l-8 22q103 227 262 479h225q-91 -213 -194 -501h-285z" glyph-name="quoteleft" horiz-adv-x="440" unicode="‘"/><glyph d="M586 1462l8 -22q-103 -227 -262 -479h-226q89 206 195 501h285z" glyph-name="quoteright" horiz-adv-x="440" unicode="’"/><glyph d="M377 238l8 -23q-103 -227 -262 -479h-225q88 207 194 502h285z" glyph-name="quotesinglbase" horiz-adv-x="569" unicode="‚"/><glyph d="M504 1462q-4 -104 -4 -207q0 -171 10 -294h-209q-67 269 -78 479l13 22h268z" glyph-name="quotereversed" horiz-adv-x="440" unicode="‛"/><glyph d="M569 961l-8 22q103 227 262 479h226q-97 -227 -195 -501h-285zM123 961l-8 22q103 227 262 479h225q-91 -213 -194 -501h-285z" glyph-name="quotedblleft" horiz-adv-x="887" unicode="“"/><glyph d="M586 1462l8 -22q-103 -227 -262 -479h-226q89 206 195 501h285zM1032 1462l8 -22q-103 -227 -262 -479h-225q23 53 46.5 111t148.5 390h284z" glyph-name="quotedblright" horiz-adv-x="887" unicode="”"/><glyph d="M377 238l8 -23q-103 -227 -262 -479h-225q88 207 194 502h285zM825 238l9 -23q-100 -221 -263 -479h-225q24 57 49 118.5t146 383.5h284z" glyph-name="quotedblbase" horiz-adv-x="1018" unicode="„"/><glyph d="M985 928l-311 30l-152 -958h-282l256 956l-306 -28l52 241l295 -28l34 415h283l-141 -415l323 28z" glyph-name="dagger" horiz-adv-x="1036" unicode="†"/><glyph d="M590 559l323 29l-51 -242l-311 29l-27 -375h-284l133 375l-324 -29l51 242l310 -29l8 227l88 211l-324 -28l51 241l312 -28l26 374h285l-133 -374l324 28l-52 -241l-311 28v-211z" glyph-name="daggerdbl" horiz-adv-x="1036" unicode="‡"/><glyph d="M139 748q0 154 74 235.5t213 81.5q137 0 212 -82t75 -235q0 -152 -75.5 -235t-211.5 -83q-138 0 -212.5 83t-74.5 235z" glyph-name="bullet" horiz-adv-x="770" unicode="•"/><glyph d="M25 115q0 90 53.5 144t150.5 54q68 0 109 -38t41 -107q0 -87 -55 -141t-144 -54q-73 0 -114 37.5t-41 104.5zM586 115q0 90 53.5 144t150.5 54q68 0 109 -38t41 -107q0 -87 -55 -141t-144 -54q-73 0 -114 37.5t-41 104.5zM1147 115q0 90 53.5 144t150.5 54q68 0 109 -38 t41 -107q0 -87 -55 -141t-144 -54q-73 0 -114 37.5t-41 104.5z" glyph-name="ellipsis" horiz-adv-x="1706" unicode="…"/><glyph d="M518 1274q-63 0 -110.5 -128.5t-47.5 -277.5q0 -96 56 -96q65 0 112 131t47 275q0 96 -57 96zM821 1165q0 -166 -56 -310t-151 -217t-217 -73q-139 0 -210.5 83.5t-71.5 236.5q0 169 55.5 311.5t148.5 214.5t216 72q137 0 211.5 -80t74.5 -238zM1554 1462l-1083 -1462 h-240l1088 1462h235zM1376 690q-39 0 -75 -56t-59 -156t-23 -193q0 -97 55 -97q41 0 77 55t59.5 154.5t23.5 196.5q0 96 -58 96zM1679 590q0 -167 -54 -313.5t-148 -220.5t-215 -74q-144 0 -216.5 78.5t-72.5 222.5q0 177 53 322t147.5 219.5t219.5 74.5q137 0 211.5 -78.5 t74.5 -230.5zM2118 690q-39 0 -75.5 -56t-59.5 -156t-23 -193q0 -97 55 -97q66 0 113 131t47 275q0 96 -57 96zM2421 590q0 -167 -55.5 -314t-149 -220.5t-213.5 -73.5q-144 0 -216.5 78.5t-72.5 222.5q0 178 53 322.5t148 219t219 74.5q137 0 212 -78.5t75 -230.5z" glyph-name="perthousand" horiz-adv-x="2494" unicode="‰"/><glyph d="M549 1462l-152 -528h-196l71 528h277z" glyph-name="minute" horiz-adv-x="522" unicode="′"/><glyph d="M549 1462l-152 -528h-196l71 528h277zM954 1462l-151 -528h-199l74 528h276z" glyph-name="second" horiz-adv-x="928" unicode="″"/><glyph d="M72 569l401 463l191 -155l-279 -334l135 -350l-246 -103l-202 461v18z" glyph-name="guilsinglleft" horiz-adv-x="664" unicode="‹"/><glyph d="M592 553l-402 -463l-190 155l279 334l-136 350l246 103l203 -461v-18z" glyph-name="guilsinglright" horiz-adv-x="664" unicode="›"/><glyph d="M954 485h-241l157 977h340zM588 115q0 90 53.5 144t150.5 54q68 0 109 -38t41 -107q0 -87 -55 -141t-144 -54q-73 0 -114 37.5t-41 104.5zM391 485h-241l157 977h340zM25 115q0 90 53.5 144t150.5 54q68 0 109 -38t41 -107q0 -87 -55 -141t-144 -54q-73 0 -114 37.5 t-41 104.5z" glyph-name="exclamdbl" horiz-adv-x="1149" unicode="‼"/><glyph d="M791 1462l-1084 -1462h-239l1087 1462h236z" glyph-name="fraction" horiz-adv-x="256" unicode="⁄"/><glyph d="M551 764l84 401q8 32 8 66q0 74 -65 74q-60 0 -106 -69.5t-73 -193.5l-61 -278h-205l148 698h170l-17 -121q100 138 225 138q97 0 147 -55.5t50 -149.5q0 -45 -8 -80l-88 -430h-209z" glyph-name="uni207F" horiz-adv-x="793" unicode="ⁿ"/><glyph d="M479 440h264l-36 -178h-265l-53 -262h-301l55 262h-143l37 178h143l217 1022h813l-53 -254h-512l-72 -336h478l-56 -254h-477z" glyph-name="franc" horiz-adv-x="1128" unicode="₣"/><glyph d="M371 950l26 131q41 198 162.5 301t312.5 103q195 0 369 -86l-113 -232q-141 68 -237 68q-72 0 -121.5 -38.5t-69.5 -133.5l-24 -113h350l-39 -174h-348l-25 -119h349l-37 -176h-351q-43 -152 -196 -221h657l-55 -260h-993l49 246q101 33 155.5 88t79.5 147h-192l37 176 h192l25 119h-193l39 174h191z" glyph-name="lira" horiz-adv-x="1128" unicode="₤"/><glyph d="M1454 203q38 0 70 11t75 30v-211q-104 -53 -227 -53q-130 0 -203 63.5t-73 179.5q0 47 18 133l62 281h-111l22 106l156 115l123 225h172l-51 -237h242l-46 -209h-241l-66 -307q-6 -26 -6 -51q0 -36 23 -56t61 -20zM369 1462h317q224 0 346.5 -106t122.5 -297 q0 -254 -164.5 -396.5t-453.5 -142.5h-82l-111 -520h-287zM508 774h51q141 0 220 73.5t79 205.5q0 75 -48 115t-142 40h-68z" glyph-name="peseta" horiz-adv-x="1753" unicode="₧"/><glyph d="M899 1237q-97 0 -176 -74.5t-135 -212.5h348l-39 -176h-360q-11 -34 -25 -115h299l-37 -178h-280q0 -120 44.5 -181.5t147.5 -61.5q133 0 283 63v-258q-126 -63 -330 -63q-446 0 -446 501h-152l37 178h127q9 67 22 115h-125l39 176h135q87 252 250.5 393.5t374.5 141.5 q100 0 179 -23t165 -80l-125 -223q-87 49 -131 63.5t-90 14.5z" glyph-name="Euro" horiz-adv-x="1128" unicode="€"/><glyph d="M426 752q-128 0 -200 73.5t-72 198.5q0 199 101 327t269 128q109 0 207 -41l-55 -158q-85 35 -144 35q-50 0 -88.5 -40t-60 -105t-21.5 -130q0 -60 27 -92.5t78 -32.5q33 0 63.5 8t94.5 40v-162q-96 -49 -199 -49zM1446 1462l-1084 -1462h-239l1087 1462h236zM1468 422 q0 -200 -101 -321t-275 -121q-125 0 -198 73.5t-73 202.5q0 203 102 327t275 124q127 0 198.5 -75.5t71.5 -209.5zM1182 543q-43 0 -77.5 -40.5t-54.5 -111t-20 -137.5q0 -54 21 -82.5t59 -28.5q63 0 105 85.5t42 207.5q0 107 -75 107z" glyph-name="afii61248" horiz-adv-x="1567" unicode="℅"/><glyph d="M623 190q51 0 83 49.5t37 151.5h207q-11 -220 -98 -314.5t-262 -94.5q-173 0 -270 103.5t-97 299.5v127q-114 -33 -182 -49v196q98 26 182 54v411q0 181 87.5 269t277.5 88q154 0 243 -86.5t89 -237.5q0 -117 -39 -207t-119 -162t-246 -157v-256q0 -185 107 -185z M657 1151q0 139 -69 139q-42 0 -57 -38t-15 -101v-305q141 79 141 305z" glyph-name="afii61289" horiz-adv-x="1024" unicode="ℓ"/><glyph d="M1055 0h-301l-258 1053q-8 -78 -31.5 -217t-38.5 -207l-133 -629h-268l309 1462h301l258 -1054q20 196 68 417l135 637h268zM1204 0l39 188h590l-39 -188h-590zM1944 715q0 -121 -46.5 -223.5t-131 -160t-199.5 -57.5q-128 0 -199.5 72t-71.5 199q0 131 49.5 239 t134 162.5t195.5 54.5q122 0 195.5 -76.5t73.5 -209.5zM1737 733q0 45 -18 75t-56 30q-43 0 -78 -39.5t-57.5 -114.5t-22.5 -147q0 -99 74 -99q42 0 77 37.5t58 114t23 143.5z" glyph-name="afii61352" horiz-adv-x="2005" unicode="№"/><glyph d="M440 741h-125v613h-196v108h520v-108h-199v-613zM1016 741l-187 549h-8q6 -78 6 -121v-428h-122v721h186l180 -553l191 553h178v-721h-127v428q0 49 6 121h-8l-195 -549h-100z" glyph-name="trademark" horiz-adv-x="1534" unicode="™"/><glyph d="M872 1227q-115 0 -208.5 -66.5t-152 -191t-58.5 -258.5q0 -160 35.5 -263t109.5 -172l-59 -276h-580l53 260h363q-107 67 -168.5 188.5t-61.5 270.5q0 219 98 398.5t266.5 273.5t385.5 94q173 0 302 -64.5t197 -183t68 -272.5q0 -240 -107.5 -423.5t-310.5 -281.5h365 l-55 -260h-629l59 276q367 215 367 652q0 140 -75 219.5t-204 79.5z" glyph-name="uni2126" horiz-adv-x="1513" unicode="Ω"/><glyph d="M639 -35q-157 0 -278 73.5t-186.5 204t-65.5 287.5q0 161 63.5 288.5t188.5 202.5t278 75q152 0 273.5 -71t189 -200.5t67.5 -294.5h-827v-356q49 -53 132 -88t165 -35q132 0 222.5 52t172.5 182l72 -41q-98 -155 -206.5 -217t-260.5 -62zM938 616v277q-50 53 -131.5 86 t-169.5 33q-173 0 -295 -117v-279h596zM267 1118z" glyph-name="estimated" horiz-adv-x="1268" unicode="℮"/><glyph d="M1500 1462l-1084 -1462h-239l1087 1462h236zM496 1462h207l-186 -876h-246l84 397q24 109 55 207q-16 -15 -80 -60l-131 -81l-102 165zM1384 894q139 0 215 -56t76 -153q0 -88 -50 -140.5t-139 -84.5q65 -36 104.5 -85t39.5 -122q0 -131 -99 -204t-270 -73 q-142 0 -226.5 64.5t-84.5 169.5q0 94 60 154t169 98q-51 35 -79.5 78.5t-28.5 105.5q0 110 88 179t225 69zM1308 363q-127 -44 -127 -137q0 -42 26.5 -67t70.5 -25q52 0 82 31.5t30 74.5q0 44 -21.5 72t-60.5 51zM1382 736q-35 0 -59.5 -25t-24.5 -65q0 -56 64 -98 q94 41 94 116q0 34 -21 53t-53 19z" glyph-name="oneeighth" horiz-adv-x="1804" unicode="⅛"/><glyph d="M813 1270q0 -86 -51 -143.5t-166 -88.5v-8q154 -33 154 -174q0 -131 -107 -209t-285 -78q-75 0 -145.5 15.5t-120.5 40.5v192q125 -72 254 -72q76 0 125 30.5t49 88.5q0 37 -26 62.5t-88 25.5h-127l34 160h90q84 0 132.5 28t48.5 85q0 40 -26 60t-71 20q-86 0 -188 -66 l-82 150q142 92 313 92q130 0 206.5 -55.5t76.5 -155.5zM1600 1462l-1084 -1462h-239l1087 1462h236zM1466 894q139 0 215 -56t76 -153q0 -88 -50 -140.5t-139 -84.5q65 -36 104.5 -85t39.5 -122q0 -131 -99 -204t-270 -73q-142 0 -226.5 64.5t-84.5 169.5q0 94 60 154 t169 98q-51 35 -79.5 78.5t-28.5 105.5q0 110 88 179t225 69zM1390 363q-127 -44 -127 -137q0 -42 26.5 -67t70.5 -25q52 0 82 31.5t30 74.5q0 44 -21.5 72t-60.5 51zM1464 736q-35 0 -59.5 -25t-24.5 -65q0 -56 64 -98q94 41 94 116q0 34 -21 53t-53 19z" glyph-name="threeeighths" horiz-adv-x="1804" unicode="⅜"/><glyph d="M1584 1462l-1084 -1462h-239l1087 1462h236zM497 1151q113 0 184.5 -66.5t71.5 -173.5q0 -155 -109 -248.5t-288 -93.5q-161 0 -254 54v182q51 -31 113 -48.5t119 -17.5q89 0 138.5 39t49.5 109q0 110 -131 110q-63 0 -133 -20l-76 67l119 418h528l-41 -184h-354 l-43 -139q36 12 106 12zM1448 894q139 0 215 -56t76 -153q0 -88 -50 -140.5t-139 -84.5q65 -36 104.5 -85t39.5 -122q0 -131 -99 -204t-270 -73q-142 0 -226.5 64.5t-84.5 169.5q0 94 60 154t169 98q-51 35 -79.5 78.5t-28.5 105.5q0 110 88 179t225 69zM1372 363 q-127 -44 -127 -137q0 -42 26.5 -67t70.5 -25q52 0 82 31.5t30 74.5q0 44 -21.5 72t-60.5 51zM1446 736q-35 0 -59.5 -25t-24.5 -65q0 -56 64 -98q94 41 94 116q0 34 -21 53t-53 19z" glyph-name="fiveeighths" horiz-adv-x="1804" unicode="⅝"/><glyph d="M1502 1462l-1084 -1462h-239l1087 1462h236zM1386 894q139 0 215 -56t76 -153q0 -88 -50 -140.5t-139 -84.5q65 -36 104.5 -85t39.5 -122q0 -131 -99 -204t-270 -73q-142 0 -226.5 64.5t-84.5 169.5q0 94 60 154t169 98q-51 35 -79.5 78.5t-28.5 105.5q0 110 88 179 t225 69zM1310 363q-127 -44 -127 -137q0 -42 26.5 -67t70.5 -25q52 0 82 31.5t30 74.5q0 44 -21.5 72t-60.5 51zM1384 736q-35 0 -59.5 -25t-24.5 -65q0 -56 64 -98q94 41 94 116q0 34 -21 53t-53 19zM148 586l463 692h-406l39 184h658l-31 -149l-465 -727h-258z" glyph-name="seveneighths" horiz-adv-x="1804" unicode="⅞"/><glyph d="M1139 920q0 -263 -85 -486t-231.5 -338.5t-337.5 -115.5q-199 0 -304 106t-105 313q0 170 71.5 325.5t189 234.5t267.5 79q137 0 221 -67l-2 14q-12 133 -67.5 190.5t-155.5 57.5q-137 0 -272 -90v258q153 82 336 82q228 0 351.5 -143t123.5 -420zM502 223q104 0 186 132 t121 362q-20 40 -60.5 67t-93.5 27q-70 0 -127.5 -54t-94 -162t-36.5 -220q0 -152 105 -152z" glyph-name="partialdiff" horiz-adv-x="1190" unicode="∂"/><glyph d="M629 1468h352l141 -1294l-39 -174h-1136l35 180zM752 1174q-16 -55 -58 -142l-375 -774h517l-76 758q-8 96 -8 158z" glyph-name="uni2206" horiz-adv-x="1239" unicode="∆"/><glyph d="M1061 -457v1661h-551v-1661h-317v1919h1185v-1919h-317z" glyph-name="product" horiz-adv-x="1518" unicode="∏"/><glyph d="M123 -457v170l575 834l-559 749v166h1166v-252h-756l493 -657l-518 -756h840v-254h-1241z" glyph-name="summation" horiz-adv-x="1292" unicode="∑"/><glyph d="M109 612v219h952v-219h-952z" glyph-name="minus" horiz-adv-x="1128" unicode="−"/><glyph d="M725 -14h-182l-269 737h-176v213h326l205 -567l489 1388h219z" glyph-name="radical" horiz-adv-x="1124" unicode="√"/><glyph d="M1356 717q0 -142 -91 -240t-227 -98q-176 0 -299 176q-61 -80 -134 -125t-150 -45q-142 0 -232 92t-90 246q0 144 90.5 240t231.5 96q177 0 290 -174q125 170 293 170q140 0 229 -92t89 -246zM465 588q88 0 166 135q-75 135 -168 135q-58 0 -91.5 -39t-33.5 -98 q0 -60 34.5 -96.5t92.5 -36.5zM1024 852q-87 0 -168 -133q80 -137 170 -137q58 0 91.5 40.5t33.5 96.5q0 59 -36 96t-91 37z" glyph-name="infinity" horiz-adv-x="1448" unicode="∞"/><glyph d="M686 1300q-51 0 -81 -36t-30 -101v-1276q0 -187 -98 -283t-282 -96q-109 0 -195 41v254q91 -39 158 -39q110 0 110 142v1272q0 185 97 281.5t284 96.5q109 0 195 -40v-254q-89 38 -158 38z" glyph-name="integral" horiz-adv-x="844" unicode="∫"/><glyph d="M342 469q-51 0 -111.5 -30t-121.5 -91v232q102 108 256 108q59 0 109 -11.5t147 -51.5q73 -31 115.5 -43.5t90.5 -12.5q108 0 234 121v-231q-103 -109 -256 -109q-64 0 -117 14t-139 50q-78 33 -119 44t-88 11zM342 868q-51 0 -112 -30.5t-121 -89.5v231q100 108 256 108 q59 0 109 -11.5t147 -51.5q64 -27 111 -41t95 -14q51 0 112 30.5t122 90.5v-232q-102 -108 -256 -108q-59 0 -109 11.5t-147 51.5q-78 33 -119 44t-88 11z" glyph-name="approxequal" horiz-adv-x="1128" unicode="≈"/><glyph d="M561 418l-127 -275l-201 84l89 191h-213v219h315l80 170h-395v217h495l131 281l201 -86l-92 -195h217v-217h-318l-79 -170h397v-219h-500z" glyph-name="notequal" horiz-adv-x="1128" unicode="≠"/><glyph d="M109 0v219h952v-219h-952zM1063 264l-952 438v144l952 495v-239l-643 -318l643 -280v-240z" glyph-name="lessequal" horiz-adv-x="1128" unicode="≤"/><glyph d="M109 0v219h952v-219h-952zM109 504l643 280l-643 318v239l952 -495v-144l-952 -438v240z" glyph-name="greaterequal" horiz-adv-x="1128" unicode="≥"/><glyph d="M1128 735l-450 -735h-115l-450 735l450 738h115zM864 735l-243 410l-244 -410l244 -409z" glyph-name="lozenge" horiz-adv-x="1194" unicode="◊"/><glyph d="M-45 -492q-104 0 -174 25v242q61 -21 115 -21q61 0 107 40t65 130l204 965h-163l30 145l183 84l18 84q41 190 138.5 277.5t273.5 87.5q131 0 235 -49l-80 -224q-69 31 -133 31q-57 0 -92 -40t-47 -105l-12 -62h219l-49 -229h-220l-215 -1010q-77 -371 -403 -371zM1081 0 h-301l237 1118h301zM1065 1380q0 87 47.5 131.5t134.5 44.5q73 0 111 -31t38 -89q0 -80 -44 -129.5t-136 -49.5q-151 0 -151 123z" glyph-name="uniFB01" horiz-adv-x="1352" unicode="ﬁ"/><glyph d="M-45 -492q-104 0 -174 25v242q61 -21 115 -21q61 0 107 40t65 130l204 965h-163l30 145l183 84l18 84q41 190 138.5 277.5t273.5 87.5q131 0 235 -49l-80 -224q-69 31 -133 31q-57 0 -92 -40t-47 -105l-12 -62h219l-49 -229h-220l-215 -1010q-77 -371 -403 -371zM1081 0 h-301l330 1556h301z" glyph-name="uniFB02" horiz-adv-x="1352" unicode="ﬂ"/><glyph d="M1257 1599q-34 -133 -98 -207.5t-170 -112.5t-258 -38q-200 0 -307 76.5t-107 234.5q0 24 5 47h266l-2 -26v-21q0 -139 170 -139q99 0 152.5 44t76.5 142h272z" glyph-name="glyph566" horiz-adv-x="1135"/><glyph d="M-88 -492q-104 0 -174 25v242q61 -21 115 -21q61 0 107 40t65 130l254 1194h301l-265 -1239q-77 -371 -403 -371z" glyph-name="uni0237" horiz-adv-x="608" unicode="ȷ"/><glyph d="M494 1255q83 178 124 301h283v-20q-30 -57 -96.5 -147.5t-130.5 -159.5h-180v26z" glyph-name="glyph568" horiz-adv-x="1024"/><glyph d="M123 -426q25 51 65.5 147.5t59.5 153.5h282v-20q-33 -62 -95.5 -146.5t-131.5 -161.5h-180v27z" glyph-name="glyph569" horiz-adv-x="1024"/><glyph d="M877 1542q-20 -40 -63.5 -141t-61.5 -160h-283v21q31 59 95.5 146t131.5 161h181v-27z" glyph-name="glyph570" horiz-adv-x="1024"/><glyph d="M776 737h-119l-32 -151h-238l33 151h-373l31 174l475 557h260l-121 -563h119zM455 905l58 231l22 74q-13 -20 -43 -58t-211 -247h174z" glyph-name="uni2074" horiz-adv-x="776" unicode="⁴"/><glyph d="M489 1151q113 0 184.5 -66.5t71.5 -173.5q0 -155 -109 -248.5t-288 -93.5q-161 0 -254 54v182q51 -31 113 -48.5t119 -17.5q89 0 138.5 39t49.5 109q0 110 -131 110q-63 0 -133 -20l-76 67l119 418h528l-41 -184h-354l-43 -139q36 12 106 12z" glyph-name="uni2075" horiz-adv-x="776" unicode="⁵"/><glyph d="M123 586l463 692h-406l39 184h658l-31 -149l-465 -727h-258z" glyph-name="uni2077" horiz-adv-x="776" unicode="⁷"/><glyph d="M516 1483q139 0 215 -56t76 -153q0 -88 -50 -140.5t-139 -84.5q65 -36 104.5 -85t39.5 -122q0 -131 -99 -204t-270 -73q-142 0 -226.5 64.5t-84.5 169.5q0 94 60 154t169 98q-51 35 -79.5 78.5t-28.5 105.5q0 110 88 179t225 69zM440 952q-127 -44 -127 -137 q0 -42 26.5 -67t70.5 -25q52 0 82 31.5t30 74.5q0 44 -21.5 72t-60.5 51zM514 1325q-35 0 -59.5 -25t-24.5 -65q0 -56 64 -98q94 41 94 116q0 34 -21 53t-53 19z" glyph-name="uni2078" horiz-adv-x="776" unicode="⁸"/><glyph glyph-name="uni2000" horiz-adv-x="1024"/><glyph glyph-name="uni2001" horiz-adv-x="2048"/><glyph glyph-name="uni2002" horiz-adv-x="1024"/><glyph glyph-name="uni2003" horiz-adv-x="2048"/><glyph glyph-name="uni2004" horiz-adv-x="682"/><glyph glyph-name="uni2005" horiz-adv-x="512"/><glyph glyph-name="uni2006" horiz-adv-x="342"/><glyph glyph-name="uni2007" horiz-adv-x="1145"/><glyph glyph-name="uni2008" horiz-adv-x="584"/><glyph glyph-name="uni2009" horiz-adv-x="410"/><glyph glyph-name="uni200A" horiz-adv-x="205"/><glyph glyph-name="uni200B" unicode="​"/><glyph glyph-name="uniFEFF"/><glyph d="M84 1214v304h303v-111h-192v-193h-111zM1681 1407v111h304v-304h-109v193h-195zM84 -383v303h111v-194h192v-109h-303zM1681 -383v109h195v194h109v-303h-304zM1290 -383v109h273v-109h-273zM508 -383v109h270v-109h-270zM508 1407v111h270v-111h-270zM1985 39h-109v270 h109v-270zM1985 823h-109v271h109v-271zM899 -383v109h272v-109h-272zM195 39h-111v270h111v-270zM899 1407v111h272v-111h-272zM1290 1407v111h273v-111h-273zM195 430h-111v272h111v-272zM195 823h-111v271h111v-271zM1985 430h-109v272h109v-272zM864 629 q0 -145 -67.5 -223t-194.5 -78t-194.5 78t-67.5 223q0 146 67.5 223.5t194.5 77.5q126 0 194 -77t68 -224zM467 629q0 -197 135 -197t135 197q0 196 -135 196t-135 -196zM948 922h172q109 0 165 -33.5t56 -116.5q0 -49 -23 -81t-67 -40v-8q59 -13 83 -47t24 -90 q0 -81 -54.5 -125.5t-148.5 -44.5h-207v586zM1071 690h66q46 0 64 17t18 49q0 34 -21 48.5t-68 14.5h-59v-129zM1071 592v-154h74q49 0 67.5 21.5t18.5 58.5q0 74 -90 74h-70zM1491 330q-52 0 -80 10v102q43 -8 68 -8q86 0 86 86v402h125v-398q0 -95 -52.5 -144.5 t-146.5 -49.5z" glyph-name="uniFFFC" horiz-adv-x="2048" unicode="￼"/><glyph d="M1022 1556l940 -938l-940 -937l-938 937zM1087 367v47q0 47 19.5 77.5t89.5 86.5q100 78 138 142t38 154q0 135 -93.5 212t-258.5 77q-79 0 -172 -28t-164 -70l82 -178q160 80 250 80q63 0 94 -29t31 -76q0 -53 -24.5 -90.5t-96.5 -91.5q-82 -67 -112.5 -123t-30.5 -131 v-59h210zM850 92q0 -63 35.5 -99t105.5 -36q66 0 102.5 36.5t36.5 98.5q0 64 -36 100.5t-103 36.5q-72 0 -106.5 -36t-34.5 -101z" glyph-name="uniFFFD" horiz-adv-x="2048" unicode="�"/><glyph d="M-88 -492q-104 0 -174 25v242q61 -21 115 -21q61 0 107 40t65 130l254 1194h301l-265 -1239q-77 -371 -403 -371zM97 1569h198q63 -53 162 -168q115 94 232 168h217v-25q-212 -198 -295 -303h-338q-22 54 -74 142.5t-102 160.5v25z" glyph-name="uni01F0" horiz-adv-x="608" unicode="ǰ"/><glyph d="M586 1462l8 -22q-103 -227 -262 -479h-226q89 206 195 501h285z" glyph-name="afii57929" horiz-adv-x="440" unicode="ʼ"/><glyph d="M748 1178q0 -86 68 -135t192 -52q6 50 6 105q0 117 -36 179t-99 62q-66 0 -98.5 -44t-32.5 -115zM1278 762q-54 -286 -147 -454.5t-227.5 -248t-311.5 -79.5t-281 77.5t-104 210.5q0 65 31 158q9 29 16.5 54t7.5 48q0 58 -57 58q-38 0 -88 -25v215q116 45 225 45 q107 0 160 -53t53 -137q0 -74 -35 -187q-26 -83 -26 -125q0 -102 124 -102q122 0 210 132.5t147 408.5q-163 8 -281.5 62t-180.5 143.5t-62 201.5q0 187 120.5 294.5t323.5 107.5q202 0 310 -129.5t108 -376.5v-35l-2 -35h149l-49 -229h-133z" glyph-name="theta1" horiz-adv-x="1419" unicode="ϑ"/><glyph d="M625 870l67 123q157 287 261.5 384.5t236.5 97.5q83 0 162 -27l-56 -231q-31 14 -69 14q-59 0 -123 -80q-136 -168 -383 -602l-117 -549h-303l119 559l-236 903h312z" glyph-name="Upsilon1" horiz-adv-x="1178" unicode="ϒ"/><glyph d="M553 -20q-166 0 -257 105.5t-91 295.5q0 128 44.5 265.5t117.5 242.5h-273l29 147l196 82h1641l-47 -229h-244q17 -88 17 -199q0 -198 -72 -367.5t-190 -256t-263 -86.5q-108 0 -176 48.5t-98 153.5q-66 -109 -147 -155.5t-187 -46.5zM1403 768q0 73 -6 121h-760 q-143 -281 -143 -500q0 -172 112 -172q69 0 110.5 55.5t71.5 194.5l31 137h285l-31 -137q-18 -85 -18 -135q0 -115 100 -115q114 0 181 149.5t67 401.5z" glyph-name="omega1" horiz-adv-x="1921" unicode="ϖ"/><glyph d="M840 369l549 1093h423l-309 -1462h-280l145 692q36 169 109 441h-9l-569 -1133h-281l-61 1133h-8q-22 -182 -78 -453l-143 -680h-275l309 1462h404l65 -1093h9zM927 1606q79 88 222 303h335v-17q-46 -56 -154 -152.5t-194 -158.5h-209v25z" glyph-name="uni1E3E" horiz-adv-x="1802" unicode="Ḿ"/><glyph d="M844 1139q219 0 262 -228h8q70 112 161 170t195 58q136 0 207.5 -85t71.5 -237q0 -76 -23 -180l-133 -637h-301l138 653q16 68 16 119q0 123 -98 123q-94 0 -169.5 -115t-115.5 -315l-96 -465h-301l137 653q16 68 16 119q0 123 -98 123q-92 0 -167 -114t-118 -318 l-98 -463h-301l237 1118h230l-21 -207h9q146 228 352 228zM944 1266q79 88 222 303h335v-17q-46 -56 -154 -152.5t-194 -158.5h-209v25z" glyph-name="uni1E3F" horiz-adv-x="1853" unicode="ḿ"/><glyph d="M842 348h-473l-172 -348h-320l766 1468h373l147 -1468h-297zM827 608l-26 350l-5 133l-3 156h-5q-54 -147 -106 -254l-188 -385h333zM749 -360q0 -107 -70 -173.5t-184 -66.5q-112 0 -179.5 64.5t-67.5 173.5q0 108 67.5 172.5t179.5 64.5q110 0 182 -65t72 -170z M592 -362q0 45 -27.5 70.5t-69.5 25.5t-69 -25.5t-27 -70.5t24 -71t72 -26q42 0 69.5 26t27.5 71z" glyph-name="uni1E00" horiz-adv-x="1286" unicode="Ḁ"/><glyph d="M406 -20q-147 0 -231.5 106.5t-84.5 298.5q0 198 72 377.5t189 278t257 98.5q97 0 167.5 -42t109.5 -122h8l57 143h232l-238 -1118h-225l14 145h-8q-134 -165 -319 -165zM524 223q69 0 133 67t103 181.5t39 259.5q0 71 -38.5 117.5t-101.5 46.5q-68 0 -129.5 -72 t-98 -190t-36.5 -234q0 -88 33.5 -132t95.5 -44zM721 -360q0 -107 -70 -173.5t-184 -66.5q-112 0 -179.5 64.5t-67.5 173.5q0 108 67.5 172.5t179.5 64.5q110 0 182 -65t72 -170zM564 -362q0 45 -27.5 70.5t-69.5 25.5t-69 -25.5t-27 -70.5t24 -71t72 -26q42 0 69.5 26 t27.5 71z" glyph-name="uni1E01" horiz-adv-x="1217" unicode="ḁ"/><glyph d="M1766 938q0 -283 -99 -506.5t-271 -337.5t-396 -114q-256 0 -399.5 147.5t-143.5 409.5q0 265 99 487.5t273 341.5t402 119q255 0 395 -144t140 -403zM1206 1227q-121 0 -222 -91.5t-158.5 -251.5t-57.5 -347q0 -147 66.5 -222t187.5 -75t220.5 87t155.5 246t56 357 q0 142 -65 219.5t-183 77.5zM272 1163q61 121 143 301h262v-20q-120 -171 -252 -307h-153v26zM-40 1245q0 94 75 152t237 84v-74q-69 -17 -108.5 -37.5t-39.5 -58.5q0 -14 9 -20.5t24 -14.5q22 -11 35.5 -24t13.5 -42q0 -38 -28 -60t-82 -22q-57 0 -96.5 30t-39.5 87z" glyph-name="glyph599" horiz-adv-x="1829"/><glyph d="M399 -360q0 -107 -70 -173.5t-184 -66.5q-112 0 -179.5 64.5t-67.5 173.5q0 108 67.5 172.5t179.5 64.5q110 0 182 -65t72 -170zM242 -362q0 45 -27.5 70.5t-69.5 25.5t-69 -25.5t-27 -70.5t24 -71t72 -26q42 0 69.5 26t27.5 71z" glyph-name="uni02F3" horiz-adv-x="682" unicode="˳"/><glyph d="M414 1163q61 121 143 301h262v-20q-120 -171 -252 -307h-153v26zM102 1245q0 94 75 152t237 84v-74q-69 -17 -108.5 -37.5t-39.5 -58.5q0 -14 9 -20.5t24 -14.5q22 -11 35.5 -24t13.5 -42q0 -38 -28 -60t-82 -22q-57 0 -96.5 30t-39.5 87z" glyph-name="glyph601" horiz-adv-x="512"/><glyph d="M-45 -492q-104 0 -174 25v242q61 -21 115 -21q61 0 107 40t65 130l204 965h-163l30 145l183 84l18 84q41 190 138.5 277.5t273.5 87.5q131 0 235 -49l-80 -224q-69 31 -133 31q-57 0 -92 -40t-47 -105l-12 -62h395l18 84q41 190 138.5 277.5t273.5 87.5q131 0 235 -49 l-79 -224q-69 31 -134 31q-57 0 -91.5 -40t-47.5 -105l-12 -62h219l-49 -229h-219l-215 -1010q-77 -371 -404 -371q-104 0 -174 25v242q61 -21 115 -21q136 0 172 170l205 965h-396l-215 -1010q-77 -371 -403 -371zM1778 0h-301l237 1118h301zM1761 1380q0 87 48 131.5 t135 44.5q73 0 111 -31t38 -89q0 -80 -44 -129.5t-136 -49.5q-152 0 -152 123z" glyph-name="uniFB03" horiz-adv-x="2048" unicode="ﬃ"/><glyph d="M-45 -492q-104 0 -174 25v242q61 -21 115 -21q61 0 107 40t65 130l204 965h-163l30 145l183 84l18 84q41 190 138.5 277.5t273.5 87.5q131 0 235 -49l-80 -224q-69 31 -133 31q-57 0 -92 -40t-47 -105l-12 -62h395l18 84q41 190 138.5 277.5t273.5 87.5q131 0 235 -49 l-79 -224q-69 31 -134 31q-57 0 -91.5 -40t-47.5 -105l-12 -62h219l-49 -229h-219l-215 -1010q-77 -371 -404 -371q-104 0 -174 25v242q61 -21 115 -21q136 0 172 170l205 965h-396l-215 -1010q-77 -371 -403 -371zM1778 0h-301l329 1556h301z" glyph-name="uniFB04" horiz-adv-x="2048" unicode="ﬄ"/><glyph d="M1432 938q0 -283 -99 -506.5t-271 -337.5t-396 -114q-256 0 -399.5 147.5t-143.5 409.5q0 265 99 487.5t273 341.5t402 119q306 0 444 -207q112 74 144 278h303l10 -24q-47 -159 -140.5 -263.5t-244.5 -162.5q19 -84 19 -168zM872 1227q-121 0 -222 -91.5t-158.5 -251.5 t-57.5 -347q0 -147 66.5 -222t187.5 -75t220.5 87t155.5 246t56 357q0 142 -65 219.5t-183 77.5z" glyph-name="Ohorn" horiz-adv-x="1581" unicode="Ơ"/><glyph d="M684 1139q219 0 334 -146q68 27 110 96t64 197h295l10 -24q-48 -180 -140.5 -278.5t-262.5 -158.5q14 -51 14 -129q0 -211 -70.5 -374t-203.5 -252.5t-316 -89.5q-195 0 -311.5 117.5t-116.5 312.5q0 213 71.5 379.5t206.5 258t316 91.5zM805 696q0 197 -143 197 q-75 0 -134.5 -61t-97 -179t-37.5 -243q0 -185 150 -185q75 0 135 61.5t93.5 171t33.5 238.5z" glyph-name="ohorn" horiz-adv-x="1317" unicode="ơ"/><glyph d="M1434 1462l-39 -184q76 24 118 86.5t62 191.5h303l10 -24q-60 -204 -197 -316.5t-337 -125.5l-121 -574q-57 -266 -218 -401t-419 -135q-212 0 -333.5 113.5t-121.5 307.5q0 72 15 138l196 923h305l-194 -919q-17 -74 -17 -125q0 -178 189 -178q123 0 195 76.5t104 228.5 l194 917h306z" glyph-name="Uhorn" horiz-adv-x="1587" unicode="Ư"/><glyph d="M563 1118l-137 -653q-16 -68 -16 -119q0 -123 108 -123q92 0 167 114t118 318l98 463h301l-24 -112q51 13 85 44t55.5 79.5t41.5 154.5h303l10 -24q-58 -201 -194 -314t-340 -129l-174 -817h-228l21 207h-8q-145 -227 -355 -227q-137 0 -213 82.5t-76 238.5q0 68 29 213 l127 604h301z" glyph-name="uhorn" horiz-adv-x="1456" unicode="ư"/><glyph d="M-359 1241h-184q-71 69 -138.5 153.5t-103.5 153.5v21h311q36 -148 115 -303v-25z" glyph-name="gravecomb" unicode="̀"/><glyph d="M-593 1266q79 88 222 303h335v-17q-46 -56 -154 -152.5t-194 -158.5h-209v25z" glyph-name="acutecomb" unicode="́"/><glyph d="M-345 1241q-49 0 -86.5 16.5t-69.5 36t-61.5 36t-62.5 16.5q-31 0 -55.5 -28t-38.5 -79h-177q59 309 281 309q49 0 87.5 -16.5t71.5 -36t62 -35.5t60 -16q34 0 58 25.5t46 80.5h172q-66 -309 -287 -309z" glyph-name="tildecomb" unicode="̃"/><glyph d="M-174 1516q0 -166 -197 -226l-20 -71h-182l14 147q78 14 110.5 41.5t32.5 71.5q0 24 -16 38.5t-47 14.5q-51 0 -125 -21v164q73 25 174 25q122 0 189 -47.5t67 -136.5z" glyph-name="glyph611"/><glyph d="M-926 -307q0 86 48 131t135 45q70 0 109.5 -30.5t39.5 -90.5q0 -80 -44 -129t-136 -49q-152 0 -152 123z" glyph-name="dotbelowcomb" unicode="̣"/><glyph d="M870 0h-817l309 1462h818l-54 -254h-512l-67 -321h477l-55 -254h-477l-80 -377h512zM906 1579h-184q-71 69 -138.5 153.5t-103.5 153.5v21h311q36 -148 115 -303v-25z" glyph-name="uni0400" horiz-adv-x="1110" unicode="Ѐ"/><glyph d="M422 418l764 1044h370l-309 -1462h-276q94 446 144 682t85 379l-8 2l-764 -1063h-375l309 1462h281l-147 -692q-65 -282 -84 -352h10zM1084 1579h-184q-71 69 -138.5 153.5t-103.5 153.5v21h311q36 -148 115 -303v-25z" glyph-name="uni040D" horiz-adv-x="1546" unicode="Ѝ"/><glyph d="M696 922q-88 0 -166 -80t-102 -195h45q155 0 241.5 48.5t86.5 131.5q0 95 -105 95zM532 -20q-210 0 -326 113t-116 319q0 207 82.5 377.5t223.5 260t319 89.5q177 0 276 -81.5t99 -223.5q0 -187 -167 -288.5t-477 -101.5h-51l-2 -21v-20q0 -91 51.5 -143.5t147.5 -52.5 q87 0 158 19t172 67v-227q-172 -86 -390 -86zM810 1241h-184q-71 69 -138.5 153.5t-103.5 153.5v21h311q36 -148 115 -303v-25z" glyph-name="uni0450" horiz-adv-x="1141" unicode="ѐ"/><glyph d="M262 1118h301l-137 -653q-16 -68 -16 -119q0 -123 108 -123q92 0 167 114t118 318l98 463h301l-237 -1118h-230l21 207h-11q-145 -227 -350 -227q-138 0 -211 82.5t-73 238.5q0 93 24 213zM845 1241h-184q-71 69 -138.5 153.5t-103.5 153.5v21h311q36 -148 115 -303v-25z" glyph-name="uni045D" horiz-adv-x="1237" unicode="ѝ"/><glyph d="M1548 1235q-51 0 -95 -20.5t-95 -55.5l-105 217q164 105 346 105q211 0 322 -127t111 -369q0 -289 -91.5 -522t-246 -358t-381.5 -125q-248 0 -348 184q-73 -103 -154 -143.5t-209 -40.5q-224 0 -348.5 148t-124.5 411q0 397 184 669.5t508 272.5q97 0 176 -29.5 t131 -73.5l-133 -217l-36 26q-68 48 -140 48q-104 0 -191.5 -94.5t-137.5 -255t-50 -346.5q0 -299 195 -299q89 0 144 54t83 173l53 248h304l-39 -193q-19 -85 -19 -141q0 -63 36.5 -102t109.5 -39q121 0 212 89t146 267.5t55 380.5q0 258 -172 258z" glyph-name="uni0460" horiz-adv-x="2097" unicode="Ѡ"/><glyph d="M242 0l-140 1118h295l58 -600q8 -84 14 -246l274 492l-32 354h290l43 -602q9 -84 9 -244q128 154 208 344.5t148 501.5h309q-67 -355 -216 -628.5t-392 -489.5h-291l-37 416h-8l-213 -416h-319z" glyph-name="uni0461" horiz-adv-x="1700" unicode="ѡ"/><glyph d="M1180 492q0 -237 -158 -364.5t-457 -127.5h-438l223 1040h-244l50 230h241l39 192h305l-39 -192h291l-49 -230h-291l-30 -139h67q238 0 364 -104.5t126 -304.5zM485 254h101q140 0 212 58.5t72 164.5q0 170 -192 170h-109z" glyph-name="afii10146" horiz-adv-x="1286" unicode="Ѣ"/><glyph d="M887 889h-289l-49 -225q86 22 217 22q165 0 259.5 -82.5t94.5 -220.5q0 -121 -62 -211.5t-181.5 -141t-290.5 -50.5q-195 0 -297.5 83.5t-102.5 243.5q0 68 25 185l86 397h-236l48 229h239l43 201h301l-45 -201h287zM668 475q-70 0 -160 -18q-23 -103 -23 -140 q0 -62 39 -94.5t105 -32.5q86 0 137 45t51 117q0 123 -149 123z" glyph-name="afii10194" horiz-adv-x="1235" unicode="ѣ"/><glyph d="M1468 1227q-139 0 -248.5 -89t-164.5 -249h530l-53 -254h-528q-7 -35 -7 -86q0 -150 69.5 -229.5t193.5 -79.5q74 0 152.5 16t209.5 61v-260q-187 -77 -405 -77q-254 0 -392.5 149.5t-138.5 415.5l4 86h-198l-134 -631h-305l309 1462h306l-121 -573h188 q82 281 274.5 438.5t458.5 157.5q122 0 224 -24.5t206 -80.5l-118 -250q-168 97 -312 97z" glyph-name="uni0464" horiz-adv-x="1817" unicode="Ѥ"/><glyph d="M1053 -20q-200 0 -308 108t-108 305q0 38 4 70h-203l-98 -463h-303l239 1118h304l-93 -430h191q66 213 211.5 332t339.5 119q181 0 327 -72l-92 -229q-53 22 -105 39.5t-118 17.5q-80 0 -146.5 -54.5t-105.5 -152.5h359l-48 -225h-358l-2 -24v-23q0 -96 46.5 -144.5 t127.5 -48.5q61 0 122.5 17.5t152.5 64.5v-246q-154 -79 -336 -79z" glyph-name="uni0465" horiz-adv-x="1536" unicode="ѥ"/><glyph d="M721 0h-281l135 631h-47l-329 -631h-322l809 1468h373l188 -1468h-282l-68 631h-49zM870 868q-27 243 -34 369q-53 -123 -177 -369h211z" glyph-name="uni0466" horiz-adv-x="1370" unicode="Ѧ"/><glyph d="M895 1118l188 -1118h-278l-57 422h-37l-80 -422h-271l97 422h-41l-234 -422h-307l657 1118h363zM723 629q-29 188 -39 289l-147 -289h186z" glyph-name="uni0467" horiz-adv-x="1188" unicode="ѧ"/><glyph d="M1487 0l-68 631h-49l-127 -631h-280l135 631h-47l-330 -631h-322l346 631h-262l-133 -631h-297l309 1462h297l-120 -573h350l319 579h373l188 -1468h-282zM1182 868h211q-27 218 -35 369q-42 -99 -176 -369z" glyph-name="uni0468" horiz-adv-x="1892" unicode="Ѩ"/><glyph d="M1266 461h-25l-86 -461h-270l104 461h-28l-254 -461h-308l271 461h-264l-99 -461h-270l237 1118h273l-92 -430h348l254 430h362l189 -1118h-279zM1239 688l-31 230l-116 -230h147z" glyph-name="uni0469" horiz-adv-x="1712" unicode="ѩ"/><glyph d="M-86 0l252 541q68 145 154 215t227 96l-223 473l28 137h1184l-27 -143l-440 -481q121 -36 177.5 -128t68.5 -266l33 -444h-299l-23 455q-5 96 -28.5 138t-69.5 42h-8l-125 -635h-310l131 635h-8q-55 0 -98.5 -39.5t-83.5 -134.5l-195 -461h-317zM813 881l260 323h-405z" glyph-name="uni046A" horiz-adv-x="1495" unicode="Ѫ"/><glyph d="M-102 0l184 371q61 125 130 188.5t191 89.5l-196 365l22 104h988l-21 -104l-354 -369q80 -31 121 -99t61 -227l37 -319h-254l-23 307q-6 73 -22.5 105t-48.5 39l-92 -451h-267l103 455q-47 -3 -75 -31t-54 -84l-160 -340h-270zM621 680l186 231h-291z" glyph-name="uni046B" horiz-adv-x="1186" unicode="ѫ"/><glyph d="M1335 881l258 323h-403zM436 0l213 457q50 111 109 174h-266l-134 -631h-305l309 1462h306l-121 -573h508l-209 436l28 137h1184l-26 -143l-441 -481q94 -38 140.5 -83.5t71.5 -118t34 -192.5l33 -444h-299l-23 455q-5 96 -28 138t-70 42h-8l-125 -635h-309l131 635h-9 q-57 0 -97 -38.5t-81 -131.5l-198 -465h-318z" glyph-name="uni046C" horiz-adv-x="2017" unicode="Ѭ"/><glyph d="M408 0l163 332q43 88 93 129h-258l-99 -461h-270l237 1118h273l-92 -430h438l-176 326l22 104h987l-20 -104l-354 -369q83 -32 123 -102t59 -224l37 -319h-254l-23 307q-5 72 -22.5 104.5t-48.5 39.5l-93 -451h-266l103 455q-47 -3 -75 -31t-54 -84l-160 -340h-270z M1130 680l187 231h-291z" glyph-name="uni046D" horiz-adv-x="1696" unicode="ѭ"/><glyph d="M1200 1143q0 -169 -109.5 -266.5t-306.5 -110.5v-8q153 -19 231.5 -101.5t78.5 -210.5q0 -207 -145 -318.5t-462 -145.5q-131 -16 -178 -29t-67.5 -33.5t-20.5 -50.5q0 -74 119 -74q71 0 159 5q87 5 142 5q122 0 152 -41v-229q-16 16 -53 28.5t-93 12.5l-373 -8 q-165 0 -259.5 76t-94.5 209q0 118 48 189.5t154 116t327 77.5q121 17 194 46t106 71t33 112q0 91 -75.5 132.5t-243.5 41.5h-141l51 242h127q383 0 383 200q0 72 -47.5 113t-141.5 41q-170 0 -360 -123l-109 209q86 55 174.5 93.5t198.5 55.5q-50 104 -152 252v25h166 q107 -112 154 -174q80 89 128 126.5t97 57t107 19.5q60 0 102 -17v-149q-34 10 -72 10q-37 0 -84.5 -33.5t-128.5 -120.5q130 -33 207.5 -120.5t77.5 -202.5z" glyph-name="uni046E" horiz-adv-x="1221" unicode="Ѯ"/><glyph d="M469 688q141 0 195.5 29.5t54.5 97.5q0 46 -34 72t-120 26q-69 0 -153.5 -22.5t-161.5 -56.5l-72 219q141 52 258 71q-41 80 -125 203v25h166q107 -112 154 -174q81 90 128.5 126.5t98 56t105.5 19.5q62 0 102 -16v-150q-37 11 -72 11q-36 0 -75 -24.5t-101 -86.5 q203 -63 203 -252q0 -102 -60.5 -169t-199.5 -105v-10q190 -56 190 -226q0 -116 -58 -191t-173 -119t-354 -71q-112 -12 -154.5 -34.5t-42.5 -65.5t35.5 -59.5t97.5 -16.5q69 0 140.5 5t136.5 5q68 0 101 -10.5t48 -30.5v-229q-17 17 -55 29t-90 12q-86 0 -168.5 -4 t-175.5 -4q-164 0 -247 77.5t-83 213.5q0 151 103.5 237t326.5 111q140 16 197.5 33.5t83.5 47t26 79.5q0 52 -44 81t-132 29h-176l45 211h131z" glyph-name="uni046F" horiz-adv-x="1073" unicode="ѯ"/><glyph d="M967 434h-21l-92 -434h-285l95 434h-15q-222 0 -346.5 103.5t-124.5 287.5q0 89 23 197l94 440h295l-101 -479q-14 -68 -14 -117q0 -98 55.5 -139t167.5 -41h17l164 776h284l-164 -776h17q147 0 222.5 69t109.5 224l102 483h297l-111 -518q-109 -510 -669 -510z" glyph-name="uni0470" horiz-adv-x="1671" unicode="Ѱ"/><glyph d="M887 215q196 32 286.5 248.5t90.5 654.5h301q0 -416 -78 -649.5t-239 -354.5t-412 -143l-99 -463h-288l98 463q-209 21 -318.5 120t-109.5 269q0 70 16 150l129 608h299l-129 -616q-14 -61 -14 -121q0 -77 45.5 -121t132.5 -49l285 1343h288z" glyph-name="uni0471" horiz-adv-x="1655" unicode="ѱ"/><glyph d="M1432 938q0 -283 -99 -506.5t-271 -337.5t-396 -114q-256 0 -399.5 147.5t-143.5 409.5q0 265 99 487.5t273 341.5t402 119q255 0 395 -144t140 -403zM688 240q129 0 235 100.5t158 280.5h-645q-4 -28 -4 -84q0 -147 67.5 -222t188.5 -75zM872 1227q-120 0 -222 -91.5 t-163 -256.5h633l2 51q0 139 -65 218t-185 79z" glyph-name="afii10147" horiz-adv-x="1495" unicode="Ѳ"/><glyph d="M1108 696q0 -211 -70.5 -374t-203.5 -252.5t-316 -89.5q-195 0 -311.5 117.5t-116.5 312.5q0 213 71.5 379.5t206.5 258t316 91.5q196 0 310 -118t114 -325zM543 219q77 0 139 62t96 176h-389l-2 -29v-20q0 -91 40 -140t116 -49zM662 901q-75 0 -136.5 -61.5 t-97.5 -171.5h383v28q0 100 -38 152.5t-111 52.5z" glyph-name="afii10195" horiz-adv-x="1198" unicode="ѳ"/><glyph d="M537 305q19 58 56 150.5t54 126.5l230 481q92 191 151 265.5t128.5 110.5t164.5 36q82 0 152 -29v-248q-52 19 -97 19q-64 0 -109 -45t-96 -144l-526 -1028h-334l-127 1462h295l51 -848l5 -147q0 -73 -7 -162h9z" glyph-name="afii10148" horiz-adv-x="1331" unicode="Ѵ"/><glyph d="M455 309q32 89 92 215l137 281q66 137 117 199.5t112.5 92t145.5 29.5q75 0 131 -26v-238q-42 19 -80 19q-35 0 -65.5 -24t-53 -65t-428.5 -792h-323l-138 1118h295l45 -586q4 -84 4 -164v-59h9z" glyph-name="afii10196" horiz-adv-x="1118" unicode="ѵ"/><glyph d="M537 305q19 58 56 150.5t54 126.5l230 481q92 191 151 265.5t128.5 110.5t164.5 36q82 0 152 -29v-248q-52 19 -97 19q-64 0 -109 -45t-96 -144l-526 -1028h-334l-127 1462h295l51 -848l5 -147q0 -73 -7 -162h9zM580 1579q-71 69 -138.5 153.5t-103.5 153.5v21h283 q38 -156 115 -303v-25h-156zM961 1579q-71 69 -138.5 153.5t-103.5 153.5v21h283q37 -152 114 -303v-25h-155z" glyph-name="uni0476" horiz-adv-x="1331" unicode="Ѷ"/><glyph d="M455 309q32 89 92 215l137 281q66 137 117 199.5t112.5 92t145.5 29.5q75 0 131 -26v-238q-42 19 -80 19q-35 0 -65.5 -24t-53 -65t-428.5 -792h-323l-138 1118h295l45 -586q4 -84 4 -164v-59h9zM414 1241q-71 69 -138.5 153.5t-103.5 153.5v21h283q38 -156 115 -303v-25 h-156zM795 1241q-71 69 -138.5 153.5t-103.5 153.5v21h283q37 -152 114 -303v-25h-155z" glyph-name="uni0477" horiz-adv-x="1118" unicode="ѷ"/><glyph d="M1432 938q0 -283 -99 -506.5t-271 -337.5t-396 -114q-256 0 -399.5 147.5t-143.5 409.5q0 265 99 487.5t273 341.5t402 119q255 0 395 -144t140 -403zM872 1227q-121 0 -222 -91.5t-158.5 -251.5t-57.5 -347q0 -147 66.5 -222t187.5 -75t220.5 87t155.5 246t56 357 q0 142 -65 219.5t-183 77.5zM1581 1118h295l56 -518q12 -105 12 -293h8q20 51 44 119.5t65 153.5l260 538h327l-680 -1278q-177 -332 -483 -332q-90 0 -147 19v240q68 -13 116 -13q84 0 147.5 48t117.5 149l26 49z" glyph-name="uni0478" horiz-adv-x="2542" unicode="Ѹ"/><glyph d="M805 696q0 197 -143 197q-75 0 -134.5 -61t-97 -179t-37.5 -243q0 -185 150 -185q75 0 135 61.5t93.5 171t33.5 238.5zM1108 696q0 -211 -70.5 -374t-203.5 -252.5t-316 -89.5q-195 0 -311.5 117.5t-116.5 312.5q0 213 71.5 379.5t206.5 258t316 91.5q196 0 310 -118 t114 -325zM1212 1118h295l56 -518q12 -105 12 -293h8q20 51 44 119.5t65 153.5l260 538h327l-680 -1278q-177 -332 -483 -332q-90 0 -147 19v240q68 -13 116 -13q84 0 147.5 48t117.5 149l26 49z" glyph-name="uni0479" horiz-adv-x="2173" unicode="ѹ"/><glyph d="M1487 883q0 -240 -81.5 -436.5t-228.5 -313t-343 -143.5q-13 -56 -46 -85.5t-98 -29.5q-60 0 -92.5 30.5t-32.5 86.5q-212 40 -327 199.5t-115 404.5q0 230 85 424.5t232 310t340 144.5q14 54 47.5 82t98.5 28q59 0 91 -29t34 -83q206 -39 321 -192t115 -398zM879 1133 q-86 0 -117 71q-150 -56 -239 -223.5t-89 -378.5q0 -136 45 -221t125 -119q53 66 131 66q79 0 113 -66q151 53 239.5 218.5t88.5 393.5q0 121 -42 206t-122 122q-51 -69 -133 -69z" glyph-name="uni047A" horiz-adv-x="1550" unicode="Ѻ"/><glyph d="M1206 657q0 -273 -132.5 -450.5t-373.5 -216.5q-25 -101 -133 -101q-54 0 -84 27.5t-32 75.5q-168 35 -264.5 156t-96.5 303q0 279 136.5 459.5t377.5 217.5q28 76 125 76q92 0 113 -76q169 -32 266.5 -157t97.5 -314zM903 657q0 154 -86 207q-43 -82 -127 -82t-112 78 q-84 -49 -134.5 -161.5t-50.5 -247.5q0 -151 94 -203q23 31 51 47t70 16q77 0 107 -63q87 41 137.5 151t50.5 258z" glyph-name="uni047B" horiz-adv-x="1296" unicode="ѻ"/><glyph d="M1679 2068l-41 -194h-51q-71 0 -132 17t-113 37t-96 37t-83 17q-43 0 -68.5 -25.5t-39.5 -84.5h-193q14 156 92.5 236.5t208.5 80.5q62 0 121.5 -19t118 -41.5t118.5 -41.5t124 -19h34zM1378 1755q0 -112 -79 -182.5t-246 -79.5v92q72 14 103.5 38.5t31.5 66.5 q0 17 -9 25t-28 16q-25 12 -40 26.5t-15 48.5q0 45 31.5 70t93.5 25q71 0 114 -40.5t43 -105.5zM1548 1235q-51 0 -95 -20.5t-95 -55.5l-105 217q164 105 346 105q211 0 322 -127t111 -369q0 -306 -90 -534t-252.5 -349.5t-376.5 -121.5q-125 0 -209 39t-146 114 q-86 -86 -168.5 -119.5t-187.5 -33.5q-224 0 -348.5 148t-124.5 411q0 278 84 492.5t241 332t367 117.5q97 0 176 -29.5t131 -73.5l-133 -217l-36 26q-68 48 -140 48q-99 0 -186 -89.5t-140 -253t-53 -353.5q0 -299 205 -299q87 0 180.5 56t184.5 169q41 -88 80.5 -131.5 t94 -68.5t122.5 -25q118 0 211 96t147.5 268t54.5 373q0 258 -172 258z" glyph-name="uni047C" horiz-adv-x="2097" unicode="Ѽ"/><glyph d="M1063 -20q-182 0 -287 110q-135 -110 -295 -110q-190 0 -290.5 112.5t-100.5 327.5q0 209 72 379.5t195 255t288 84.5q142 0 244 -62l-86 -205q-60 41 -133 41q-74 0 -138 -61t-101.5 -171.5t-37.5 -250.5q0 -223 152 -223q57 0 118.5 31.5t141.5 109.5q89 -141 223 -141 q130 0 209.5 142t79.5 360q0 108 -33 156t-96 48q-59 0 -146 -41l-59 205q132 62 272 62q180 0 272.5 -110.5t92.5 -319.5q0 -214 -71.5 -386t-197 -257.5t-288.5 -85.5zM1452 1753l-41 -194h-51q-72 0 -132.5 17t-112.5 37t-96.5 37t-82.5 17q-43 0 -69 -26t-40 -85h-192 q14 156 92.5 237t208.5 81q62 0 121 -19t118 -41.5t118.5 -41.5t123.5 -19h35zM1151 1440q0 -119 -83.5 -186.5t-242.5 -75.5v92q73 14 104.5 38t31.5 66q0 17 -9.5 25t-27.5 16q-25 13 -40.5 27.5t-15.5 48.5q0 94 125 94q72 0 115 -41t43 -104z" glyph-name="uni047D" horiz-adv-x="1710" unicode="ѽ"/><glyph d="M1548 1235q-51 0 -95 -20.5t-95 -55.5l-105 217q164 105 346 105q211 0 322 -127t111 -369q0 -289 -91.5 -522t-246 -358t-381.5 -125q-248 0 -348 184q-73 -103 -154 -143.5t-209 -40.5q-224 0 -348.5 148t-124.5 411q0 397 184 669.5t508 272.5q97 0 176 -29.5 t131 -73.5l-133 -217l-36 26q-68 48 -140 48q-104 0 -191.5 -94.5t-137.5 -255t-50 -346.5q0 -299 195 -299q89 0 144 54t83 173l53 248h304l-39 -193q-19 -85 -19 -141q0 -63 36.5 -102t109.5 -39q121 0 212 89t146 267.5t55 380.5q0 258 -172 258zM1686 1857l-19 -88 l-115 -172h-69l-25 103h-131l-69 -103h-70l-25 103h-131l-69 -103h-70l-39 172l19 88h813z" glyph-name="uni047E" horiz-adv-x="2097" unicode="Ѿ"/><glyph d="M242 0l-140 1118h295l58 -600q8 -84 14 -246l274 492l-32 354h290l43 -602q9 -84 9 -244q128 154 208 344.5t148 501.5h309q-67 -355 -216 -628.5t-392 -489.5h-291l-37 416h-8l-213 -416h-319zM1403 1511l-19 -88l-115 -172h-69l-25 103h-131l-69 -103h-70l-25 103h-131 l-69 -103h-70l-39 172l19 88h813z" glyph-name="uni047F" horiz-adv-x="1700" unicode="ѿ"/><glyph d="M905 1227q-134 0 -240 -83t-168.5 -245t-62.5 -350q0 -155 69.5 -232t213.5 -77q110 0 256 36l-162 -768h-305l102 474q-232 14 -358.5 161t-126.5 402q0 265 103 487t277 337.5t402 115.5q122 0 224 -24.5t206 -80.5l-118 -250q-72 41 -148.5 69t-163.5 28z" glyph-name="uni0480" horiz-adv-x="1253" unicode="Ҁ"/><glyph d="M614 -492h-301l107 476q-156 20 -243 127t-87 280q0 212 74.5 385.5t209.5 268t308 94.5q182 0 328 -72l-92 -229q-54 23 -106 40t-118 17q-85 0 -153.5 -64t-107 -175.5t-38.5 -239.5q0 -193 176 -193q100 0 205 45z" glyph-name="uni0481" horiz-adv-x="989" unicode="ҁ"/><glyph d="M588 432l284 -166l-71 -123l-285 164l-180 -313l-129 74l180 315l-283 164l70 123l287 -164l198 346l-284 164l71 125l285 -164l182 313l127 -73l-182 -316l287 -164l-74 -123l-283 164z" glyph-name="uni0482" horiz-adv-x="1247" unicode="҂"/><glyph d="M522 1241q-34 -94 -123 -94q-48 0 -73 29.5t-25 74.5q0 60 36 100t99 40h441q31 94 120 94q51 0 75 -26.5t24 -69.5q0 -67 -36 -107.5t-97 -40.5h-441z" glyph-name="uni0483" horiz-adv-x="1096" unicode="҃"/><glyph d="M383 1436q116 0 259 60q142 60 232 60q108 0 170 -60t62 -171q0 -49 -8 -86h-183l3 31q0 80 -78 80q-42 0 -86.5 -17t-100.5 -37.5t-126.5 -37.5t-164.5 -17h-43l41 195h23z" glyph-name="uni0484" horiz-adv-x="1137" unicode="҄"/><glyph d="M602 1440q0 78 52.5 131t136.5 53q60 0 87 -27t27 -65q0 -29 -17 -49t-54 -37q-25 -11 -39.5 -24.5t-14.5 -39.5q0 -56 92 -79v-84q-124 8 -197 68.5t-73 152.5z" glyph-name="uni0485" horiz-adv-x="1135" unicode="҅"/><glyph d="M909 1479q0 -245 -338 -262v92q73 14 110.5 38t37.5 66q0 17 -9 25t-28 16q-25 12 -40 27t-15 49q0 94 125 94q71 0 114 -41t43 -104z" glyph-name="uni0486" horiz-adv-x="1135" unicode="҆"/></font>
</defs>
</svg>
